<?xml version="1.0" encoding="UTF-8"?>
<svg xmlns="http://www.w3.org/2000/svg" id="a" width="865.76" height="682.89" viewBox="0 0 865.76 682.89">
  <g>
    <g>
      <g>
        <rect x="42.88" y="103.06" width="16" height="531" fill="#fff"></rect>
        <path d="M59.38,634.56h-17V102.56h17V634.56Zm-16-1h15V103.56h-15V633.56Z" fill="#231f20"></path>
      </g>
      <g>
        <polygon points="152.88 288.06 96.88 288.06 84.88 150.06 152.88 150.06 152.88 288.06" fill="#fff"></polygon>
        <path d="M153.38,288.56h-56.96l-.04-.46-12.05-138.54h69.04v139Zm-56.04-1h55.04V150.56H85.43l11.91,137Z" fill="#231f20"></path>
      </g>
      <g>
        <path d="M153.8,619.83v6.82c0,2.14,1.73,3.87,3.87,3.87h51.34c2.14,0,3.87-1.73,3.87-3.87v-13.58l-14-2-38,3-7.08,5.77Z" fill="#fff"></path>
        <path d="M209.01,631.02h-51.34c-2.41,0-4.37-1.96-4.37-4.37v-7.05l7.39-6.02,38.21-3.02,14.48,2.07v14.02c0,2.41-1.96,4.37-4.37,4.37Zm-54.71-10.95v6.58c0,1.86,1.51,3.37,3.37,3.37h51.34c1.86,0,3.37-1.51,3.37-3.37v-13.15l-13.52-1.93-37.79,2.98-6.78,5.52Z" fill="#231f20"></path>
      </g>
      <g>
        <path d="M174.88,585.49s-5,1.57-7,16.57c0,0-16.16,7.54-14.08,17.77h40.51c2.7,0,5.32-.87,7.46-2.51,1.88-1.44,4.65-2.92,7.93-2.69l2.18-17.56v-5.33s-8.9-3.75-9.95-4.21c-1.05-.46-17.05-8.01-18.05-8.23-1-.23-9,6.21-9,6.21Z" fill="#74a34d"></path>
        <path d="M194.31,620.33h-40.92l-.08-.4c-2.02-9.91,11.98-17.16,14.11-18.2,1.91-13.92,6.45-16.36,7.21-16.67,3.73-2.99,8.32-6.49,9.36-6.25,.65,.15,6.1,2.66,14.68,6.66,1.84,.86,3.18,1.48,3.46,1.6,1.05,.46,9.94,4.21,9.94,4.21l.31,.13v5.67l-2.24,18.1-.47-.03c-3.19-.22-5.89,1.28-7.59,2.59-2.2,1.69-4.96,2.61-7.77,2.61Zm-40.09-1h40.09c2.59,0,5.13-.85,7.16-2.41,1.76-1.35,4.5-2.9,7.8-2.82l2.12-17.1v-4.94c-1.58-.66-8.72-3.67-9.65-4.08-.28-.12-1.63-.75-3.48-1.61-4.46-2.08-13.75-6.41-14.48-6.59-.68,.07-4.91,3.16-8.58,6.11l-.16,.09c-.1,.04-4.76,1.88-6.66,16.16l-.04,.27-.25,.12c-.16,.07-15.35,7.29-13.88,16.82Z" fill="#231f20"></path>
      </g>
      <path d="M158.24,609.27c-.19,0-.38-.11-.46-.3-.11-.25,0-.55,.26-.66,.13-.05,12.85-5.44,24.58-2.28,3.08,.83,6.34-.83,7.59-3.85l2.2-5.32c.11-.26,.4-.38,.65-.27,.25,.11,.38,.4,.27,.65l-2.2,5.32c-1.45,3.49-5.22,5.39-8.78,4.43-11.39-3.07-23.8,2.17-23.93,2.23-.06,.03-.13,.04-.2,.04Z" fill="#231f20"></path>
      <g>
        <path d="M95.88,283.65l83,1.41,30.39,37.89v95.38l10.61,161.74-52.28-6.54c-2.02-.25-3.41-2.15-3.05-4.15l1.33-7.32-4.94-6.18c-1.64-2.05-1.17-5.08,1.01-6.54l1.93-1.29s-74-72-76-102c0,0-2-84.47,8-122.23v-40.18Z" fill="#73adbf"></path>
        <path d="M220.42,580.63l-52.89-6.61c-1.11-.14-2.09-.71-2.76-1.62-.67-.9-.92-2.01-.72-3.12l1.29-7.09-4.8-6c-.87-1.09-1.25-2.5-1.03-3.88,.21-1.38,1-2.61,2.16-3.38l1.42-.94c-6.72-6.58-73.78-72.92-75.71-101.89-.02-.87-1.89-84.9,8-122.33v-40.62l83.74,1.42,.15,.18,30.5,38.02v95.55l10.65,162.31ZM96.38,284.16l-.02,39.8c-9.87,37.26-8,121.25-7.98,122.09,1.96,29.45,75.11,100.93,75.85,101.65l.44,.43-2.44,1.63c-.94,.63-1.55,1.59-1.73,2.71-.17,1.12,.12,2.22,.83,3.1l5.08,6.36-1.37,7.54c-.15,.83,.04,1.66,.54,2.34,.5,.68,1.24,1.11,2.07,1.22l51.69,6.46-10.57-161.13v-95.23s-30.14-37.57-30.14-37.57l-82.26-1.4Z" fill="#231f20"></path>
      </g>
      <path d="M163.88,548.56c-.14,0-.28-.06-.38-.18-.18-.21-.15-.53,.06-.7,.3-.25,30.03-25.07,45.53-31.06,.21-.08,.46,0,.59,.19,.05,.08,5.45,8.15,7.56,15.63,.08,.27-.08,.54-.35,.62-.26,.08-.54-.08-.62-.35-1.83-6.47-6.18-13.42-7.21-15.01-15.45,6.18-44.58,30.49-44.88,30.74-.09,.08-.21,.12-.32,.12Z" fill="#231f20"></path>
      <g>
        <path d="M249.9,558.46c1.65,.89,2.35,2.89,1.61,4.61-2.52,5.9-7.64,19.66-7.64,33.99,0,.19-.03,25.43-17.83,34.53-2.82,1.44-6.26,.84-8.44-1.46l-4.26-4.5c1.57,.65,3.46,.56,5.04-.43,5.24-3.3,14.49-11.37,14.49-27.14v-14.12c0-2.03-.13-4.07-.32-6.09-.28-2.93-.28-8.36,2.39-13.79l4.93-11,10.02,5.4Z" fill="#fff"></path>
        <path d="M222.83,632.87c-2.06,0-4.1-.83-5.58-2.39l-5.88-6.2,2.17,.9c1.49,.62,3.21,.47,4.58-.39,5.32-3.35,14.26-11.28,14.26-26.72v-14.12c0-1.83-.1-3.8-.32-6.04-.27-2.85-.31-8.46,2.44-14.06l5.14-11.48,10.5,5.65c1.89,1.02,2.68,3.27,1.83,5.25-2.28,5.35-7.59,19.36-7.59,33.79,0,1.05-.21,25.82-18.1,34.98-1.09,.56-2.27,.83-3.45,.83Zm-7.95-6.34l3.1,3.27c2.02,2.13,5.25,2.69,7.85,1.36,17.35-8.88,17.56-33.83,17.56-34.09,0-14.62,5.37-28.78,7.67-34.19,.64-1.5,.04-3.21-1.39-3.98l-9.55-5.14-4.71,10.51c-2.65,5.4-2.61,10.8-2.35,13.54,.22,2.27,.32,4.28,.32,6.14v14.12c0,15.91-9.22,24.1-14.72,27.56-1.14,.71-2.47,1.02-3.78,.9Z" fill="#231f20"></path>
      </g>
      <path d="M204.16,519.95c-.16,0-.31-.07-.41-.21l-42.28-59.39c-40.63-62.43-37.06-142.09-37.02-142.89,.01-.28,.23-.49,.52-.47,.28,.01,.49,.25,.47,.52-.04,.79-3.59,80.14,36.85,142.27l42.27,59.37c.16,.23,.11,.54-.12,.7-.09,.06-.19,.09-.29,.09Z" fill="#231f20"></path>
      <path d="M126.4,341.07c-.11,0-.17,0-.19,0-.28-.02-.48-.25-.47-.53,.02-.27,.25-.49,.53-.47,.03,0,2.42,.12,4.39-1.74,1.8-1.7,2.72-4.48,2.72-8.26v-18.03c0-.28,.22-.5,.5-.5s.5,.22,.5,.5v18.03c0,4.08-1.03,7.11-3.05,9.01-1.98,1.85-4.26,2-4.94,2Z" fill="#231f20"></path>
      <path d="M210.88,444.56c-.08,0-.15-.02-.23-.05l-20.77-10.56c-2.16-1.1-3.5-3.29-3.5-5.71v-41.53c0-.28,.22-.5,.5-.5h22.39c.28,0,.5,.22,.5,.5s-.22,.5-.5,.5h-21.89v41.03c0,2.05,1.13,3.89,2.96,4.82l20.77,10.56c.25,.13,.34,.43,.22,.67-.09,.17-.26,.27-.45,.27Z" fill="#231f20"></path>
      <path d="M209.27,408.35c-.07,0-.14-.01-.21-.05-15.59-7.21-22.56-21.24-22.63-21.38-.12-.25-.02-.55,.23-.67,.25-.12,.55-.02,.67,.23,.07,.14,6.9,13.86,22.15,20.91,.25,.12,.36,.41,.24,.66-.08,.18-.27,.29-.45,.29Z" fill="#231f20"></path>
      <path d="M182.88,523.56c-.16,0-.32-.08-.42-.23l-32-49c-16.89-21.85-17.08-28.23-17.08-28.49-.95-7.77-3.59-9.86-3.62-9.89-.05-.04-.09-.09-.13-.14-5.86-9.57-.3-33.1-.06-34.09,.07-.27,.32-.44,.6-.37,.27,.06,.43,.33,.37,.6-.06,.24-5.68,24-.1,33.26,.51,.43,3.01,2.93,3.94,10.56,0,.12,.34,6.54,16.9,27.97l32.02,49.03c.15,.23,.09,.54-.15,.69-.08,.06-.18,.08-.27,.08Z" fill="#231f20"></path>
      <path d="M165.88,562.56c-.16,0-.32-.08-.42-.22-.15-.23-.09-.54,.14-.69l18-12c.23-.15,.54-.09,.69,.14,.15,.23,.09,.54-.14,.69l-18,12c-.08,.06-.18,.08-.28,.08Z" fill="#231f20"></path>
      <g>
        <path d="M174.88,574.44v11.06h9.18c2.42,0,4.7,1.15,6.13,3.1l7.68,10.47s4.56,4.45,6.28-1.77c0,0,.72-3.23,3.72-2.23v-3l-5.05-14.13-27.95-3.49Z" fill="#fff"></path>
        <path d="M201.11,601.1c-1.83,0-3.5-1.61-3.58-1.68l-7.74-10.53c-1.33-1.82-3.47-2.9-5.73-2.9h-9.68v-12.12l28.82,3.6,5.18,14.59v3.69l-.66-.22c-.72-.24-1.34-.22-1.84,.06-.93,.52-1.23,1.79-1.24,1.8-.57,2.06-1.5,3.26-2.78,3.61-.25,.07-.51,.1-.76,.1Zm-2.83-2.34s1.8,1.69,3.33,1.27c.91-.25,1.6-1.22,2.07-2.88,0-.04,.39-1.68,1.71-2.42,.59-.33,1.26-.44,2-.31v-2.27l-4.91-13.76-27.09-3.39v9.99h8.68c2.57,0,5.01,1.24,6.53,3.31l7.68,10.46h0Z" fill="#231f20"></path>
      </g>
      <g>
        <path d="M134.1,121.57c-.48,.22-.97,.41-1.47,.58-11.02,3.82-23.05-2.01-26.88-13.03l-1.77-5.1-3.68-10.57-1.74-5.01c-3.83-11.02,2-23.06,13.02-26.89,2.29-.8,4.63-1.18,6.93-1.18,8.75,0,16.93,5.48,19.96,14.21l7.19,20.68c3.66,10.52-1.5,21.97-11.56,26.31Z" fill="#fff"></path>
        <path d="M125.73,123.82c-8.96,0-17.35-5.61-20.46-14.53l-7.19-20.68c-3.91-11.26,2.06-23.61,13.33-27.53,2.29-.8,4.68-1.21,7.09-1.21,9.2,0,17.41,5.85,20.43,14.55l7.19,20.68c3.7,10.64-1.49,22.47-11.83,26.93-.47,.22-.97,.41-1.51,.6-2.33,.81-4.72,1.19-7.06,1.19Zm-7.22-62.95c-2.3,0-4.58,.39-6.77,1.15-10.74,3.73-16.45,15.51-12.71,26.25l7.19,20.68c3.73,10.74,15.51,16.45,26.24,12.72,.52-.18,.98-.36,1.43-.56h0c9.86-4.26,14.82-15.54,11.29-25.69l-7.19-20.68c-2.88-8.3-10.71-13.87-19.49-13.87Z" fill="#231f20"></path>
      </g>
      <g>
        <path d="M136.88,144.06c-11,27-38.62,7.84-38.62,7.84l.62-21.84,3.45-4.04c1.06-1.24,1.65-2.83,1.65-4.46v-17.53l1.77,5.1c3.83,11.02,15.86,16.85,26.88,13.03,.5-.17,.99-.36,1.47-.58,.1,1.97,.45,3.65,.82,4.92,.65,2.23,1.09,4.51,1.25,6.83l.72,10.74Z" fill="#fff"></path>
        <path d="M117.79,159.01c-10.03,0-19.35-6.37-19.82-6.69l-.22-.15,.63-22.29,3.57-4.18c.98-1.15,1.53-2.62,1.53-4.14v-20.5l2.74,7.9c3.73,10.74,15.51,16.45,26.24,12.72,.52-.18,.98-.36,1.43-.56l.67-.31,.04,.74c.08,1.64,.35,3.25,.8,4.8,.7,2.43,1.12,4.7,1.27,6.93l.72,10.86-.04,.11c-3.04,7.46-7.63,12.14-13.64,13.93-1.96,.58-3.95,.83-5.91,.83Zm-19.02-7.37c1.79,1.17,13.98,8.76,24.65,5.58,5.68-1.69,10.03-6.14,12.95-13.24l-.71-10.63c-.14-2.16-.55-4.36-1.23-6.72-.41-1.4-.67-2.85-.79-4.32-.27,.11-.56,.21-.86,.32-11.26,3.9-23.6-2.08-27.51-13.34l-.8-2.3v14.57c0,1.75-.63,3.46-1.77,4.79l-3.34,3.91-.61,21.39Z" fill="#231f20"></path>
      </g>
      <g>
        <path d="M98.88,130.06s-5,0-8,9c0,0-38,16-36,35l2,31s-5,9-1,17c0,0-9.1,8.15-1.55,18.07,0,0-9.45,20.93,14.55,29.93,0,0,5,2,20-2,0,0,4.75,24.7-1.49,48.18-.31,1.18,.04,2.45,.98,3.23,2.16,1.81,6.69,4.86,13.84,6.13,1.92,.34,3.67-1.16,3.67-3.11v-57.21s-8.24-4.07-7.62-12.64c0,0-1.38-20.57,2.62-22.57l5-2-1.88-50.79c-.07-2.02-.53-4-1.33-5.85-1.78-4.15-4.86-12.47-4.41-19.52l.62-21.84Z" fill="#74a34d"></path>
        <path d="M102.75,326.15c-.21,0-.42-.02-.63-.06-7.31-1.3-11.95-4.47-14.07-6.24-1.06-.89-1.51-2.36-1.14-3.74,5.64-21.22,2.21-43.72,1.58-47.43-14.58,3.81-19.58,1.92-19.79,1.84-7.66-2.87-12.76-7.26-15.16-13.03-3.29-7.9-.42-15.72,.22-17.3-6.68-9.06,.04-16.74,1.52-18.25-3.58-7.62,.48-15.83,1.1-17.01l-1.99-30.86c-1.96-18.6,32.75-33.97,36.1-35.4,3.09-9.02,8.19-9.13,8.4-9.13h.51l-.63,22.35c-.44,6.92,2.55,15.07,4.37,19.31,.83,1.94,1.29,3.97,1.37,6.03l1.89,51.14-5.33,2.13c-2.68,1.34-2.85,13.94-2.31,22.07-.59,8.2,7.26,12.19,7.34,12.23l.28,.14v57.52c0,1.09-.48,2.11-1.31,2.81-.66,.55-1.48,.85-2.32,.85Zm-13.48-58.71l.1,.53c.05,.25,4.7,25.09-1.5,48.4-.27,1.01,.05,2.08,.82,2.72,2.04,1.71,6.52,4.76,13.6,6.02,.75,.13,1.53-.07,2.13-.57,.61-.51,.96-1.25,.96-2.04v-56.91c-1.47-.83-8.19-5.09-7.62-12.98-.14-2.07-1.28-20.89,2.9-22.98l4.71-1.89-1.87-50.44c-.07-1.94-.5-3.85-1.29-5.67-1.85-4.32-4.9-12.64-4.45-19.75l.6-21.23c-1.3,.31-4.74,1.76-7.01,8.58l-.07,.21-.21,.09c-.38,.16-37.64,16.07-35.7,34.49l2.01,31.17-.07,.13c-.05,.09-4.82,8.87-.99,16.53l.17,.34-.28,.25c-.36,.32-8.66,7.96-1.49,17.4l.18,.24-.12,.27c-.04,.08-3.76,8.54-.33,16.79,2.29,5.5,7.2,9.69,14.6,12.47,.06,.02,5.12,1.87,19.7-2.01l.52-.14Z" fill="#231f20"></path>
      </g>
      <g>
        <path d="M98.88,130.23s-.03-.03-.03,0c-.59,2.43-7.96,32.89-7.96,33.85s13.1,13.79,13.1,13.79l-.05-1.97c-.03-1.14-.26-2.28-.7-3.33-1.42-3.44-4.67-12.19-4.97-20.65l.62-21.68Z" fill="#231f20"></path>
        <path d="M104.51,179.07l-.88-.86c-6.04-5.9-13.25-13.14-13.25-14.14s6.1-26.24,7.98-33.96l.1-.43,.9,.09,.02,.48-.62,21.68c.29,8.36,3.55,17.08,4.93,20.44,.46,1.11,.71,2.29,.74,3.51l.08,3.2Zm-13.12-15.05c.53,1.1,7.31,7.95,12.06,12.61l-.02-.73c-.03-1.1-.25-2.16-.66-3.16-1.41-3.41-4.71-12.27-5.01-20.82l.49-17.11c-2.76,11.45-6.67,27.78-6.86,29.2Z" fill="#231f20"></path>
      </g>
      <path d="M80.65,169.84c-.38,0-.75-.14-1.04-.4-.5-.44-.66-1.13-.42-1.75l11.23-28.81c.1-.26,.39-.39,.65-.28,.26,.1,.38,.39,.28,.65l-11.23,28.81c-.13,.35,.08,.58,.15,.64,.07,.06,.32,.25,.65,.08l9.72-5.15c.24-.13,.55-.04,.68,.21,.13,.24,.04,.55-.21,.68l-9.72,5.15c-.24,.12-.49,.19-.74,.19Z" fill="#231f20"></path>
      <path d="M71.88,191.56c-.13,0-.26-.05-.35-.15-12.94-12.94-16.1-24.11-16.13-24.22-.07-.27,.08-.54,.35-.61,.27-.07,.54,.08,.61,.35,.03,.11,3.13,11.04,15.87,23.78,.2,.2,.2,.51,0,.71-.1,.1-.23,.15-.35,.15Z" fill="#231f20"></path>
      <path d="M85.23,232.45c-.25,0-.47-.19-.5-.45-2.61-24.76-11.24-49.53-11.32-49.78-.09-.26,.05-.55,.31-.64,.27-.09,.55,.05,.64,.31,.09,.25,8.75,25.12,11.37,50,.03,.27-.17,.52-.44,.55-.02,0-.04,0-.05,0Z" fill="#231f20"></path>
      <path d="M57.88,238.56c-.23,0-.44-.16-.49-.4-.05-.27,.12-.53,.39-.59l40-8c.26-.06,.53,.12,.59,.39,.05,.27-.12,.53-.39,.59l-40,8s-.07,0-.1,0Z" fill="#231f20"></path>
      <path d="M95.88,265.56c-.13,0-.27-.05-.37-.16-13.1-14.1-4.16-30.42-4.07-30.59,.13-.24,.44-.33,.68-.19,.24,.14,.33,.44,.19,.68-.09,.16-8.66,15.85,3.93,29.41,.19,.2,.18,.52-.03,.71-.1,.09-.22,.13-.34,.13Z" fill="#231f20"></path>
      <g>
        <path d="M105.36,265.36l-16.48,2.7s1.81,8.18,1.42,12.07c0,.03,.03,.04,.05,.02l15.15-14.51c.12-.11,.02-.31-.14-.28Z" fill="#231f20"></path>
        <path d="M90.45,280.75l-.65-.29v-.37c.39-3.78-1.39-11.85-1.4-11.93l-.11-.52,17-2.79c.28-.04,.57,.1,.7,.36,.13,.26,.08,.57-.13,.78l-15.39,14.75Zm-.97-12.28c.35,1.67,1.4,6.97,1.38,10.51l13.51-12.95-14.89,2.44Z" fill="#231f20"></path>
      </g>
      <g>
        <path d="M115.88,248.06s.77,13.93-7.32,16.82c-1.86,.66-3.95,.13-5.35-1.26-1.27-1.26-2.91-3.3-4.39-6.39l17.06-9.17Z" fill="#74a34d"></path>
        <path d="M106.91,265.67c-1.48,0-2.95-.59-4.06-1.69-1.19-1.18-2.94-3.28-4.49-6.53l-.21-.43,18.18-9.76,.04,.79c.03,.58,.69,14.33-7.66,17.32-.59,.21-1.2,.31-1.82,.31Zm-7.43-8.22c1.43,2.88,3,4.75,4.08,5.83,1.29,1.28,3.19,1.73,4.83,1.14,6.56-2.35,7.02-12.57,7.01-15.52l-15.92,8.55Z" fill="#231f20"></path>
      </g>
      <g>
        <path d="M134.7,121.74c-.3-.09-.61,.14-.6,.46,.02,.87,.16,2.53,.82,4.3,0,0,.96,3.57,1.25,6.83l.72,10.74s-1.29,15.57-10.64,33.79c0,0-4.88,10.21-4.12,37.71l18.04,107.19c.39,2.31,2.72,3.75,4.96,3.05,9.22-2.87,31.1-10.42,41.4-20.38,.13-.12,.33-.02,.31,.16l-1.94,17.47s0,.01,0,.01c.36-.01,25.05-.92,33,10l3.8-24.71c.11-.74,.55-1.39,1.19-1.8,2.23-1.4,7.38-6.24,6.1-20.57-.05-.55,.08-1.11,.38-1.58,1.16-1.79,3.85-7.2,.41-15.28-.32-.75-.27-1.61,.16-2.3,1.53-2.45,4.42-9.5-1.04-22.77l-29.13-87.39c-1.19-3.57-3.82-6.49-7.25-8.05l-45.66-20.77s-3.36-3.6-12.14-6.11Z" fill="#74a34d"></path>
        <path d="M218.19,334.34l-.71-.98c-7.72-10.61-31.56-9.83-32.57-9.79h-.25s-.31-.36-.31-.36l.04-.24,1.84-16.58c-10.65,9.77-32.11,17.15-40.97,19.91-1.2,.37-2.5,.21-3.58-.45-1.08-.66-1.81-1.75-2.02-3l-18.04-107.19c-.76-27.38,3.96-37.59,4.16-38.01,9.21-17.92,10.58-33.46,10.6-33.61l-.72-10.67c-.28-3.16-1.22-6.69-1.23-6.73-.68-1.8-.82-3.54-.84-4.41,0-.31,.13-.59,.38-.78,.24-.19,.57-.25,.87-.17h0c8.22,2.35,11.74,5.62,12.29,6.17l45.58,20.73c3.54,1.61,6.28,4.66,7.51,8.35l29.13,87.39c5.55,13.47,2.54,20.71,.99,23.19-.34,.54-.39,1.23-.13,1.84,3.5,8.22,.85,13.75-.45,15.75-.23,.36-.34,.81-.3,1.26,1.29,14.57-4,19.56-6.33,21.03-.52,.33-.87,.85-.96,1.45l-3.99,25.91Zm-31.58-11.8c5.67,0,23.54,.71,30.95,9.32l3.63-23.58c.14-.88,.65-1.66,1.42-2.14,2.18-1.37,7.12-6.07,5.87-20.1-.06-.68,.1-1.35,.46-1.89,1.21-1.86,3.68-7.04,.37-14.81-.39-.91-.31-1.94,.2-2.76,1.47-2.35,4.3-9.24-1.08-22.31l-29.14-87.43c-1.14-3.43-3.69-6.26-6.98-7.76l-45.75-20.81-.07-.07s-3.4-3.53-11.89-5.96c.03,.78,.17,2.39,.8,4.09,.05,.19,.99,3.7,1.28,6.96l.72,10.75c-.01,.23-1.4,15.95-10.7,34.05-.04,.09-4.81,10.46-4.06,37.47l18.03,107.12c.16,.96,.73,1.81,1.56,2.31,.83,.51,1.83,.63,2.76,.35,8.97-2.79,30.95-10.35,41.2-20.27,.21-.2,.51-.25,.78-.12,.26,.13,.41,.4,.38,.69l-1.88,16.91c.29,0,.69-.01,1.17-.01Zm-52.05-200.32h0Z" fill="#231f20"></path>
      </g>
      <path d="M178.88,174.56s-.09,0-.14-.02c-.27-.08-.42-.36-.34-.62,5-16.99,16.53-23.95,16.65-24.02,.24-.14,.54-.06,.68,.18,.14,.24,.06,.54-.18,.68-.11,.07-11.32,6.85-16.2,23.44-.06,.22-.26,.36-.48,.36Z" fill="#231f20"></path>
      <g>
        <path d="M136.88,144.06s7.51,19.04-9.91,33.2c-.17,.14-.42-.05-.32-.25,1.74-3.58,8.49-18.19,10.23-32.95Z" fill="#231f20"></path>
        <path d="M126.84,177.81c-.16,0-.31-.05-.44-.16-.26-.21-.34-.56-.2-.86,1.96-4.02,8.48-18.27,10.18-32.79l.23-1.98,.73,1.85c.08,.19,7.44,19.55-10.06,33.77-.13,.11-.29,.16-.45,.16Zm10.22-31.37c-1.91,12.63-7.07,24.64-9.38,29.57,12.37-10.84,10.66-24.35,9.38-29.57Z" fill="#231f20"></path>
      </g>
      <path d="M151.3,173.76c-.26,0-.51-.06-.76-.18l-14.82-7.23c-.25-.12-.35-.42-.23-.67,.12-.25,.42-.35,.67-.23l14.82,7.23c.24,.11,.5,.1,.72-.05,.22-.15,.33-.38,.31-.64-1.42-18.7-3.64-40.05-5.62-43.92-.13-.25-.03-.55,.22-.67,.25-.12,.55-.03,.67,.22,2.57,5.03,5.03,35.18,5.73,44.3,.05,.62-.23,1.2-.74,1.54-.29,.2-.63,.3-.96,.3Z" fill="#231f20"></path>
      <path d="M139,211.76c-.19,0-.36-.1-.45-.28-.12-.25-.02-.55,.23-.67,.13-.06,13.17-6.24,27.13-5.24,.28,.02,.48,.26,.46,.53-.02,.28-.28,.49-.53,.46-13.71-.98-26.5,5.08-26.62,5.15-.07,.03-.14,.05-.22,.05Z" fill="#231f20"></path>
      <path d="M186.88,305.56c-.22,0-.42-.14-.48-.36-1.46-5.11,1.17-13.71,2.87-18.38,.56-1.54,.55-3.28-.02-4.9-2.58-7.3-3.56-25.66-3.8-31.12-.05-1.03-.33-2.05-.85-3.03-4.12-7.8-6.81-17.34-8.34-23.97-1.22-5.28-1.91-10.74-2.06-16.23l-1.11-40.49c0-.28,.21-.51,.49-.51,.33,0,.51,.21,.51,.49l1.11,40.49c.15,5.42,.83,10.82,2.04,16.03,1.51,6.57,4.17,16.02,8.25,23.73,.59,1.11,.91,2.27,.96,3.45,.24,5.42,1.21,23.66,3.75,30.83,.65,1.84,.66,3.82,.01,5.58-1.66,4.56-4.23,12.92-2.85,17.76,.08,.27-.08,.54-.34,.62-.05,.01-.09,.02-.14,.02Z" fill="#231f20"></path>
      <path d="M219.44,323.45c-.17,0-.33-.08-.43-.24-7.2-11.72-29.87-10.66-30.1-10.65-.28,.01-.51-.2-.53-.47-.01-.28,.2-.51,.47-.53,.95-.05,23.49-1.1,31.01,11.13,.14,.24,.07,.54-.16,.69-.08,.05-.17,.07-.26,.07Z" fill="#231f20"></path>
      <g>
        <path d="M217.88,333.06s3,7-12,6c0,0,.79-8.47,3.39-12.23,0,0,4.61,1.23,8.61,6.23Z" fill="#74a34d"></path>
        <path d="M208.65,339.66c-.88,0-1.81-.03-2.8-.1l-.51-.03,.05-.51c.03-.35,.83-8.64,3.48-12.47l.2-.29,.34,.09c.2,.05,4.81,1.33,8.87,6.4l.07,.12c.04,.08,.85,2.05-.45,3.89-1.37,1.93-4.47,2.9-9.24,2.9Zm-2.22-1.06c7.07,.39,9.69-1.08,10.63-2.4,.89-1.24,.48-2.58,.38-2.88-3.21-3.99-6.85-5.5-7.96-5.89-1.99,3.2-2.84,9.36-3.05,11.17Z" fill="#231f20"></path>
      </g>
      <g>
        <path d="M185.16,323.58l18.78,34.09c.06,.11,.23,.07,.23-.05,.1-3.2,.88-22.75,5.1-30.79,0,0-7.22-3.68-23.8-3.76-.26,0-.44,.28-.31,.51Z" fill="#fff"></path>
        <path d="M204.04,358.23c-.22,0-.43-.12-.54-.32l-18.78-34.09c-.14-.26-.14-.58,.02-.84,.15-.26,.44-.42,.74-.42h0c16.51,.09,23.72,3.67,24.02,3.82l.45,.23-.24,.45c-4.14,7.87-4.93,26.85-5.04,30.57,0,.28-.2,.52-.48,.59-.05,.01-.1,.02-.15,.02Zm.33-.81h0s0,0,0,0Zm-18.65-33.86l17.99,32.67c.23-5.63,1.21-21.61,4.87-29.16-1.81-.76-9.06-3.4-22.86-3.51Zm-.13-.23h0s0,0,0,0Z" fill="#231f20"></path>
      </g>
      <g>
        <path d="M103.98,116.77s-10.38-2.53-13.78-12.64c-.22-.65-.74-1.15-1.39-1.37-2.36-.82-7.63-3.51-5.29-10.71,.21-.64,.11-1.33-.25-1.9-2.03-3.22-7.86-14.13,2.37-19.5,.7-.37,1.18-1.06,1.21-1.85,.09-1.84,.79-5.04,4.64-5.06,1.22,0,2.24-.95,2.28-2.16,.15-4.75,2.45-14.35,19.03-10.99,1.1,.22,2.28,0,3.14-.72,1.07-.9,2.93-1.73,5.4-.09,1.01,.67,2.31,.71,3.4,.18,4.4-2.14,14.99-4.36,13.72,24.62,0,0-1.51-4.85-6.73-9.32-1.56-1.33-3.89-1.19-5.29,.3-3.1,3.3-9.59,9.07-20.1,13.24-2.08,.83-3.39,2.9-3.29,5.14l.92,20.09v12.75Z" fill="#fff"></path>
        <path d="M104.48,117.41l-.62-.15c-.11-.03-10.69-2.72-14.13-12.97-.17-.49-.56-.88-1.08-1.06-2.51-.87-8.08-3.73-5.6-11.33,.16-.49,.09-1.03-.2-1.48-1.44-2.29-4.65-8.2-3.21-13.53,.76-2.82,2.7-5.07,5.77-6.68,.56-.29,.92-.84,.95-1.43,.17-3.5,2.04-5.52,5.14-5.54,.97,0,1.75-.74,1.78-1.68,.09-2.89,.91-6.89,4.26-9.53,3.37-2.66,8.54-3.31,15.37-1.93,1.01,.2,2.02-.03,2.72-.61,1.02-.86,3.16-2.01,6-.12,.84,.56,1.95,.61,2.91,.15,2.27-1.1,5.59-2,8.57-.04,4.5,2.95,6.47,11.41,5.88,25.14l-.12,2.85-.85-2.72s-1.54-4.77-6.58-9.09c-1.35-1.16-3.38-1.04-4.6,.26-2.98,3.17-9.57,9.11-20.28,13.36-1.87,.74-3.07,2.61-2.97,4.65l.92,20.09v13.41Zm2.01-67.02c-3.51,0-6.3,.81-8.34,2.42-3.05,2.41-3.79,6.11-3.88,8.78-.05,1.48-1.27,2.64-2.78,2.65-3.24,.02-4.04,2.51-4.14,4.59-.04,.94-.61,1.81-1.48,2.27-2.81,1.48-4.59,3.51-5.27,6.05-1.33,4.95,1.72,10.56,3.09,12.74,.44,.71,.55,1.55,.3,2.32-2.12,6.52,2.21,9.11,4.98,10.08,.82,.28,1.44,.9,1.7,1.69,2.79,8.31,10.55,11.4,12.8,12.13v-12.08l-.92-20.06c-.11-2.46,1.33-4.73,3.6-5.63,10.53-4.18,17-10.01,19.92-13.12,1.59-1.69,4.22-1.84,5.98-.34,3.2,2.74,5.03,5.59,5.98,7.46,.35-14.93-2.76-20.24-5.5-22.04-2.58-1.7-5.55-.88-7.58,.11-1.28,.62-2.77,.54-3.9-.21-1.76-1.17-3.37-1.15-4.81,.05-.94,.79-2.24,1.1-3.56,.83-2.27-.46-4.34-.69-6.21-.69Z" fill="#231f20"></path>
      </g>
      <g>
        <ellipse cx="98.38" cy="100.56" rx="4.83" ry="6.97" transform="translate(-34.22 53.56) rotate(-26.11)" fill="#fff"></ellipse>
        <path d="M99.91,107.67c-2.32,0-4.88-1.84-6.32-4.76-1.81-3.7-1.14-7.76,1.5-9.05,2.64-1.3,6.26,.67,8.07,4.36h0c1.81,3.7,1.14,7.76-1.5,9.05-.55,.27-1.14,.4-1.76,.4Zm-3.03-13.22c-.47,0-.93,.1-1.35,.3-2.14,1.05-2.61,4.51-1.04,7.72,1.57,3.21,4.59,4.96,6.73,3.91,2.14-1.05,2.61-4.51,1.04-7.72-1.26-2.57-3.46-4.21-5.39-4.21Z" fill="#231f20"></path>
      </g>
      <g>
        <polygon points="106.88 200.06 112.73 237.15 136.88 235.06 131.88 200.06 106.88 200.06" fill="#73adbf"></polygon>
        <path d="M112.31,237.68l-.07-.46-5.94-37.66h26.02l5.14,35.95-25.14,2.17Zm-4.85-37.12l5.69,36.04,23.16-2-4.86-34.05h-23.98Z" fill="#231f20"></path>
      </g>
      <path d="M205.88,361.56c-.17,0-.34-.09-.43-.25l-25.08-43.57c-.14-.24-.05-.54,.18-.68,.24-.14,.54-.06,.68,.18l25.08,43.57c.14,.24,.05,.54-.18,.68-.08,.05-.16,.07-.25,.07Z" fill="#231f20"></path>
      <g>
        <path d="M98.82,257.23l35.8-18.97c1.61-.86,2.85-2.28,3.46-4,.34-.95,.66-2.05,.85-3.17,.56-3.33-2.33-6.23-5.67-5.76l-19.27,2.73s-.11-2,9.89-5c0,0,3.91-.78,4.12-4.43,.05-.79-.72-1.39-1.49-1.18-2.28,.62-6.96,1.76-10.62,1.69,0,0-10.74,.82-14.45,9.35-.36,.82-.82,1.59-1.35,2.31-.69,.94-1.61,2.97-1.84,7.25,0,0-.51,14.33,.56,19.17Z" fill="#fff"></path>
        <path d="M98.47,257.98l-.14-.64c-1.07-4.84-.59-18.7-.57-19.29,.24-4.35,1.19-6.5,1.94-7.53,.54-.73,.97-1.48,1.29-2.22,3.79-8.71,14.42-9.61,14.87-9.65,3.6,.05,8.14-1.03,10.52-1.68,.52-.14,1.08-.02,1.51,.32,.42,.34,.64,.84,.61,1.37-.23,3.98-4.48,4.88-4.52,4.89-5.7,1.71-7.98,3.08-8.9,3.85l18.11-2.57c1.77-.25,3.51,.34,4.76,1.63,1.23,1.27,1.77,2.98,1.48,4.71-.17,1.01-.47,2.11-.88,3.25-.66,1.84-1.97,3.36-3.7,4.28l-36.39,19.28Zm17.42-38.33c-.06,0-10.44,.9-13.98,9.05-.35,.81-.82,1.62-1.4,2.41-.55,.76-1.52,2.67-1.75,6.98,0,.13-.45,13.13,.42,18.38l35.21-18.65c1.51-.8,2.65-2.12,3.22-3.73,.39-1.09,.67-2.13,.83-3.08,.24-1.41-.2-2.81-1.21-3.85-1.03-1.05-2.45-1.54-3.9-1.33l-19.81,2.81-.03-.54c-.03-.56,.62-2.62,10.24-5.51,.19-.04,3.58-.77,3.77-3.98,.01-.21-.08-.4-.24-.54-.18-.14-.4-.19-.61-.13-2.44,.67-7.07,1.77-10.76,1.71Z" fill="#231f20"></path>
      </g>
      <path d="M117.57,232.45c-.23,0-.44-.16-.49-.39-.06-.27,.11-.54,.38-.6l20.5-4.56c.27-.06,.54,.11,.6,.38,.06,.27-.11,.54-.38,.6l-20.5,4.56s-.07,.01-.11,.01Z" fill="#231f20"></path>
      <path d="M120.43,238.56c-.23,0-.44-.16-.49-.39-.06-.27,.11-.54,.38-.59l17.65-3.81c.27-.06,.54,.11,.59,.38,.06,.27-.11,.54-.38,.59l-17.65,3.81s-.07,.01-.11,.01Z" fill="#231f20"></path>
      <g>
        <path d="M234.95,564.06c-2.78,5.67-2.66,11.33-2.35,14.16,.21,1.93,.28,3.87,.28,5.81v14.03c0,15.77-9.25,23.84-14.49,27.14-1.58,.99-3.47,1.08-5.04,.43-1.24-.52-2.28-1.5-2.8-2.87-1.59-4.17-.67-9.7-.67-9.7,1-14-2-21-2-21l-10-28-2-12,27-9,17,10-4.93,11Z" fill="#74a34d"></path>
        <path d="M215.45,626.55c-.78,0-1.55-.15-2.29-.45-1.44-.6-2.53-1.72-3.08-3.15-1.62-4.25-.73-9.73-.7-9.96,.97-13.64-1.94-20.65-1.97-20.72l-10.01-28.03-2.09-12.51,27.62-9.21,17.58,10.34-5.12,11.42c-2.72,5.55-2.61,11.08-2.3,13.89,.19,1.75,.28,3.67,.28,5.86v14.03c0,15.91-9.22,24.1-14.72,27.56-.98,.61-2.09,.92-3.21,.92Zm-19-74.15l1.93,11.58,9.98,27.91c.11,.26,3.03,7.24,2.03,21.2-.01,.1-.88,5.5,.64,9.49,.44,1.17,1.34,2.09,2.53,2.59,1.49,.62,3.2,.47,4.58-.39,5.32-3.35,14.26-11.28,14.26-26.72v-14.03c0-2.16-.09-4.04-.28-5.76-.32-2.91-.43-8.65,2.39-14.43l4.74-10.58-16.42-9.66-26.38,8.79Z" fill="#231f20"></path>
      </g>
      <path d="M209.88,603.56c-.11,0-.22-.04-.32-.11-.21-.17-.25-.49-.07-.7,.11-.13,2.71-3.29,6.47-5.72,3.99-2.57,5.53-7.73,3.58-12.01l-.1-.22s-.05-.13-.06-.16c-.43-1.67-4.19-16.45-3.12-23.44,.04-.27,.3-.46,.57-.42,.27,.04,.46,.3,.42,.57-1.07,6.91,2.92,22.38,3.09,23.03l.1,.22c2.15,4.73,.46,10.43-3.95,13.26-3.63,2.34-6.21,5.48-6.24,5.51-.1,.12-.24,.18-.39,.18Z" fill="#231f20"></path>
      <g>
        <path d="M183.88,550.06l30.5-17.49,8.5,10.49s5.17,17.23-9.28,14.11c-4.24-.92-8.74-.04-12.24,2.52-1.55,1.13-2.87,2.57-3.47,4.37l-14-14Z" fill="#fff"></path>
        <path d="M198.1,564.99l-15.03-15.03,31.44-18.02,8.86,10.99c.11,.36,2.64,8.98-1.15,13.07-1.82,1.97-4.75,2.53-8.72,1.67-4.17-.9-8.49-.01-11.84,2.43-1.68,1.23-2.79,2.62-3.29,4.13l-.26,.77Zm-13.4-14.82l13,13c.65-1.42,1.78-2.73,3.36-3.89,3.58-2.61,8.2-3.56,12.65-2.6,3.6,.78,6.21,.32,7.77-1.37,3.2-3.46,1.21-11.09,.95-12.01l-8.17-10.08-29.56,16.95Z" fill="#231f20"></path>
      </g>
    </g>
    <g>
      <g>
        <rect x="435.88" y="89.06" width="298" height="525.5" rx="15.11" ry="15.11" fill="#e6e7e8"></rect>
        <path d="M718.77,615.06H450.99c-8.61,0-15.61-7-15.61-15.61V104.17c0-8.61,7-15.61,15.61-15.61h267.78c8.61,0,15.61,7,15.61,15.61v495.28c0,8.61-7,15.61-15.61,15.61ZM450.99,89.56c-8.05,0-14.61,6.55-14.61,14.61v495.28c0,8.05,6.55,14.61,14.61,14.61h267.78c8.05,0,14.61-6.55,14.61-14.61V104.17c0-8.05-6.55-14.61-14.61-14.61H450.99Z" fill="#231f20"></path>
      </g>
      <g>
        <path d="M699.45,102.06h-60.01l-8.56,11h-89l-8.8-11h-60.77c-16.81,0-30.43,13.62-30.43,30.43v432.14c0,16.81,13.62,30.43,30.43,30.43h227.14c16.81,0,30.43-13.62,30.43-30.43V132.49c0-16.81-13.62-30.43-30.43-30.43Zm22.43,448.34c0,15.28-12.38,27.66-27.66,27.66h-219c-15.27,0-27.66-12.38-27.66-27.66V136.72c0-15.28,12.38-27.66,27.66-27.66h58.66l10,12h85l1.62-1.96c5.25-6.36,13.07-10.04,21.32-10.04h42.4c15.28,0,27.66,12.38,27.66,27.66v413.68Z" fill="#fff"></path>
        <path d="M699.45,595.56h-227.14c-17.06,0-30.93-13.88-30.93-30.93V132.49c0-17.06,13.88-30.93,30.93-30.93h61.01l8.8,11h88.52l8.55-11h60.26c17.06,0,30.93,13.88,30.93,30.93v432.14c0,17.06-13.88,30.93-30.93,30.93ZM472.31,102.56c-16.5,0-29.93,13.43-29.93,29.93v432.14c0,16.5,13.43,29.93,29.93,29.93h227.14c16.5,0,29.93-13.43,29.93-29.93V132.49c0-16.5-13.43-29.93-29.93-29.93h-59.77l-8.55,11h-89.48l-8.8-11h-60.53Zm221.91,476h-219c-15.53,0-28.16-12.63-28.16-28.16V136.72c0-15.53,12.63-28.16,28.16-28.16h58.89l10,12h84.53l1.47-1.78c5.37-6.5,13.28-10.22,21.71-10.22h42.4c15.53,0,28.16,12.63,28.16,28.16v413.68c0,15.53-12.63,28.16-28.16,28.16ZM475.22,109.56c-14.98,0-27.16,12.18-27.16,27.16v413.68c0,14.98,12.18,27.16,27.16,27.16h219c14.97,0,27.16-12.18,27.16-27.16V136.72c0-14.98-12.18-27.16-27.16-27.16h-42.4c-8.13,0-15.76,3.59-20.94,9.86l-1.77,2.14h-85.47l-10-12h-58.42Z" fill="#231f20"></path>
      </g>
      <g>
        <ellipse cx="689.88" cy="241.56" rx="10.5" ry="17" fill="#74a34d"></ellipse>
        <path d="M689.88,259.06c-6.07,0-11-7.85-11-17.5s4.93-17.5,11-17.5,11,7.85,11,17.5-4.93,17.5-11,17.5Zm0-34c-5.51,0-10,7.4-10,16.5s4.49,16.5,10,16.5,10-7.4,10-16.5-4.49-16.5-10-16.5Z" fill="#231f20"></path>
      </g>
      <g>
        <path d="M558.2,315.09s-40.82,11.47-39.82,63.47l1.68,30.73c1.36,25.02,9.16,49.36,23.16,70.15,3.91,5.8,8.55,11.45,13.74,16.49,19.17,18.61,48.07,22.28,71.39,9.25,20.79-11.63,45.54-35.99,50.04-86.62v-42.94c0-12.77-3.11-25.42-9.48-36.49-5.62-9.78-14.39-19.56-27.85-24.04h-82.85Z" fill="#74a34d"></path>
        <path d="M598.7,513.47c-15.34,0-30.44-5.87-42.1-17.18-5.07-4.93-9.72-10.5-13.8-16.57-13.81-20.51-21.85-44.86-23.24-70.4l-1.68-30.73c-1-51.81,39.77-63.87,40.18-63.98l.14-.02h82.94l.08,.03c11.62,3.86,21.08,12.03,28.12,24.26,6.24,10.85,9.54,23.56,9.54,36.74v42.94c-4.55,51.26-29.87,75.63-50.3,87.05-9.44,5.28-19.71,7.86-29.88,7.86Zm-40.43-197.88c-1.81,.55-40.36,12.92-39.39,62.96l1.67,30.71c1.38,25.36,9.36,49.53,23.07,69.89,4.05,6.01,8.65,11.54,13.67,16.41,19.06,18.51,47.51,22.19,70.79,9.17,20.22-11.31,45.28-35.45,49.79-86.22v-42.9c0-13.01-3.26-25.54-9.41-36.24-6.9-11.99-16.15-20-27.49-23.79h-82.7Z" fill="#231f20"></path>
      </g>
      <g>
        <ellipse cx="671.88" cy="343.56" rx="21.5" ry="23" fill="#74a34d"></ellipse>
        <path d="M671.88,367.06c-12.13,0-22-10.54-22-23.5s9.87-23.5,22-23.5,22,10.54,22,23.5-9.87,23.5-22,23.5Zm0-46c-11.58,0-21,10.09-21,22.5s9.42,22.5,21,22.5,21-10.09,21-22.5-9.42-22.5-21-22.5Z" fill="#231f20"></path>
      </g>
      <g>
        <ellipse cx="680.38" cy="343.56" rx="13" ry="17" fill="#231f20"></ellipse>
        <path d="M680.38,361.06c-7.44,0-13.5-7.85-13.5-17.5s6.06-17.5,13.5-17.5,13.5,7.85,13.5,17.5-6.06,17.5-13.5,17.5Zm0-34c-6.89,0-12.5,7.4-12.5,16.5s5.61,16.5,12.5,16.5,12.5-7.4,12.5-16.5-5.61-16.5-12.5-16.5Z" fill="#231f20"></path>
      </g>
      <g>
        <path d="M685.68,333.64c11,.7,33.35,.15,51.7-8.08l9.11,8.3,2.35,9.7s-25.61,16.78-65.55,9.26c-4.58-.86-7.92-4.86-7.92-9.52h0c0-5.59,4.72-10.01,10.3-9.66Z" fill="#fff"></path>
        <path d="M703.56,355.24c-6.28,0-13.09-.56-20.36-1.93-4.82-.91-8.32-5.12-8.32-10.01,0-2.84,1.14-5.48,3.21-7.42,2.07-1.95,4.77-2.92,7.62-2.74h0c4.9,.31,30.42,1.4,51.46-8.03l.3-.13,9.47,8.62,2.47,10.19-.29,.19c-.21,.14-17.58,11.26-45.56,11.26Zm-18.51-21.12c-2.34,0-4.55,.87-6.27,2.49-1.87,1.75-2.9,4.13-2.9,6.69,0,4.41,3.16,8.21,7.51,9.03,37,6.96,61.91-7.2,64.89-9l-2.23-9.2-8.76-7.97c-16.42,7.27-37.41,8.89-51.63,7.99-.2-.01-.4-.02-.61-.02Z" fill="#231f20"></path>
      </g>
      <g>
        <ellipse cx="748.38" cy="330.56" rx="11" ry="14" transform="translate(-69.72 337.68) rotate(-24.33)" fill="#74a34d"></ellipse>
        <path d="M750.48,344.6c-4.88,0-9.99-3.57-12.58-9.3-3.29-7.29-1.27-15.34,4.5-17.95,5.78-2.61,13.16,1.19,16.45,8.47,3.29,7.29,1.27,15.34-4.5,17.95-1.24,.56-2.55,.82-3.88,.82Zm-4.18-27.08c-1.19,0-2.37,.24-3.48,.74-5.28,2.39-7.07,9.84-4,16.63,3.07,6.78,9.85,10.36,15.13,7.98,5.28-2.39,7.07-9.84,4-16.63-2.42-5.36-7.16-8.71-11.65-8.71Z" fill="#231f20"></path>
      </g>
      <g>
        <ellipse cx="751.33" cy="329.23" rx="7.46" ry="11.25" transform="translate(-68.91 338.78) rotate(-24.33)" fill="#231f20"></ellipse>
        <path d="M753.84,340.42c-3.57,0-7.58-3.1-9.76-7.92-2.67-5.9-1.58-12.17,2.41-13.98,1.97-.89,4.33-.59,6.63,.86,2.24,1.41,4.18,3.74,5.46,6.56,2.67,5.9,1.58,12.17-2.41,13.98-.74,.33-1.52,.49-2.33,.49Zm-4.99-21.4c-.69,0-1.34,.14-1.95,.41-3.5,1.58-4.35,7.26-1.91,12.66,2.44,5.4,7.27,8.5,10.77,6.92,3.5-1.58,4.35-7.26,1.91-12.66-1.2-2.65-3-4.82-5.08-6.13-1.28-.8-2.55-1.21-3.74-1.21Z" fill="#231f20"></path>
      </g>
      <g>
        <path d="M778.88,304.06s-12.35,9.48-25.19,17.11c-3.02,1.79-4.24,5.54-2.86,8.77h0c1.65,3.85,6.28,5.41,9.91,3.33,8.82-5.04,23.96-14.36,32.13-23.22l-14-6Z" fill="#fff"></path>
        <path d="M757.28,334.7c-.8,0-1.61-.13-2.38-.39-2.03-.68-3.68-2.2-4.52-4.17-1.47-3.44-.16-7.48,3.06-9.4,12.66-7.53,25.01-16.99,25.14-17.08l.23-.18,14.92,6.39-.48,.52c-8.29,8.98-23.77,18.46-32.25,23.31-1.14,.65-2.43,.99-3.72,.99Zm21.67-30.07c-1.77,1.34-13.25,9.98-25,16.97-2.79,1.66-3.93,5.16-2.65,8.15,.73,1.71,2.16,3.03,3.92,3.62,1.75,.59,3.68,.4,5.29-.52,8.27-4.73,23.22-13.88,31.53-22.61l-13.08-5.6Z" fill="#231f20"></path>
      </g>
      <g>
        <path d="M782.63,295h-.01c-3.2-4.11-3.6-9.91-.7-14.5l5.96-9.44,4,4s-12.5,11.88-9.25,19.94Z" fill="#fff"></path>
        <path d="M783.37,295.5h-1l-.15-.19c-3.38-4.35-3.68-10.41-.73-15.07l6.29-9.97,4.8,4.8-.37,.35c-.12,.12-12.22,11.74-9.13,19.39l.28,.69Zm4.6-23.64l-5.63,8.91c-2.23,3.53-2.45,7.92-.75,11.59-.21-7.14,7.72-15.46,9.58-17.31l-3.2-3.2Z" fill="#231f20"></path>
      </g>
      <g>
        <path d="M822.88,292.06s-18.85,31.19-40.43,17.1c1.23,.44,2.51,.77,3.85,.98,20.49,3.17,34.58-20.08,34.58-20.08l2,2Z" fill="#fff"></path>
        <path d="M794.01,313.32c-4.06,0-8.02-1.25-11.83-3.74l-3.55-2.31,3.99,1.43c1.21,.43,2.48,.76,3.76,.96,19.95,3.09,33.94-19.62,34.08-19.85l.33-.54,2.73,2.73-.2,.34c-.42,.7-10.56,17.24-24.68,20.46-1.55,.35-3.09,.53-4.62,.53Zm-7.82-2.69c3.95,1.73,8.04,2.13,12.21,1.18,12.63-2.88,22.32-17.3,23.84-19.68l-1.28-1.28c-2.14,3.24-14.07,20.08-30.87,20.08-1.27,0-2.56-.1-3.88-.3-.01,0-.02,0-.03,0Z" fill="#231f20"></path>
      </g>
      <g>
        <path d="M542.88,357.56c0,12.43-8.95,22.5-20,22.5-3.63,0-7.04-1.09-9.97-3-6-3.88-10.03-11.16-10.03-19.5,0-4.61,1.23-8.9,3.35-12.46,3.58-6.05,9.7-10.04,16.65-10.04,11.05,0,20,10.07,20,22.5Z" fill="#74a34d"></path>
        <path d="M522.88,380.56c-3.61,0-7.15-1.07-10.24-3.08-6.33-4.09-10.26-11.72-10.26-19.92,0-4.56,1.18-8.96,3.42-12.72,3.81-6.44,10.2-10.28,17.08-10.28,11.3,0,20.5,10.32,20.5,23s-9.2,23-20.5,23Zm0-45c-6.53,0-12.59,3.66-16.22,9.79-2.15,3.6-3.28,7.82-3.28,12.21,0,7.86,3.76,15.17,9.8,19.08,2.93,1.91,6.29,2.92,9.7,2.92,10.75,0,19.5-9.87,19.5-22s-8.75-22-19.5-22Z" fill="#231f20"></path>
      </g>
      <g>
        <path d="M526.88,360.06c0,9.38-6.25,16.98-13.97,17-6-3.88-10.03-11.16-10.03-19.5,0-4.61,1.23-8.9,3.35-12.46,1.98-1.3,4.25-2.04,6.65-2.04,7.73,0,14,7.61,14,17Z" fill="#231f20"></path>
        <path d="M512.76,377.56l-.12-.08c-6.33-4.09-10.26-11.72-10.26-19.92,0-4.56,1.18-8.96,3.42-12.72l.06-.1,.1-.06c2.12-1.39,4.51-2.12,6.92-2.12,8,0,14.5,7.85,14.5,17.5s-6.49,17.48-14.47,17.5h-.15Zm-6.16-32.1c-2.11,3.58-3.22,7.76-3.22,12.1,0,7.81,3.7,15.07,9.68,19,7.36-.12,13.32-7.48,13.32-16.5s-6.06-16.5-13.5-16.5c-2.18,0-4.35,.66-6.28,1.9Z" fill="#231f20"></path>
      </g>
      <g>
        <path d="M450.24,366.56s32.21,.66,52.52-12.5c4.07-2.63,9.43-1.99,12.61,1.67l.14,.16c3.54,4.07,3.03,10.25-1.12,13.7-9.92,8.25-32.53,20.95-64.5,13.47l.36-16.5Z" fill="#fff"></path>
        <path d="M469.19,385.87c-5.98,0-12.46-.68-19.43-2.32l-.39-.09,.38-17.4h.5c.33,.01,32.29,.52,52.24-12.41,4.34-2.82,9.92-2.08,13.26,1.76l.14,.16c1.8,2.07,2.67,4.71,2.45,7.44-.22,2.74-1.51,5.22-3.62,6.98-6.46,5.38-22.1,15.89-45.51,15.89Zm-18.8-3.2c33.59,7.71,55.71-6.83,63.67-13.46,1.91-1.59,3.07-3.82,3.27-6.29,.2-2.46-.58-4.84-2.2-6.7l-.14-.16c-3.01-3.46-8.04-4.11-11.96-1.57-18.65,12.08-47.57,12.58-52.18,12.58h-.13l-.34,15.6Z" fill="#231f20"></path>
      </g>
      <g>
        <path d="M455.88,376.06c0,7.73-4.7,14-10.5,14-2.46,0-4.73-1.13-6.51-3.03-2.44-2.56-3.99-6.52-3.99-10.97,0-5.07,2.02-9.52,5.06-11.97,1.58-1.29,3.45-2.03,5.44-2.03,5.8,0,10.5,6.27,10.5,14Z" fill="#74a34d"></path>
        <path d="M445.38,390.56c-2.51,0-4.95-1.13-6.88-3.19-2.62-2.75-4.12-6.87-4.12-11.31,0-5.09,1.96-9.71,5.25-12.36,1.71-1.4,3.71-2.14,5.75-2.14,6.07,0,11,6.5,11,14.5s-4.93,14.5-11,14.5Zm0-28c-1.82,0-3.59,.66-5.12,1.92-3.01,2.42-4.88,6.86-4.88,11.58,0,4.18,1.4,8.06,3.85,10.63,1.74,1.85,3.92,2.87,6.15,2.87,5.51,0,10-6.06,10-13.5s-4.49-13.5-10-13.5Z" fill="#231f20"></path>
      </g>
      <g>
        <path d="M446.88,375.56c0,6.35-3.36,11.5-7.5,11.5-.17,0-.34-.01-.51-.03-2.44-2.56-3.99-6.52-3.99-10.97,0-5.07,2.02-9.52,5.06-11.97,3.88,.44,6.94,5.41,6.94,11.47Z" fill="#231f20"></path>
        <path d="M439.38,387.56c-.19,0-.38-.01-.57-.03l-.18-.02-.12-.13c-2.62-2.75-4.13-6.88-4.13-11.31,0-5.09,1.96-9.71,5.25-12.36l.16-.13,.21,.02c4.14,.47,7.38,5.73,7.38,11.97,0,6.62-3.59,12-8,12Zm-.28-1.01c3.94,.26,7.28-4.78,7.28-10.99,0-5.63-2.75-10.38-6.29-10.94-2.91,2.45-4.71,6.81-4.71,11.44,0,4.11,1.36,7.92,3.72,10.49Z" fill="#231f20"></path>
      </g>
      <g>
        <path d="M405.88,363.06s14.96,6.1,30.24,6.32c3.76,.05,6.76,3.18,6.76,6.94h0c0,3.93-3.24,7.07-7.17,6.94-7.74-.25-23.25-2.1-40.05-10.23l10.21-9.96Z" fill="#fff"></path>
        <path d="M435.94,383.76c-.08,0-.17,0-.25,0-6.12-.2-22.3-1.6-40.25-10.28l-.64-.31,10.96-10.69,.3,.12c.15,.06,15.06,6.07,30.06,6.28,4,.06,7.26,3.39,7.26,7.44,0,2.04-.8,3.94-2.27,5.35-1.4,1.36-3.23,2.1-5.17,2.1Zm-39.42-10.88c17.51,8.33,33.21,9.68,39.2,9.87,1.76,.05,3.43-.59,4.69-1.81,1.26-1.22,1.96-2.87,1.96-4.63,0-3.5-2.81-6.39-6.27-6.44-14-.2-27.89-5.37-30.11-6.23l-9.47,9.24Z" fill="#231f20"></path>
      </g>
      <g>
        <path d="M406.91,369.07h-.01c-1.14,1.37-2.44,2.56-3.85,3.55-5.84,4.13-13.6,4.95-20.31,1.78l-19.86-9.34,4-7,14.45,6.47c5.57,2.49,12.13,.46,15.32-4.75,1.11-1.81,1.69-3.83,1.76-5.84,.02-.16,.02-.32,.02-.48,0-3.4-1.43-6.76-4.13-9.14l-9.42-8.26,6-8,14.22,13.13c7.94,7.33,8.73,19.59,1.81,27.88Z" fill="#74a34d"></path>
        <path d="M391.36,376.83c-3.01,0-6.03-.65-8.83-1.98l-20.35-9.57,4.49-7.86,14.86,6.66c5.33,2.38,11.64,.42,14.69-4.55,1.04-1.69,1.62-3.62,1.69-5.6,.02-.19,.02-.32,.02-.46,0-3.35-1.44-6.55-3.96-8.76l-9.77-8.56,6.61-8.81,14.63,13.51c8.14,7.51,8.95,20.06,1.85,28.57l-.16,.18c-1.12,1.31-2.39,2.48-3.79,3.46-3.56,2.52-7.76,3.8-11.98,3.8Zm-27.78-11.99l19.37,9.11c6.42,3.03,14.01,2.37,19.81-1.74,1.39-.98,2.66-2.14,3.75-3.46l.16-.18c6.6-8.09,5.78-19.91-1.91-27.01l-13.81-12.75-5.39,7.19,9.07,7.95c2.73,2.41,4.3,5.88,4.3,9.52,0,.18,0,.36-.02,.54-.07,2.1-.7,4.2-1.83,6.04-3.31,5.41-10.17,7.53-15.95,4.95l-14.04-6.29-3.51,6.14Z" fill="#231f20"></path>
      </g>
      <g>
        <path d="M398.43,353.46c0,.16,0,.32-.02,.48-3.46-7.12-16.53-13.88-16.53-13.88l3-4,9.42,8.26c2.7,2.38,4.13,5.74,4.13,9.14Z" fill="#231f20"></path>
        <path d="M398.69,355.67l-.73-1.51c-3.35-6.89-16.18-13.59-16.31-13.65l-.53-.27,3.68-4.9,9.83,8.62c2.73,2.41,4.3,5.88,4.3,9.52,0,.18,0,.36-.02,.54l-.21,1.66Zm-16.06-15.77c2.29,1.24,11.24,6.32,15.21,12.09-.36-2.8-1.72-5.4-3.87-7.29l-9.01-7.9-2.33,3.1Z" fill="#231f20"></path>
      </g>
      <g>
        <path d="M403.05,372.62c-14.83,15.56-42.17-3.56-42.17-3.56l2-4,19.86,9.34c6.71,3.17,14.47,2.35,20.31-1.78Z" fill="#231f20"></path>
        <path d="M388.08,379.17c-13.4,0-27.29-9.56-27.49-9.7l-.35-.25,2.41-4.82,20.3,9.55c6.42,3.03,14.01,2.37,19.81-1.74l.65,.75c-4.37,4.58-9.81,6.2-15.33,6.2Zm-26.56-10.28c2.94,1.94,23.26,14.71,37.07,6.64-5.16,1.92-10.97,1.73-16.07-.68l-19.42-9.13-1.58,3.17Z" fill="#231f20"></path>
      </g>
      <g>
        <rect x="548.37" y="366.06" width="100" height="67" fill="#fff"></rect>
        <path d="M648.87,433.56h-101v-68h101v68Zm-100-1h99v-66h-99v66Z" fill="#231f20"></path>
      </g>
      <g>
        <rect x="556.37" y="373.06" width="84" height="54" fill="#73adbf"></rect>
        <path d="M640.87,427.56h-85v-55h85v55Zm-84-1h83v-53h-83v53Z" fill="#231f20"></path>
      </g>
      <path d="M616.73,404.06h-6.6c-.24,0-.45-.18-.49-.42l-1.48-8.81-3.84,8.93c-.08,.18-.26,.3-.46,.3h-12.49c-.21,0-.4-.13-.47-.33l-2.64-7.22-5.48,5.9c-.13,.14-.33,.19-.51,.14-.18-.06-.32-.21-.35-.4l-1.73-10.98-3.71,11.06c-.07,.2-.26,.34-.47,.34h-7.64c-.28,0-.5-.22-.5-.5s.22-.5,.5-.5h7.28l4.25-12.66c.07-.22,.28-.36,.52-.34,.23,.02,.42,.19,.45,.42l1.89,11.98,5.33-5.75c.12-.13,.29-.18,.46-.15,.17,.03,.31,.16,.37,.32l2.8,7.66h11.81l4.38-10.19c.09-.2,.3-.33,.52-.3,.22,.03,.4,.2,.43,.41l1.69,10.07h5.77c3.07-14.22,4.04-18.62,4.55-19.96,0-.01,0-.02,0-.03h.01c.22-.56,.35-.55,.53-.53,.25,.03,.45,.28,.45,.53,0,.69,1.73,11.88,2.93,19.5h7.57c.28,0,.5,.22,.5,.5s-.22,.5-.5,.5h-8c-.25,0-.46-.18-.49-.42-.24-1.53-1.95-12.37-2.68-17.47-.94,4.01-2.72,12.14-3.98,17.99-.05,.23-.25,.39-.49,.39Z" fill="#231f20"></path>
      <g>
        <circle cx="582.37" cy="418.06" r="2" fill="silver"></circle>
        <path d="M582.37,420.56c-1.38,0-2.5-1.12-2.5-2.5s1.12-2.5,2.5-2.5,2.5,1.12,2.5,2.5-1.12,2.5-2.5,2.5Zm0-4c-.83,0-1.5,.67-1.5,1.5s.67,1.5,1.5,1.5,1.5-.67,1.5-1.5-.67-1.5-1.5-1.5Z" fill="#231f20"></path>
      </g>
      <g>
        <circle cx="597.87" cy="418.06" r="2" fill="#231f20"></circle>
        <path d="M597.87,420.56c-1.38,0-2.5-1.12-2.5-2.5s1.12-2.5,2.5-2.5,2.5,1.12,2.5,2.5-1.12,2.5-2.5,2.5Zm0-4c-.83,0-1.5,.67-1.5,1.5s.67,1.5,1.5,1.5,1.5-.67,1.5-1.5-.67-1.5-1.5-1.5Z" fill="#231f20"></path>
      </g>
      <g>
        <circle cx="613.37" cy="418.06" r="2" fill="#fff"></circle>
        <path d="M613.37,420.56c-1.38,0-2.5-1.12-2.5-2.5s1.12-2.5,2.5-2.5,2.5,1.12,2.5,2.5-1.12,2.5-2.5,2.5Zm0-4c-.83,0-1.5,.67-1.5,1.5s.67,1.5,1.5,1.5,1.5-.67,1.5-1.5-.67-1.5-1.5-1.5Z" fill="#231f20"></path>
      </g>
      <g>
        <ellipse cx="599.63" cy="248.06" rx="92.25" ry="75" fill="#74a34d"></ellipse>
        <path d="M599.63,323.56c-51.14,0-92.75-33.87-92.75-75.5s41.61-75.5,92.75-75.5,92.75,33.87,92.75,75.5-41.61,75.5-92.75,75.5Zm0-150c-50.59,0-91.75,33.42-91.75,74.5s41.16,74.5,91.75,74.5,91.75-33.42,91.75-74.5-41.16-74.5-91.75-74.5Z" fill="#231f20"></path>
      </g>
      <g>
        <ellipse cx="512.38" cy="245.06" rx="15" ry="20.5" fill="#231f20"></ellipse>
        <path d="M512.38,266.06c-8.55,0-15.5-9.42-15.5-21s6.95-21,15.5-21,15.5,9.42,15.5,21-6.95,21-15.5,21Zm0-41c-8,0-14.5,8.97-14.5,20s6.5,20,14.5,20,14.5-8.97,14.5-20-6.5-20-14.5-20Z" fill="#231f20"></path>
      </g>
      <g>
        <ellipse cx="504.88" cy="244.56" rx="10.5" ry="17" fill="#74a34d"></ellipse>
        <path d="M504.88,262.06c-6.07,0-11-7.85-11-17.5s4.93-17.5,11-17.5,11,7.85,11,17.5-4.93,17.5-11,17.5Zm0-34c-5.51,0-10,7.4-10,16.5s4.49,16.5,10,16.5,10-7.4,10-16.5-4.49-16.5-10-16.5Z" fill="#231f20"></path>
      </g>
      <g>
        <rect x="543.38" y="221.56" width="126" height="48" rx="15.55" ry="15.55" fill="#fff"></rect>
        <path d="M653.83,270.06h-94.9c-8.85,0-16.05-7.2-16.05-16.05v-16.9c0-8.85,7.2-16.05,16.05-16.05h94.9c8.85,0,16.05,7.2,16.05,16.05v16.9c0,8.85-7.2,16.05-16.05,16.05Zm-94.9-48c-8.3,0-15.05,6.75-15.05,15.05v16.9c0,8.3,6.75,15.05,15.05,15.05h94.9c8.3,0,15.05-6.75,15.05-15.05v-16.9c0-8.3-6.75-15.05-15.05-15.05h-94.9Z" fill="#231f20"></path>
      </g>
      <path d="M591.38,260.06c-.83,0-1.5-.67-1.5-1.5v-8c0-6.89-5.61-12.5-12.5-12.5s-12.5,5.61-12.5,12.5v8c0,.83-.67,1.5-1.5,1.5s-1.5-.67-1.5-1.5v-8c0-8.55,6.95-15.5,15.5-15.5s15.5,6.95,15.5,15.5v8c0,.83-.67,1.5-1.5,1.5Z" fill="#231f20"></path>
      <path d="M653.38,260.06c-.83,0-1.5-.67-1.5-1.5v-8c0-6.89-5.61-12.5-12.5-12.5s-12.5,5.61-12.5,12.5v8c0,.83-.67,1.5-1.5,1.5s-1.5-.67-1.5-1.5v-8c0-8.55,6.95-15.5,15.5-15.5s15.5,6.95,15.5,15.5v8c0,.83-.67,1.5-1.5,1.5Z" fill="#231f20"></path>
      <g>
        <path d="M820.88,290.12s-14.09,23.25-34.58,20.08c-1.34-.21-2.62-.54-3.85-.98-7.58-2.73-12.92-9.7-13.13-18.02-.18-6.88,2.26-15.89,11.56-26.08l7,6-5.96,9.44c-2.9,4.59-2.5,10.39,.7,14.5h.01c.59,.77,1.29,1.48,2.08,2.12,2.3,1.84,5.1,2.77,7.9,2.77,2.31,0,4.63-.63,6.68-1.91,4.97-3.11,9.59-6.92,15.59-14.92l6,7Z" fill="#74a34d"></path>
        <path d="M790.1,311c-1.27,0-2.56-.1-3.88-.3-1.34-.21-2.67-.55-3.94-1-7.97-2.87-13.25-10.12-13.46-18.48-.23-8.79,3.7-17.68,11.69-26.43l.33-.36,7.7,6.6-6.19,9.81c-2.68,4.25-2.46,9.74,.53,13.74l.15,.19c.56,.73,1.23,1.41,2,2.04,2.14,1.71,4.84,2.66,7.58,2.66,2.28,0,4.49-.63,6.42-1.83,4.93-3.08,9.44-6.78,15.46-14.8l.37-.5,6.64,7.75-.19,.31c-.13,.22-12.72,20.61-31.21,20.61Zm-9.17-45.18c-7.59,8.44-11.32,16.97-11.1,25.37,.2,7.94,5.22,14.83,12.8,17.56,1.21,.43,2.48,.76,3.76,.96,18.67,2.89,32.13-16.83,33.88-19.54l-5.36-6.25c-6.28,8.26-11.09,11.88-15.35,14.55-2.08,1.3-4.48,1.99-6.95,1.99-2.97,0-5.89-1.02-8.21-2.88-.76-.62-1.44-1.29-2.01-2.01h0l-.16-.19c-3.38-4.35-3.68-10.41-.73-15.07l5.73-9.07-6.3-5.4Z" fill="#231f20"></path>
      </g>
      <g>
        <g>
          <path d="M446.79,232.06h-108.82c-7.78,0-14.09,6.31-14.09,14.09v51.82c0,7.78,6.31,14.09,14.09,14.09h72.41c5.5,7.03,17.25,19,33.5,19,0,0-7.02-7.02-7.97-19h10.88c7.78,0,14.09-6.31,14.09-14.09v-51.82c0-7.78-6.31-14.09-14.09-14.09Z" fill="#73adbf"></path>
          <path d="M443.88,331.56c-16.28,0-28.07-11.81-33.74-19h-72.17c-8.04,0-14.59-6.54-14.59-14.59v-51.82c0-8.04,6.54-14.59,14.59-14.59h108.82c8.04,0,14.59,6.55,14.59,14.59v51.82c0,8.04-6.55,14.59-14.59,14.59h-10.33c1.09,11.31,7.71,18.08,7.78,18.15l.85,.85h-1.2Zm-105.91-99c-7.49,0-13.59,6.1-13.59,13.59v51.82c0,7.49,6.1,13.59,13.59,13.59h72.66l.15,.19c5.37,6.86,16.55,18.25,31.96,18.79-1.89-2.24-6.55-8.69-7.33-18.44l-.04-.54h11.42c7.49,0,13.59-6.1,13.59-13.59v-51.82c0-7.49-6.1-13.59-13.59-13.59h-108.82Z" fill="#231f20"></path>
        </g>
        <path d="M437.6,253.56h-91.72c-.28,0-.5-.22-.5-.5s.22-.5,.5-.5h91.72c.28,0,.5,.22,.5,.5s-.22,.5-.5,.5Z" fill="#231f20"></path>
        <path d="M437.6,269.56h-91.72c-.28,0-.5-.22-.5-.5s.22-.5,.5-.5h91.72c.28,0,.5,.22,.5,.5s-.22,.5-.5,.5Z" fill="#231f20"></path>
        <path d="M438.6,287.56h-91.72c-.28,0-.5-.22-.5-.5s.22-.5,.5-.5h91.72c.28,0,.5,.22,.5,.5s-.22,.5-.5,.5Z" fill="#231f20"></path>
      </g>
    </g>
    <g>
      <g>
        <path d="M249.82,145.48h73.98c5.29,0,9.58,4.29,9.58,9.58v35.23c0,5.29-4.29,9.58-9.58,9.58h-49.23c-3.74,4.78-11.73,12.92-22.77,12.92,0,0,4.77-4.78,5.42-12.92h-7.39c-5.29,0-9.58-4.29-9.58-9.58v-35.23c0-5.29,4.29-9.58,9.58-9.58Z" fill="#74a34d"></path>
        <path d="M251.8,213.29h-1.2l.85-.85s4.44-4.54,5.22-12.06h-6.85c-5.56,0-10.08-4.52-10.08-10.08v-35.23c0-5.56,4.52-10.08,10.08-10.08h73.98c5.56,0,10.08,4.52,10.08,10.08v35.23c0,5.56-4.52,10.08-10.08,10.08h-48.99c-3.89,4.92-11.93,12.92-23.02,12.92Zm-1.98-67.31c-5.01,0-9.08,4.07-9.08,9.08v35.23c0,5.01,4.07,9.08,9.08,9.08h7.94l-.04,.54c-.5,6.3-3.38,10.6-4.79,12.35,10.23-.53,17.66-8.11,21.25-12.7l.15-.19h49.48c5.01,0,9.08-4.07,9.08-9.08v-35.23c0-5.01-4.07-9.08-9.08-9.08h-73.98Z" fill="#231f20"></path>
      </g>
      <path d="M318.42,160.26h-62.36c-.28,0-.5-.22-.5-.5s.22-.5,.5-.5h62.36c.28,0,.5,.22,.5,.5s-.22,.5-.5,.5Z" fill="#231f20"></path>
      <path d="M318.42,171.14h-62.36c-.28,0-.5-.22-.5-.5s.22-.5,.5-.5h62.36c.28,0,.5,.22,.5,.5s-.22,.5-.5,.5Z" fill="#231f20"></path>
      <path d="M317.74,183.37h-62.36c-.28,0-.5-.22-.5-.5s.22-.5,.5-.5h62.36c.28,0,.5,.22,.5,.5s-.22,.5-.5,.5Z" fill="#231f20"></path>
    </g>
  </g>
  <path d="M98.78,102.56c-.17,0-.34-.09-.43-.24l-2.4-4.03c-.14-.24-.06-.54,.17-.69s.54-.06,.69,.17l2.4,4.03c.14,.24,.06,.54-.17,.69-.08,.05-.17,.07-.26,.07Z" fill="#231f20"></path>
  <g>
    <path d="M114.36,84c-.11,0-.22-.04-.31-.11-.21-.17-.25-.49-.08-.7,.09-.11,2.31-2.81,7.89-3.51,.27-.04,.52,.16,.56,.43,.03,.27-.16,.52-.43,.56-5.14,.64-7.21,3.12-7.23,3.14-.1,.12-.24,.19-.39,.19Z" fill="#231f20"></path>
    <path d="M140.15,82.33c-.09,0-.17-.02-.25-.07-1.12-.66-2.27-1.03-3.41-1.11-.28-.02-.48-.26-.47-.53,.02-.28,.27-.48,.53-.47,1.3,.09,2.59,.51,3.85,1.25,.24,.14,.32,.45,.18,.68-.09,.16-.26,.25-.43,.25Z" fill="#231f20"></path>
    <g>
      <ellipse cx="120.36" cy="89" rx="1.5" ry="2" transform="translate(-24.26 50.35) rotate(-21.52)" fill="#231f20"></ellipse>
      <path d="M120.67,91.44c-.35,0-.71-.1-1.04-.31-.49-.3-.9-.8-1.13-1.4-.24-.6-.28-1.23-.13-1.79,.17-.6,.56-1.06,1.07-1.27,.52-.2,1.12-.13,1.65,.2,.49,.3,.9,.8,1.13,1.4h0c.24,.6,.28,1.23,.13,1.79-.17,.6-.56,1.06-1.07,1.27-.19,.08-.4,.11-.61,.11Zm-.62-3.88c-.08,0-.16,.01-.24,.05-.3,.12-.42,.43-.47,.6-.1,.35-.06,.77,.09,1.16,.15,.39,.42,.72,.72,.91,.15,.09,.45,.24,.76,.12,.3-.12,.42-.43,.47-.6,.1-.35,.06-.77-.09-1.16h0c-.15-.39-.42-.72-.72-.91-.11-.07-.3-.16-.51-.16Z" fill="#231f20"></path>
    </g>
    <g>
      <ellipse cx="139.36" cy="87" rx="1.5" ry="2" transform="translate(-22.2 57.18) rotate(-21.52)" fill="#231f20"></ellipse>
      <path d="M139.67,89.44c-.35,0-.71-.1-1.04-.31-.49-.3-.9-.8-1.13-1.4-.24-.6-.28-1.23-.13-1.79,.17-.6,.56-1.06,1.07-1.27,.51-.2,1.12-.13,1.65,.2,.49,.3,.9,.8,1.13,1.4h0c.24,.6,.28,1.23,.13,1.79-.17,.6-.56,1.06-1.07,1.27-.19,.08-.4,.11-.61,.11Zm-.62-3.88c-.08,0-.16,.01-.24,.05-.3,.12-.42,.43-.47,.6-.1,.35-.06,.77,.09,1.16,.15,.39,.42,.72,.72,.91,.15,.09,.45,.24,.76,.12,.3-.12,.42-.43,.47-.6,.1-.35,.06-.77-.09-1.16h0c-.15-.39-.42-.72-.72-.91-.11-.07-.3-.16-.51-.16Z" fill="#231f20"></path>
    </g>
    <path d="M129.86,98.5c-.23,0-.44-.16-.49-.4-.05-.27,.12-.53,.39-.59l4.39-.88-3.75-8.43c-.11-.25,0-.55,.25-.66,.25-.11,.55,0,.66,.25l4,9c.06,.14,.06,.3-.01,.43-.07,.13-.2,.23-.35,.26l-5,1s-.07,0-.1,0Z" fill="#231f20"></path>
    <g>
      <path d="M124.86,104l14.5-1.64s-2.5,16.64-14.5,1.64Z" fill="#fff"></path>
      <path d="M133.51,110.77c-2.57,0-5.61-2.16-9.04-6.45l-.57-.71,16.05-1.82-.1,.64c-.04,.29-1.11,7.08-5.21,8.19-.37,.1-.75,.15-1.13,.15Zm-7.68-6.37c3.39,4.04,6.34,5.86,8.55,5.26,2.81-.75,4-5.06,4.36-6.72l-12.91,1.46Z" fill="#231f20"></path>
    </g>
  </g>
</svg>
