<?xml version="1.0" encoding="UTF-8"?>
<svg xmlns="http://www.w3.org/2000/svg" id="a" width="865.76" height="682.89" viewBox="0 0 865.76 682.89">
  <g>
    <g>
      <circle cx="390.91" cy="206.65" r="17.85" fill="#002346"></circle>
      <path d="M403.4,192.96c7.55,6.89,8.09,18.63,1.2,26.18-6.89,7.55-18.63,8.09-26.18,1.2-7.55-6.89-8.09-18.63-1.2-26.18,6.89-7.55,18.63-8.09,26.18-1.2Zm-.93,1.01c-6.99-6.38-17.86-5.88-24.24,1.11-6.38,6.99-5.88,17.86,1.11,24.24,6.99,6.38,17.86,5.88,24.24-1.11,6.38-6.99,5.88-17.86-1.11-24.24Z" fill="#0d2445"></path>
    </g>
    <g>
      <circle cx="376.75" cy="210.62" r="13.73" fill="#e1cf56"></circle>
      <path d="M386.46,199.97c5.87,5.36,6.29,14.49,.94,20.36-5.36,5.87-14.49,6.29-20.36,.94-5.87-5.36-6.29-14.49-.94-20.36s14.49-6.29,20.36-.94Zm-.93,1.01c-5.31-4.85-13.58-4.47-18.42,.85-4.85,5.31-4.47,13.58,.85,18.42s13.58,4.47,18.42-.85c4.85-5.31,4.47-13.58-.85-18.42Z" fill="#002346"></path>
    </g>
  </g>
  <g>
    <path d="M178.03,418.36l160.32-29.16v-127.71c3.52,1.93,67.43,1.08,102.69,.45,13.2-.23,24.61,9.17,26.9,22.18l21.36,121.39c2.09,11.9,4.87,23.66,7.97,35.33,2.03,7.66,3.11,18.55-3.38,26.71,0,0-24.77,25.95-23.63,48.11,0,0,4.54,63.65-89.82,67.65l-144.94-10.8c-48.32-3.98-46.62-7.39-46.62-7.39-18.19-12.51-9.66-52.87-9.66-52.87,0,0-36.7-19.73-39.41-54.79-1.69-21.95,16.25-40.7,38.2-39.1l1.21,.1" fill="#fff"></path>
    <path d="M380.46,583.81l-145-10.8c-39.03-3.21-46.19-6.05-46.98-7.46-.03-.05-.05-.09-.06-.14-17.32-12.19-10.62-48.6-9.76-52.9-3.67-2.09-36.78-21.85-39.34-55.01-.83-10.83,3.07-21.44,10.71-29.11,7.41-7.44,17.6-11.27,27.97-10.53l159.85-29.08v-128.14l.74,.41c2.48,1.36,39.82,1.5,102.45,.39,13.55-.23,25.05,9.26,27.4,22.59l21.36,121.39c1.88,10.71,4.41,21.92,7.96,35.29,2.07,7.79,3.14,18.83-3.47,27.15-.28,.29-24.64,26.08-23.52,47.77,.01,.2,1.32,21.44-15.26,40.02-15.37,17.22-40.62,26.69-75.04,28.15Zm-191.04-18.66c.63,.62,5.7,3.54,46.12,6.87l144.94,10.8c34.07-1.45,59.07-10.8,74.26-27.8,16.31-18.26,15.04-39.1,15.02-39.31-1.14-22.13,23.52-48.23,23.77-48.49,6.33-7.96,5.27-18.66,3.26-26.24-3.55-13.4-6.08-24.64-7.97-35.38l-21.36-121.39c-2.23-12.68-13.09-21.77-25.91-21.77-.16,0-.32,0-.48,0-43.1,.77-94.76,1.31-102.2-.28v127.46l-.41,.08-159.24,28.96-.03,.3-1.21-.1c-10.08-.72-20.03,3-27.24,10.24-7.44,7.46-11.23,17.79-10.42,28.33,2.66,34.38,38.78,54.19,39.15,54.39l.33,.18-.08,.37c-.08,.4-8.25,40.18,9.45,52.35l.36,.25-.1,.19Z" fill="#002346"></path>
  </g>
  <g>
    <path d="M358.28,413.92l-49.46,51.37s-15.63-20.4-60.82-37.87l57.13-25.79,7.87-2.48s23.39-.29,32.2,7.39l13.08,7.38Z" fill="#fbe493"></path>
    <path d="M308.77,466.06l-.35-.46c-.16-.2-16.1-20.5-60.6-37.71l-1.11-.43,1.09-.49,57.13-25.79,8.07-2.52c.95-.01,23.61-.2,32.5,7.48l13.6,7.67-50.31,52.25Zm-59.49-38.67c40.32,15.8,56.96,34.08,59.56,37.15l48.62-50.5-12.6-7.12c-8.32-7.25-30.33-7.27-31.79-7.27l-7.8,2.46-55.99,25.28Z" fill="#002346"></path>
  </g>
  <g>
    <path d="M338.33,264.87s0,6.32,8.93,7.09c3.34,.27,6.7-.37,9.71-1.84,4-1.92,9.35-5.64,10.4-11.95,3.01-7.18,5.03-14.74,6-22.47,0,0-9.69,27.87-35.04,29.17Z" fill="#f2b3c1"></path>
    <path d="M348.75,272.51c-.51,0-1.02-.02-1.53-.06-9.28-.8-9.38-7.51-9.38-7.58v-.47l.47-.02c24.72-1.27,34.5-28.56,34.6-28.84l1.53-4.4-.58,4.63c-.97,7.75-3,15.34-6.01,22.55-1.1,6.42-6.4,10.21-10.66,12.26-2.63,1.28-5.52,1.95-8.43,1.95Zm-9.89-7.18c.2,1.41,1.39,5.53,8.44,6.14,3.25,.26,6.52-.36,9.45-1.79,4.07-1.95,9.13-5.55,10.13-11.59l.03-.11c2.51-5.98,4.32-12.23,5.41-18.61-3.6,7.53-13.9,24.68-33.47,25.97Z" fill="#002346"></path>
  </g>
  <g>
    <path d="M337.16,264.75c-1.65,1.26-2.1,3.56-1.05,5.35,0,0-4.53,4.88-.56,7.84,0,0-5.13,1.83-4.56,5.81,0,0-31.26,6.82-40.93,28.42,0,0-9.09,15.34-13.64,46.61l-4,25,7.68,27.57,20.46,1.7s8.24-3.12,15.06-13.92c0,0,21,.56,29.56,7.39l13.08,7.39,32.4-29.56s1.29-16.78,3.13-26c.18-.87,.15-1.78-.09-2.64l-4.16-15.08,14.21,28.42,28.42,17.58s10.23,8,9.1,31.83c0,0,13.65-9.75,8-25.64-.65-1.74-1.54-3.39-2.63-4.89-1-1.44-2.36-4.61-.82-10.39,0,0,2.85-6.82-2.27-17.06,0,0-17.18-48.56-32.46-60.37l-11.31-9-23.31-16.48c.56-2.94-.82-5.91-3.42-7.39,0,0,2.85-7.39-5.68-9.09,0,0-.41,6.61-9.35,11.38-3.76,2.08-8.12,2.84-12.36,2.15-3.5-.61-7.07-2.35-7.33-6.83l-1.17-.1Z" fill="#e1cf56"></path>
    <path d="M440.72,419.47l.05-1.03c1.1-23.25-8.81-31.33-8.91-31.41l-28.5-17.62-11.98-23.96,2.8,10.14c.26,.93,.29,1.93,.1,2.88-1.81,9.08-3.11,25.77-3.12,25.94v.2s-.16,.13-.16,.13l-32.67,29.8-13.4-7.57c-7.86-6.27-26.53-7.22-29.04-7.32-6.8,10.62-14.81,13.75-15.15,13.88l-.11,.04h-.11s-20.81-1.74-20.81-1.74l-.09-.34-7.71-27.67,.02-.11,4-25c4.51-31,13.61-46.63,13.7-46.79,9.01-20.14,36.99-27.62,40.82-28.55-.16-3.1,2.74-4.88,4.17-5.57-.7-.71-1.1-1.55-1.18-2.5-.21-2.27,1.44-4.5,2.07-5.26-.95-1.96-.41-4.34,1.35-5.68l.15-.12,1.79,.15,.03,.43c.2,3.46,2.53,5.6,6.92,6.37,4.11,.66,8.38-.08,12.03-2.1,8.57-4.57,9.09-10.91,9.09-10.97l.04-.57,.56,.11c2.81,.56,4.74,1.78,5.76,3.62,1.25,2.26,.71,4.78,.42,5.74,2.47,1.59,3.79,4.47,3.37,7.38l23.05,16.3,11.33,9.02c15.22,11.76,31.92,58.61,32.62,60.59,5.14,10.27,2.38,17.13,2.26,17.42-1.47,5.53-.15,8.59,.77,9.91,1.11,1.53,2.02,3.21,2.69,5,5.71,16.07-8.04,26.12-8.18,26.22l-.84,.6Zm-36.59-50.77l28.3,17.51c.46,.36,10.16,8.21,9.38,31.17,2.83-2.44,11.62-11.36,6.99-24.39-.63-1.69-1.5-3.3-2.56-4.76-1.02-1.47-2.49-4.83-.9-10.81,.05-.13,2.71-6.82-2.23-16.71-.2-.54-17.33-48.61-32.32-60.2l-11.32-9-23.55-16.65,.06-.32c.52-2.73-.76-5.49-3.18-6.86l-.37-.21,.15-.4s1.08-2.91-.24-5.31c-.8-1.46-2.33-2.46-4.55-3-.31,1.76-1.88,7.13-9.54,11.22-3.84,2.12-8.33,2.9-12.67,2.2-4.66-.81-7.32-3.18-7.71-6.86l-.55-.05c-1.33,1.13-1.67,3.06-.78,4.58l.19,.32-.25,.27s-2.25,2.47-2.04,4.76c.09,.93,.55,1.69,1.42,2.34l.75,.56-.88,.31s-4.74,1.74-4.23,5.27l.07,.46-.45,.1c-.31,.07-31.13,7.02-40.58,28.14-.12,.2-9.12,15.69-13.6,46.48l-3.98,24.9,7.56,27.13,19.99,1.66c.95-.4,8.47-3.8,14.71-13.68l.15-.24h.28c.86,.03,21.27,.65,29.86,7.51l12.7,7.17,31.99-29.18c.15-1.92,1.41-17.26,3.12-25.86,.16-.8,.14-1.63-.08-2.41l-4.16-15.08,.93-.36,14.15,28.29Z" fill="#002346"></path>
  </g>
  <g>
    <path d="M322.46,328.63l-1.05,9.66s3.09,2.26,6.18,1.55c.72-.16,1.22-.82,1.18-1.56-.1-1.8-1.03-5.57-6.31-9.65Z" fill="#e1cf56"></path>
    <path d="M326.33,340.48c-2.74,0-5.1-1.7-5.22-1.79l-.23-.17,1.18-10.83,.71,.55c5.41,4.18,6.4,8.07,6.5,10.02,.06,.99-.6,1.86-1.57,2.08-.46,.11-.92,.15-1.37,.15Zm-4.39-2.44c.75,.48,3.18,1.85,5.54,1.31,.49-.11,.82-.55,.79-1.04-.09-1.69-.94-5.01-5.41-8.72l-.92,8.45Z" fill="#002346"></path>
  </g>
  <g>
    <path d="M300.79,323.25l6.13-20.91c.86-3.69,1.49-7.43,1.9-11.2,.6-7.01,2.13-13.9,4.55-20.51l8.78-16.59c.29-.56,.97-.77,1.52-.49,.28,.14,.48,.39,.57,.69,.83,3,1.35,8.62-2.83,16,0,0-2.36,5.51-1.22,7.21,0,0,5.12-4,8,0,1.32,2.46,3.76,4.11,6.53,4.44,.93,.13,1.73,.71,2.14,1.55,.42,.95,.42,2.34-1.28,4.11,0,0,4.72,1.06,2.79,4.54,0,0-.07,.52-5.63,1.85,0,0-2.28,1.13-.57,2.27,1.37,1.13,1.62,3.12,.57,4.55-1.14,.89-2.72,.96-3.93,.16-1.11,2.06-2.39,4.01-3.85,5.84-.49,.56-.79,1.26-.86,2l-2.65,29.51c-7.76-3.68-14.77-8.77-20.66-15.02Z" fill="#f2b3c1"></path>
    <path d="M321.87,339.02l-.64-.3c-7.85-3.72-14.85-8.81-20.81-15.13l-.19-.21,6.21-21.18c.84-3.63,1.48-7.38,1.88-11.11,.61-7.04,2.15-13.98,4.58-20.63l8.81-16.65c.41-.79,1.39-1.1,2.18-.7,.39,.2,.69,.56,.82,.99,.96,3.47,1.24,9.12-2.87,16.38-.75,1.75-1.7,4.78-1.42,6.21,.95-.62,3.03-1.76,5.11-1.46,1.23,.18,2.26,.83,3.06,1.93,1.28,2.37,3.58,3.93,6.19,4.24,1.1,.15,2.04,.83,2.52,1.82,.41,.92,.55,2.33-.85,4.08,.83,.31,2.12,.96,2.64,2.12,.38,.85,.3,1.81-.26,2.83-.1,.32-.73,.89-5.92,2.14-.38,.2-.87,.6-.89,.88-.01,.2,.26,.41,.42,.51,1.61,1.32,1.89,3.61,.69,5.25l-.09,.1c-1.17,.91-2.73,1.07-4.04,.45-1.06,1.92-2.29,3.76-3.66,5.47-.43,.5-.69,1.1-.76,1.74l-2.71,30.21Zm-20.54-15.9c5.67,5.97,12.29,10.81,19.68,14.4l2.59-28.8c.09-.85,.42-1.63,.98-2.28,1.42-1.78,2.7-3.72,3.79-5.75l.25-.47,.45,.29c1.01,.67,2.33,.63,3.3-.09,.84-1.21,.62-2.88-.53-3.83-.71-.47-.84-1-.81-1.36,.06-1,1.33-1.65,1.48-1.72l.1-.04c4.27-1.02,5.17-1.54,5.34-1.65,.41-.76,.49-1.41,.23-1.97-.58-1.3-2.7-1.8-2.72-1.81l-.85-.19,.6-.63c1.26-1.31,1.65-2.51,1.18-3.57-.33-.68-.99-1.15-1.76-1.26-2.92-.35-5.5-2.1-6.89-4.69-.6-.83-1.41-1.34-2.37-1.48-2.32-.33-4.87,1.61-4.9,1.63l-.42,.32-.29-.44c-1.25-1.87,.92-7.09,1.18-7.68,3.97-7.02,3.72-12.39,2.81-15.68-.05-.16-.16-.3-.32-.38-.31-.16-.7-.04-.86,.28l-8.78,16.6c-2.37,6.5-3.89,13.36-4.49,20.32-.41,3.78-1.05,7.57-1.91,11.27l-6.06,20.67Z" fill="#002346"></path>
  </g>
  <g>
    <polygon points="353.9 418.46 282.67 411.07 286.94 427.84 351.58 420.87 353.9 418.46" fill="#e6e7e8"></polygon>
    <path d="M286.56,428.39l-4.55-17.88,72.96,7.57-3.16,3.28-65.25,7.04Zm-3.23-16.74l3.99,15.65,64.03-6.9,1.48-1.54-69.5-7.21Z" fill="#002346"></path>
  </g>
  <g>
    <polygon points="186.61 419.6 188.65 424.92 289.86 432.21 347.69 424.92 351.58 420.87 288.08 427.27 186.61 419.6" fill="#fff"></polygon>
    <path d="M289.92,432.71l-101.62-7.31-2.44-6.35,.79,.06,101.47,7.67,64.76-6.54-4.95,5.16-.18,.02-57.83,7.29Zm-100.92-8.26l100.89,7.27,57.56-7.26,2.83-2.94-62.15,6.26-100.77-7.61,1.64,4.29Z" fill="#002346"></path>
  </g>
  <path d="M351.58,515.03H217.23c-.28,0-.5-.22-.5-.5s.22-.5,.5-.5h134.34c.28,0,.5,.22,.5,.5s-.22,.5-.5,.5Z" fill="#002346"></path>
  <g>
    <rect x="540.17" y="478.78" width="4.55" height="173.17" transform="translate(-238.24 498.91) rotate(-41.32)" fill="#e6e7e8"></rect>
    <path d="M597.86,632.6l-.33-.38-114.67-130.43,4.17-3.67,.33,.38,114.67,130.43-4.17,3.67Zm-113.59-130.72l113.68,129.3,2.67-2.34-113.68-129.31-2.67,2.34Z" fill="#002346"></path>
  </g>
  <g>
    <polygon points="493.78 629.64 607.81 499.75 612.84 502.59 498.84 629.64 493.78 629.64" fill="#e6e7e8"></polygon>
    <path d="M499.06,630.14h-6.39l115.03-131.03,5.93,3.35-.42,.46-114.15,127.22Zm-4.18-1h3.73l113.43-126.42-4.13-2.33-113.03,128.76Z" fill="#002346"></path>
  </g>
  <g>
    <polygon points="531.96 629.64 561.45 499.75 566.93 499.75 536.6 629.64 531.96 629.64" fill="#e6e7e8"></polygon>
    <path d="M536.99,630.14h-5.66l29.72-130.89h6.51l-.14,.61-30.42,130.28Zm-4.41-1h3.62l30.1-128.89h-4.45l-29.26,128.89Z" fill="#002346"></path>
  </g>
  <g>
    <path d="M506.26,428.13h40.9c.37,0,.67,.3,.67,.67,0,5.45-.38,42.38-9.07,47.64h-23.47s-4.11-1.7-5.24-10.23c0,0-10.61-2.87-10.14-25.88,0,0,.47-8.22,6.16-7.66l-.48-3.79c-.04-.37,.22-.7,.59-.75,.03,0,.06,0,.08,0Z" fill="#e1cf56"></path>
    <path d="M538.9,476.94l-23.8-.04c-.18-.07-4.29-1.87-5.5-10.32-1.84-.69-10.62-5.11-10.19-26.26,.01-.21,.3-4.79,2.89-7,.91-.78,1.98-1.17,3.19-1.17l-.41-3.2c-.04-.31,.05-.62,.24-.87s.47-.4,.78-.44h.14s40.9,0,40.9,0c.65,0,1.17,.52,1.17,1.17,0,7.09-.45,42.7-9.31,48.07l-.12,.07Zm-23.49-1h23.21c8.47-5.46,8.71-42.87,8.71-47.14,0-.09-.08-.17-.17-.17h-40.9v-.5l-.03,.5c-.07,0-.15,.11-.14,.19l.56,4.41-.62-.06c-1.2-.12-2.22,.19-3.07,.91-2.27,1.94-2.54,6.24-2.55,6.29-.45,22.25,9.67,25.34,9.77,25.37l.32,.09,.05,.33c.99,7.44,4.3,9.5,4.86,9.8Z" fill="#002346"></path>
  </g>
  <g>
    <path d="M529.37,362.76s-1.66,9,5.65,13.51c.58,.34,1.1,.76,1.56,1.25,2.17,2.41,5.93,9.56-11,20.48,0,0-18,8.12,0,25.95,0,0-1.14-4.92,2.48-5.49,0,0,4.18-1.13,1.34-5.11,0,0-5.68-8,4.55-9.67l13.7-1.8c2.47-.3,4.85-1.09,7-2.34,3.41-2,7.08-5.74,5.61-12.08-.58-2.41-1.76-4.63-3.43-6.46-4.73-5.18-10.95-8.77-17.8-10.28,0,0-7.38-2.28-9.66-7.96Z" fill="#e6e7e8"></path>
    <path d="M526.45,425.53l-1.23-1.22c-6.21-6.16-8.9-11.87-7.97-16.99,1.19-6.57,7.84-9.64,8.12-9.77,7.75-5,12-9.76,12.58-14.1,.35-2.62-.76-4.49-1.75-5.58-.42-.45-.9-.84-1.44-1.15-7.53-4.64-5.91-13.94-5.89-14.03l.31-1.7,.64,1.6c2.16,5.39,9.27,7.65,9.34,7.67,6.95,1.53,13.19,5.14,18.02,10.42,1.72,1.88,2.95,4.2,3.55,6.68,1.55,6.69-2.32,10.56-5.84,12.63-2.22,1.29-4.64,2.1-7.19,2.4l-13.69,1.8c-2.92,.48-4.74,1.52-5.4,3.1-1.06,2.54,1.17,5.75,1.19,5.78,1,1.4,1.31,2.65,.92,3.73-.57,1.6-2.46,2.13-2.54,2.15-.79,.13-1.33,.45-1.71,1-.97,1.44-.42,3.87-.42,3.89l.39,1.69Zm3.26-60.97c-.06,2.75,.52,8.18,5.56,11.29,.61,.36,1.17,.81,1.66,1.34,.93,1.03,2.42,3.23,2,6.39-.62,4.65-5.03,9.64-13.1,14.85-.13,.06-6.53,3.03-7.61,9.08-.81,4.5,1.44,9.56,6.67,15.06-.03-.96,.09-2.21,.74-3.17,.53-.78,1.31-1.26,2.33-1.42h0s1.42-.42,1.81-1.51c.27-.75,0-1.7-.8-2.81-.11-.15-2.58-3.69-1.3-6.74,.8-1.92,2.88-3.17,6.18-3.71l13.71-1.8c2.42-.29,4.71-1.06,6.81-2.28,3.23-1.9,6.79-5.44,5.37-11.53-.56-2.32-1.7-4.48-3.31-6.24-4.69-5.13-10.75-8.63-17.54-10.13-.32-.1-6.31-2-9.2-6.66Z" fill="#002346"></path>
  </g>
  <g>
    <path d="M610.66,463.37v6.79c0,3.47-2.82,6.28-6.29,6.28h-44.84c-3.47,0-6.28-2.81-6.28-6.28h0v-6.79h57.41Z" fill="#e1cf56"></path>
    <path d="M604.37,476.94h-44.84c-3.74,0-6.78-3.04-6.78-6.78v-7.29h58.41v7.29c0,3.74-3.05,6.78-6.79,6.78Zm-50.62-13.07v6.29c0,3.19,2.59,5.78,5.78,5.78h44.84c3.19,0,5.78-2.59,5.79-5.78v-6.29h-56.41Z" fill="#002346"></path>
  </g>
  <g>
    <path d="M594.19,463.37h-36c.11-5.67,3-11.92,8.31-16.75,8.76-8,20.78-9,26.84-2.33,4.33,4.79,4.41,12.34,.85,19.08Z" fill="#fff"></path>
    <path d="M594.49,463.87h-36.81v-.51c.12-5.99,3.29-12.39,8.48-17.11,5.07-4.63,11.37-7.12,17.27-6.85,4.2,.2,7.75,1.77,10.27,4.55,4.33,4.79,4.7,12.51,.92,19.65l-.14,.27Zm-35.78-1h35.18c3.43-6.69,3.08-13.83-.92-18.25-2.34-2.58-5.66-4.04-9.58-4.22-5.66-.27-11.68,2.14-16.55,6.59-4.84,4.41-7.85,10.31-8.13,15.88Z" fill="#002346"></path>
  </g>
  <g>
    <path d="M610.03,453.02h0c-.01,3.61-.91,7.16-2.6,10.34h-13.24s7.78-13.91-3.79-21.45c0,0,13.58-4.22,18.4,5,.28,.54,.52,1.1,.72,1.67,.37,1.45,.54,2.94,.51,4.44Z" fill="#fff"></path>
    <path d="M607.73,463.86h-14.39l.42-.74c.31-.55,7.41-13.59-3.63-20.79l-.89-.58,1.02-.32c.14-.04,14.04-4.24,18.99,5.25,.29,.56,.54,1.15,.75,1.74,.39,1.53,.57,3.07,.54,4.61-.02,3.67-.94,7.33-2.66,10.57l-.14,.27Zm-12.73-1h12.13c1.56-3.03,2.39-6.43,2.4-9.84h0c.03-1.46-.14-2.91-.5-4.31-.18-.51-.41-1.04-.68-1.56-3.81-7.29-13.58-5.75-16.78-5.02,9.08,6.77,4.8,17.79,3.42,20.74Z" fill="#002346"></path>
  </g>
  <g>
    <circle cx="581.95" cy="446.03" r="2.56" fill="#fff"></circle>
    <path d="M581.95,449.09c-1.69,0-3.06-1.37-3.06-3.06s1.37-3.06,3.06-3.06,3.06,1.37,3.06,3.06-1.37,3.06-3.06,3.06Zm0-5.12c-1.14,0-2.06,.92-2.06,2.06s.92,2.06,2.06,2.06,2.06-.92,2.06-2.06-.92-2.06-2.06-2.06Z" fill="#002346"></path>
  </g>
  <g>
    <circle cx="590.48" cy="456.83" r="2.56" fill="#fff"></circle>
    <path d="M590.48,459.89c-1.69,0-3.06-1.37-3.06-3.06s1.37-3.06,3.06-3.06,3.06,1.37,3.06,3.06-1.37,3.06-3.06,3.06Zm0-5.12c-1.14,0-2.06,.92-2.06,2.06s.92,2.06,2.06,2.06,2.06-.92,2.06-2.06-.92-2.06-2.06-2.06Z" fill="#002346"></path>
  </g>
  <g>
    <path d="M569.16,461.95c0,.51-.15,1-.43,1.42h-4.25c-.28-.42-.43-.91-.43-1.42-.09-1.41,.98-2.63,2.39-2.72s2.63,.98,2.72,2.39c0,.11,0,.21,0,.32Z" fill="#fff"></path>
    <path d="M569,463.87h-4.79l-.15-.22c-.33-.5-.51-1.09-.51-1.7-.05-.79,.22-1.57,.76-2.19s1.29-.98,2.1-1.03c1.7-.1,3.14,1.18,3.25,2.86,0,.12,0,.25,0,.37,0,.6-.18,1.18-.51,1.68l-.15,.22Zm-4.23-1h3.68c.14-.29,.22-.6,.22-.92v-.03c0-.08,0-.17,0-.26-.07-1.13-1.05-2.01-2.18-1.93-1.13,.07-2,1.05-1.93,2.18,0,.35,.08,.66,.22,.95Z" fill="#002346"></path>
  </g>
  <g>
    <path d="M610.03,453.02h0c-.26,.07-.54,.11-.81,.11-1.73-.03-3.1-1.46-3.07-3.19,.03-1.52,1.14-2.79,2.63-3.03,.28,.54,.52,1.1,.72,1.67,.38,1.45,.56,2.94,.53,4.44Z" fill="#fff"></path>
    <path d="M609.22,453.63c-.98-.02-1.88-.41-2.56-1.11-.67-.7-1.03-1.62-1.02-2.58,.03-1.76,1.32-3.24,3.05-3.52l.36-.06,.17,.32c.29,.56,.54,1.14,.75,1.74,.4,1.53,.58,3.07,.56,4.61v.38s-.37,.1-.37,.1c-.31,.08-.62,.13-.94,.13Zm-.71-6.15c-1.08,.33-1.84,1.32-1.86,2.47-.01,.7,.25,1.37,.74,1.87,.49,.51,1.14,.79,1.85,.8,.1,0,.2,0,.3-.02-.01-1.32-.18-2.63-.52-3.9-.14-.4-.31-.82-.51-1.22Z" fill="#002346"></path>
  </g>
  <g>
    <path d="M305.41,528.74s10.23-2.1,16.2-24.64l-12.5,1c-1.85,7.77-3.09,15.67-3.7,23.64Z" fill="#fbe493"></path>
    <path d="M304.86,529.37l.05-.66c.61-7.97,1.86-15.95,3.71-23.72l.08-.35,13.57-1.08-.18,.68c-5.98,22.58-16.15,24.91-16.58,25l-.65,.13Zm4.65-23.79c-1.74,7.36-2.93,14.91-3.54,22.46,2.29-.93,10.03-5.33,14.98-23.37l-11.43,.92Z" fill="#002346"></path>
  </g>
  <path d="M385.84,474.69l-.6-.8c.31-.23,30.8-22.99,42.56-36.99l.77,.64c-11.83,14.09-42.42,36.92-42.72,37.15Z" fill="red"></path>
  <g>
    <path d="M722.69,141.42c-3.4,9.09-9.92,19.45-21.79,30.12-7.83,7.05-18,14.23-31.14,21.26,0,0-14.52,9-38.6,12.49-7.28,1.06-14.64,1.5-22,1.32-8.87-.21-17.7-1.27-26.37-3.16,0,0-25.51-4.85-48.33-2.52-5.98,.52-11.88,1.78-17.55,3.77,0,0-1.27,.38-3.53,1-1.84,.49-4.34,1.13-7.35,1.83l-1.11,.25c-2.54,.58-5.4,1.2-8.5,1.81l-3.49,.66c-8.64,1.61-17.38,2.69-26.16,3.22-5.44,.32-10.9,.27-16.34-.14h-.57l-.66-.07c-8.1-.77-15.53-2.63-21.27-6.1-5.73-3.26-9.78-8.82-11.11-15.28,0,0-14.79-28.56,5.11-67.78,0,0,38.12-76,156.05-79.22,0,0,58.81-6.61,57.11,20.1,0,0-8.43,22.12,19.95,18.74,0,0,58.49-10.21,68.72,26.17,.01-.08,5.84,13.12-1.07,31.53Z" fill="#fff"></path>
    <path d="M459.65,214.18c-3.09,0-6.19-.12-9.26-.35h-.53s-.71-.07-.71-.07c-8.87-.84-16.1-2.92-21.48-6.17-5.83-3.31-9.95-8.97-11.33-15.54-.77-1.56-14.19-30.07,5.14-68.17,.09-.19,9.86-19.32,33.94-38.57,22.21-17.75,61.49-39.26,122.55-40.93,1.57-.18,39.46-4.27,52.98,8.61,3.38,3.22,4.94,7.27,4.64,12.02l-.03,.15c-.03,.08-3.12,8.41,1.06,13.78,3.07,3.93,9.25,5.38,18.36,4.29,.56-.1,59.03-9.86,69.26,26.53h-.02c.76,1.8,5.43,14.53-1.06,31.84h0c-3.97,10.6-11.34,20.8-21.92,30.32-8.39,7.55-18.9,14.73-31.24,21.33-.12,.08-14.86,9.08-38.76,12.54-7.29,1.06-14.71,1.51-22.08,1.33-8.88-.21-17.79-1.28-26.46-3.17-.24-.04-25.68-4.8-48.17-2.51-5.95,.51-11.81,1.77-17.44,3.74-.02,0-1.3,.39-3.56,1.01-2.37,.63-4.85,1.25-7.37,1.83l-1.11,.25c-2.94,.67-5.73,1.27-8.51,1.81l-3.49,.66c-8.63,1.61-17.45,2.7-26.22,3.23-2.37,.14-4.76,.21-7.15,.21Zm-9.22-1.35c5.43,.41,10.91,.46,16.31,.14,8.73-.53,17.51-1.61,26.1-3.21l3.49-.66c2.77-.54,5.55-1.14,8.48-1.81l1.11-.25c2.51-.58,4.98-1.2,7.33-1.83,2.25-.62,3.51-1,3.52-1,5.68-1.99,11.63-3.27,17.65-3.79,22.62-2.31,48.21,2.48,48.47,2.53,8.63,1.88,17.47,2.94,26.29,3.15,7.31,.18,14.68-.26,21.92-1.32,23.69-3.43,38.26-12.33,38.41-12.42,12.3-6.58,22.74-13.71,31.07-21.21,10.46-9.4,17.75-19.47,21.66-29.92h0c6.16-16.42,2.04-28.69,1.23-30.79h-.05s-.12-.42-.12-.42c-9.99-35.53-67.57-25.91-68.15-25.81-9.5,1.14-15.99-.44-19.29-4.67-4.37-5.6-1.57-13.75-1.24-14.67,.26-4.42-1.2-8.17-4.33-11.16-13.18-12.56-51.84-8.38-52.22-8.34-60.79,1.66-99.87,23.04-121.95,40.68-23.93,19.11-33.62,38.08-33.71,38.27-19.54,38.52-5.26,67.04-5.11,67.33l.04,.13c1.3,6.31,5.26,11.76,10.87,14.95,5.26,3.18,12.34,5.21,21.07,6.04l.67,.07h.52Z" fill="#002346"></path>
  </g>
  <g>
    <rect x="326.44" y="199.02" width="46.08" height="68.33" rx="23.04" ry="23.04" transform="translate(138.3 -130.01) rotate(26.11)" fill="#f2b3c1"></rect>
    <path d="M344.56,266.72c-3.54,0-7.06-.81-10.34-2.41h0c-11.65-5.71-16.48-19.83-10.77-31.48l9.8-19.99c2.77-5.64,7.56-9.87,13.51-11.91,5.95-2.03,12.33-1.63,17.97,1.13,5.64,2.77,9.87,7.56,11.91,13.51,2.03,5.95,1.63,12.33-1.13,17.97l-9.8,19.98c-2.77,5.64-7.56,9.87-13.51,11.91-2.5,.85-5.07,1.28-7.64,1.28Zm-9.9-3.3c5.41,2.65,11.52,3.04,17.22,1.09,5.7-1.95,10.3-6,12.95-11.41l9.8-19.98c2.65-5.41,3.04-11.52,1.09-17.22s-6-10.3-11.41-12.95-11.52-3.04-17.22-1.09c-5.7,1.95-10.3,6-12.95,11.41l-9.8,19.99c-5.47,11.16-.84,24.7,10.32,30.17l-.22,.44,.22-.44Z" fill="#002346"></path>
  </g>
  <g>
    <path d="M404.22,251.17s5.2,25.16-4.46,39.94c0,0-17.62-11.94-23.3-16.49,0,0,1.13-4-3.42-7.39,0,0,2.85-7.39-5.68-9.09,2.91-7.22,4.93-14.76,6-22.47,0,0-3.71,4.28-3.14-11.07,0,0,0-8.53-6.82-8.53,0,0-6.82-1.13-8.52-6.25-.02,.03-8.38-13.19-25.24,11.33,0,0-9.46-15.28,4.75-24.94,0,0,9.67-9.67,23.88-2.28,0,0,6.25-18.19,18.75-4,0,0,3.41,4,5.69,21.6,0,0,2.05,9.76,12.52,22.45,1.51,1.81,2.87,3.74,4.07,5.77,0,0,3.92,5.42,4.92,11.42Z" fill="#002346"></path>
    <path d="M399.91,291.81l-.42-.29c-.18-.12-17.7-12-23.33-16.51l-.26-.21,.09-.32c.04-.15,.96-3.73-3.24-6.85l-.3-.23,.14-.35s1.08-2.91-.24-5.31c-.87-1.57-2.57-2.62-5.07-3.11l-.59-.12,.23-.56c2.76-6.84,4.72-14,5.82-21.29-.29,.08-.6,.09-.93-.04-1.66-.66-2.34-4.59-2.06-12.04,0-.31-.08-8.01-6.32-8.01-.37-.05-7.15-1.24-8.97-6.51-.58-.79-2.68-3.27-6.33-3.27-.03,0-.06,0-.1,0-3.62,.04-9.68,2.62-17.95,14.64l-.43,.63-.4-.65c-.1-.16-9.55-15.8,4.89-25.62,.03-.04,9.79-9.55,23.89-2.57,.75-1.89,3.56-8.08,8.6-9.08,3.39-.68,7.02,1.16,10.79,5.45,.15,.17,3.54,4.32,5.81,21.87,.01,.06,2.15,9.76,12.41,22.2,1.52,1.83,2.9,3.79,4.11,5.83,.14,.19,3.97,5.54,4.98,11.58,.13,.63,5.06,25.64-4.53,40.31l-.28,.43Zm-22.89-17.39c5.32,4.21,19.92,14.16,22.6,15.99,9.06-14.49,4.16-38.89,4.11-39.14v-.02c-.97-5.81-4.8-11.15-4.83-11.21-1.21-2.04-2.56-3.96-4.05-5.74-10.43-12.64-12.54-22.26-12.62-22.67-2.22-17.17-5.55-21.34-5.58-21.38-3.52-3.99-6.83-5.72-9.84-5.12-5.27,1.04-8.03,8.88-8.05,8.96l-.19,.55-.51-.27c-13.71-7.13-22.91,1.81-23.3,2.19-12.21,8.31-6.69,20.62-5.06,23.65,6.66-9.51,12.82-14.36,18.31-14.42,4.01-.05,6.34,2.49,7.13,3.52h.11s.12,.35,.12,.35c1.59,4.78,8.06,5.9,8.13,5.91h0c7.15,0,7.23,8.93,7.23,9.02-.36,9.62,1,10.92,1.43,11.09,.37,.15,.83-.34,.84-.35l1.1-1.23-.23,1.63c-1.05,7.54-3,14.96-5.81,22.04,2.49,.61,4.23,1.78,5.17,3.49,1.26,2.3,.69,4.85,.41,5.78,3.76,2.97,3.56,6.31,3.39,7.37Z" fill="#002346"></path>
  </g>
  <g>
    <ellipse cx="372.94" cy="240.37" rx="8.82" ry="6.11" transform="translate(-18.84 448.63) rotate(-60.8)" fill="#f2b3c1"></ellipse>
    <path d="M370.84,249.12c-1.19,0-2.27-.38-3.15-1.11-2.81-2.32-2.76-7.64,.1-11.84h0c1.69-2.48,4.08-4.15,6.41-4.48,1.52-.21,2.91,.15,4,1.05,2.81,2.32,2.76,7.63-.1,11.84-1.69,2.48-4.08,4.15-6.41,4.48-.29,.04-.57,.06-.84,.06Zm4.2-16.51c-.23,0-.46,.02-.7,.05-2.06,.29-4.2,1.81-5.73,4.06h0c-2.59,3.8-2.72,8.52-.29,10.53,.87,.72,1.99,1.01,3.23,.83,2.06-.29,4.2-1.81,5.73-4.06,2.59-3.8,2.72-8.52,.29-10.53-.7-.58-1.57-.88-2.53-.88Z" fill="#002346"></path>
  </g>
  <g>
    <polygon points="157.05 332.63 185.47 419.6 286.94 427.27 265.62 341.73 157.05 332.63" fill="#fff"></polygon>
    <path d="M287.59,427.82l-.69-.05-101.8-7.7-.1-.32-28.65-87.69,.75,.06,108.93,9.13,.09,.35,21.49,86.21Zm-101.75-8.69l100.45,7.59-21.07-84.52-107.46-9.01,28.08,85.94Z" fill="#002346"></path>
  </g>
  <g>
    <path d="M308.82,465.29l49.46-51.37,32.4-29.56s24.39-20.47,44,5.11c0,0,17.92,25-4.81,56.28,0,0-21.6,12.5-36.95,31.26l-35.24,10.8-32.62-17.29s-16.84,22.41-19.68,58.22c0,0-62.52-18.19-88.67-31.83l-33.54-16.49s-31.26-8.52-19.33-47.18c0,0,2.85-26.15,44.91-16.48,0,0,33.54,4.55,72.19,25.58,.03,0,21.09,12.37,27.88,22.95Z" fill="#fbe493"></path>
    <path d="M305.83,529.39l-.59-.17c-.63-.18-62.87-18.36-88.76-31.87l-33.53-16.49h0s-12.04-3.39-18.39-14.94c-4.82-8.76-5.22-19.81-1.2-32.84,.02-.24,.96-8.09,8.8-13.66,8.18-5.82,20.53-6.88,36.7-3.16,.29,.04,34.03,4.8,72.32,25.63v.02c2.34,1.1,21.05,12.8,27.71,22.57l49.03-50.92,32.42-29.58c.12-.11,11.07-9.16,24.11-7.73,7.77,.85,14.71,5.2,20.62,12.91,.19,.27,17.88,25.67-4.8,56.88l-.15,.14c-.21,.12-21.7,12.67-36.81,31.14l-.1,.12-.14,.04-35.44,10.86-.18-.1-32.23-17.09c-2.1,2.97-16.73,24.75-19.33,57.61l-.05,.61Zm-114.11-114.29c-7.81,0-14.16,1.72-18.98,5.15-7.48,5.32-8.39,12.97-8.4,13.05-3.96,12.85-3.58,23.63,1.09,32.14,6.14,11.18,17.75,14.47,17.87,14.5l33.63,16.52c24.47,12.76,81.57,29.73,88,31.63,2.96-35.19,19.56-57.64,19.73-57.87l.26-.34,32.82,17.39,34.9-10.7c14.71-17.93,35.33-30.28,36.9-31.2,22.17-30.59,4.92-55.36,4.75-55.61-5.73-7.47-12.44-11.68-19.93-12.51-12.61-1.38-23.24,7.4-23.34,7.49l-32.38,29.55-49.88,51.8-.34-.53c-6.63-10.34-27.14-22.46-27.68-22.77h-.01c-38.12-20.75-71.68-25.49-72.02-25.53-6.25-1.44-11.91-2.15-16.96-2.15Z" fill="#002346"></path>
  </g>
  <g>
    <path d="M398.4,382.41c-1.61,1.61-5.36,4.63-8.94,1.92-.71-.57-.82-1.6-.25-2.31,.12-.15,.27-.28,.44-.38,2.22-1.31,4.28-2.88,6.14-4.67l4.84-6.25s9.37-9.67,15.63-1.71c0,0,7.17-1.71,8.41,4.26,0,0,6.93,1.42,5.8,6.54,0,0,4.23,3.56,.12,10.59,0,0-7.51,9.87-12.63,7.6,0,0-5.43,5.68-9.82,1.14,0,0-3.09,4.09-6,1.76,0,0-2-.61-.74-6.3,0,0-7.29-2.28-3.31-6.83l2.72-3.15c.59-.69,.51-1.72-.18-2.31-.09-.08-.19-.14-.29-.2h0c-.64-.35-1.44-.23-1.94,.3Z" fill="#f2b3c1"></path>
    <path d="M404.06,402.11c-.77,0-1.5-.26-2.17-.78-.48-.21-2.09-1.33-1.06-6.41-1.05-.4-3.71-1.6-4.3-3.69-.34-1.21,.06-2.48,1.19-3.78l2.72-3.15c.41-.48,.35-1.21-.13-1.62-.06-.05-.13-.1-.2-.14-.45-.24-1-.16-1.35,.21h0c-1.58,1.58-5.67,4.94-9.58,1.97-.93-.74-1.07-2.09-.34-3,.16-.2,.35-.37,.58-.5,2.19-1.29,4.22-2.84,6.05-4.6l4.79-6.2c.24-.26,5.22-5.3,10.47-5.03,2.21,.11,4.14,1.15,5.74,3.08,.96-.18,3.93-.56,6.2,.88,1.23,.78,2.04,1.96,2.43,3.51,.96,.25,3.85,1.15,5.25,3.29,.67,1.04,.9,2.21,.68,3.49,.85,.9,3.72,4.66,.01,11-.34,.46-7.55,9.83-12.94,7.93-.76,.72-3.22,2.81-6.06,2.82h-.02c-1.41,0-2.69-.51-3.83-1.53-.63,.69-2.02,2.02-3.67,2.22-.15,.02-.3,.03-.44,.03Zm-4.5-20.69c.34,0,.69,.08,1.01,.26,.13,.07,.25,.15,.37,.25,.9,.77,1,2.11,.24,3.01l-2.72,3.15c-.9,1.03-1.23,2-.99,2.87,.48,1.71,3.1,2.87,4.07,3.17l.43,.13-.1,.44c-1.12,5.03,.41,5.72,.42,5.73l.14,.08c.6,.48,1.23,.68,1.93,.59,1.8-.22,3.35-2.24,3.37-2.26l.35-.46,.4,.41c1.03,1.07,2.21,1.61,3.51,1.61h0c2.93,0,5.56-2.72,5.59-2.75l.24-.25,.32,.14c4.71,2.08,11.97-7.35,12.04-7.45,3.8-6.51,.11-9.78-.05-9.92l-.22-.19,.06-.29c.25-1.12,.08-2.13-.49-3.01-1.42-2.19-4.9-2.93-4.93-2.94l-.32-.07-.07-.32c-.3-1.43-.99-2.5-2.06-3.19-2.33-1.48-5.72-.7-5.75-.7l-.31,.07-.19-.25c-1.46-1.85-3.21-2.84-5.21-2.95-4.84-.27-9.63,4.64-9.68,4.7l-4.8,6.21c-1.93,1.87-4.03,3.46-6.28,4.79-.12,.07-.22,.16-.31,.27-.4,.49-.32,1.22,.18,1.61,3.17,2.39,6.55-.15,8.28-1.88,.41-.42,.96-.65,1.52-.65Z" fill="#002346"></path>
  </g>
  <g>
    <path d="M377.7,503.73s7.86-22.17,15.25-26.72c0,0-17.35-9.72-31.41,2.81l-36.45-9.3s-9.95,12.29-15.66,35c0-.03,52.45-6.89,68.27-1.79Z" fill="#f2b3c1"></path>
    <path d="M309.52,506.01l-.09-.48-.48-.12c5.67-22.55,15.65-35.07,15.75-35.19l.2-.25,36.5,9.31c14.12-12.35,31.61-2.8,31.78-2.7l.73,.41-.71,.44c-7.16,4.41-14.97,26.25-15.04,26.47l-.16,.45-.46-.15c-15.67-5.05-67.54,1.72-68.03,1.81Zm15.76-34.93c-1.39,1.83-10,13.7-15.21,33.9,7.08-.97,52.35-6.27,67.32-1.86,1.14-3.14,7.86-20.98,14.59-26.05-3.4-1.62-18.09-7.61-30.12,3.11l-.2,.17-36.39-9.28Z" fill="#002346"></path>
  </g>
  <g>
    <path d="M414.03,638.73h9.14c-3.89-19.38-10.56-38.09-19.81-55.56-3.11,.28-8.61,.42-8.61,.42,6.81,6.82,19.28,55.14,19.28,55.14Z" fill="#e6e7e8"></path>
    <path d="M423.78,639.23h-10.14l-.1-.38c-.12-.48-12.51-48.27-19.15-54.91l-.82-.82,1.16-.03c.05,0,5.52-.14,8.58-.42l.33-.03,.16,.29c9.28,17.52,15.96,36.26,19.86,55.7l.12,.6Zm-9.36-1h8.14c-3.87-19.02-10.43-37.37-19.49-54.53-2.27,.19-5.59,.31-7.26,.36,6.67,8.77,17.39,49.49,18.61,54.17Z" fill="#002346"></path>
  </g>
  <path d="M496.97,210.99l-38.65,8-9.2-4.35s.26-.51,.75-1.35c5.63,.46,11.28,.52,16.91,.19,8.78-.53,17.52-1.61,26.16-3.22l3.49-.66c.17,.4,.35,.87,.54,1.39Z" fill="none"></path>
  <g>
    <path d="M722.69,141.42c-3.4,9.09-9.92,19.45-21.79,30.12l-21.59-35.12,22.86-26.61,20.52,31.61Z" fill="#e1cf56"></path>
    <path d="M700.79,172.31l-22.1-35.94,23.53-27.39,21.02,32.38-.09,.24c-3.97,10.61-11.34,20.81-21.92,30.32l-.45,.4Zm-20.86-35.84l21.08,34.3c10.14-9.22,17.25-19.07,21.12-29.29l-20.02-30.84-22.19,25.83Z" fill="#002346"></path>
  </g>
  <g>
    <path d="M700.9,171.54c-7.83,7.05-18,14.23-31.14,21.26,0,0-14.52,9-38.6,12.49-7.28,1.06-14.64,1.5-22,1.32l2-46.81,47.22-57.38,42.52,69.12Z" fill="#e1cf56"></path>
    <path d="M612.34,207.15c-1.07,0-2.13-.01-3.2-.04h-.51s2.03-47.5,2.03-47.5l.11-.13,47.66-57.92,43.11,70.07-.31,.28c-8.39,7.55-18.9,14.73-31.24,21.33-.12,.08-14.86,9.08-38.76,12.54-6.23,.91-12.57,1.36-18.89,1.36Zm-2.66-1.03c7.14,.15,14.34-.3,21.41-1.33,23.69-3.43,38.26-12.33,38.41-12.42,12.15-6.5,22.49-13.53,30.76-20.93l-41.93-68.17-46.67,56.71-1.97,46.13Z" fill="#002346"></path>
  </g>
  <g>
    <path d="M600.79,76.6l4.48-9.87c.19-.43,.83-.29,.83,.18v10.76c0,.27-.25,.48-.52,.43l-4.48-.89c-.28-.05-.43-.35-.31-.61Z" fill="#fff"></path>
    <path d="M605.67,78.61c-.06,0-.12,0-.18-.02l-4.48-.89c-.28-.06-.52-.23-.65-.49-.13-.25-.14-.55-.02-.81l4.48-9.87c.18-.4,.61-.62,1.05-.53,.43,.09,.74,.47,.74,.91v10.76c0,.28-.12,.54-.34,.72-.17,.14-.38,.21-.59,.21Zm-4.4-1.85l4.41,.85-.08-10.4-4.34,9.55Z" fill="#002346"></path>
  </g>
  <g>
    <path d="M615.71,162.63h-2.44c-5.35-5.11-5.45-19.66-5.45-19.66l-4-.23c-4.55-17.06,0-55.71,0-55.71l1.06,.46c.42,.18,.9-.01,1.08-.43,.02-.05,.04-.11,.05-.16l1.65-7.77c.07-.34-.16-.68-.5-.75l-6.93-1.38c-.53-.11-1.06,.23-1.18,.76l-1.65,7.3c-.06,.29,.13,.57,.41,.63,0,0,.02,0,.03,0l1.43,.2c-5.12,23.31-19.97,53.72-19.97,53.72l-5.03-1.42c-1.71,5.68-10.23,14.78-10.23,14.78l-2.77-1.14c-1.06,5.12-10.92,14.21-10.92,14.21l5.16,9.1,63.43-2.42c-3.64-4.09-3.23-10.09-3.23-10.09Zm-20.35-40.79l.95,21.54c-3.49-.07-6.95-.62-10.28-1.64l8.79-20c.12-.27,.53-.2,.54,.1Zm-18.13,35.56l6.14-10.64,14.21,2.27,1.52,13.15c-14.41-2.19-21.87-4.78-21.87-4.78Z" fill="#fff"></path>
    <path d="M555.22,175.65l-5.51-9.71,.29-.27c.1-.09,9.75-9.04,10.77-13.94l.12-.59,3.01,1.24c1.37-1.5,8.38-9.35,9.88-14.33l.14-.47,5.1,1.44c1.7-3.54,14.79-31.18,19.63-52.71l-.89-.12c-.33-.07-.56-.22-.71-.45-.15-.23-.2-.5-.15-.77l1.65-7.31c.18-.79,.98-1.31,1.77-1.14l6.93,1.38c.61,.12,1.01,.72,.89,1.34l-1.65,7.78c-.02,.08-.04,.17-.08,.26-.29,.67-1.07,.97-1.74,.69l-.44-.19c-.57,5.17-4.03,38.8-.03,54.5l4.11,.24v.47c0,.14,.16,14.13,5.16,19.16h2.77l-.04,.53c0,.06-.35,5.84,3.1,9.72l.71,.79-64.79,2.47Zm-4.25-9.52l4.82,8.49,62.13-2.37c-2.53-3.42-2.74-7.65-2.73-9.13h-2.12l-.15-.14c-4.96-4.73-5.53-16.95-5.59-19.55l-3.9-.22-.09-.35c-4.52-16.96-.06-55.51-.01-55.9l.08-.67,1.68,.73c.17,.07,.35,0,.42-.17l1.67-7.84c.01-.07-.04-.14-.11-.16l-6.93-1.38c-.27-.05-.54,.11-.6,.38l-1.65,7.3,1.99,.3-.12,.53c-5.07,23.1-19.86,53.53-20.01,53.83l-.18,.38-4.97-1.4c-2.01,5.73-9.85,14.15-10.19,14.51l-.24,.25-2.56-1.05c-1.47,4.81-9.02,12.1-10.63,13.63Zm48.69-3.36l-.65-.1c-14.29-2.17-21.88-4.78-21.96-4.8l-.57-.2,6.61-11.46,14.92,2.38,1.64,14.18Zm-21.7-5.66c1.97,.62,8.97,2.67,20.56,4.47l-1.4-12.12-13.5-2.16-5.66,9.81Zm18.86-13.22h-.53c-3.53-.08-7.04-.64-10.42-1.67l-.54-.17,9.02-20.52c.15-.33,.5-.52,.86-.45,.36,.07,.62,.37,.64,.73h0s.97,22.07,.97,22.07Zm-10.12-2.47c2.95,.85,6,1.34,9.07,1.44l-.88-20.07-8.19,18.63Zm8.15-19.56h0Z" fill="#002346"></path>
  </g>
  <g>
    <path d="M466.78,213.44c-14.54,.78-29.1-.47-38.84-6.36-.64-4.66-1.94-17.69,3.66-17.69,0,0-4.54-14.21,9.1-16.49,0,0,12.42-1.7,23.26,0l2.82,40.54Z" fill="#e1cf56"></path>
    <path d="M459.24,214.15c-13.67,0-24.26-2.23-31.56-6.64l-.2-.12-.03-.24c-.68-4.96-1.4-13.75,1.43-17,.58-.66,1.28-1.07,2.08-1.21-.45-1.78-1.49-7.13,1.11-11.38,1.68-2.76,4.56-4.49,8.56-5.16,.14-.02,12.63-1.69,23.42,0l.39,.06,.03,.4,2.86,41.05-.51,.03c-2.62,.14-5.14,.21-7.56,.21Zm-30.84-7.38c8.34,4.96,21.06,7.04,37.84,6.19l-2.76-39.63c-10.55-1.57-22.6,.04-22.72,.06-3.68,.62-6.33,2.19-7.85,4.69-2.85,4.67-.86,11.09-.84,11.16l.21,.65h-.68c-.79,0-1.44,.3-1.97,.92-2.67,3.06-1.66,12.7-1.22,15.97Z" fill="#002346"></path>
  </g>
  <path d="M481.65,190.15h0c-.08,.04-.18,.06-.27,.06-.31-.02-.54-.29-.52-.59,.01-.16,.09-.31,.21-.41,.18,.3,.38,.62,.58,.94Z" fill="#b3b3b3"></path>
  <g>
    <path d="M534.47,200.93c-5.98,.52-11.88,1.78-17.55,3.77,0,0-10.14,3-24,5.52-2.31-5.3-6.39-12.36-11.29-20.07h0c-.2-.32-.4-.64-.61-1-2.5-3.9-5.19-8-7.95-12l-.55-.81c-1.82-2.66-3.66-5.32-5.5-7.94-.21-.32-.44-.63-.66-.95-2-2.78-3.9-5.52-5.79-8.15l-.7-1c-2.22-3.08-4.36-6-6.34-8.71l-.71-1c-2.32-3.15-4.41-6-6.15-8.28-.24-.33-.48-.64-.71-.94-1.55-2.07-2.77-3.69-3.56-4.72-.61-.8-.67-1.9-.14-2.76l2.53-4.19c.1-.13,.1-.32,0-.45l-.76-.79-.79-.84-4.57-4.83c-.48-.5-.55-1.26-.17-1.84,5.9-9.31,12.22-12.08,15.43-12.9,1.34-.34,2.77,.07,3.72,1.08,.91,1,2,2.25,2.92,3.33,.28,.32,.53,.63,.75,.9l.62,.74c.18,.24,.53,.29,.77,.1,0,0,.02-.02,.03-.02,.91-.72,1.96-1.25,3.08-1.54,1.36-.37,2.81-.03,3.85,.92l5.37,4.86,1,.87,8.99,8.34,1,.91,8.64,7.82,.55,.5,.42,.38c3.89,3.68,7.44,7.69,10.62,12,.25,.33,.5,.66,.74,1,2.74,3.73,5.34,7.7,7.77,11.74,.21,.34,.41,.67,.6,1,2.56,4.3,4.92,8.67,7.08,12.94l.52,1c5.24,10.37,9.16,19.94,11.5,26.01Z" fill="#e6e7e8"></path>
    <path d="M492.62,210.79l-.16-.36c-2.11-4.84-5.9-11.57-11.25-20-.21-.33-.41-.65-.62-1.02-2.88-4.5-5.48-8.42-7.93-11.97l-.55-.81c-1.82-2.66-3.66-5.31-5.5-7.93-.13-.2-.26-.38-.39-.57l-.27-.39c-1.03-1.43-2.04-2.86-3.04-4.27-.92-1.31-1.84-2.6-2.75-3.87l-.7-1c-1.86-2.58-3.67-5.05-5.37-7.38l-2.55-3.51c-1.93-2.62-3.75-5.09-5.27-7.08-.24-.32-.46-.62-.68-.91-1.58-2.11-2.8-3.72-3.58-4.75-.73-.96-.8-2.3-.17-3.33l2.5-4.14-1.46-1.53-4.57-4.83c-.64-.67-.73-1.68-.23-2.46,5.98-9.44,12.42-12.27,15.72-13.11,1.52-.38,3.13,.08,4.21,1.22,.85,.94,1.92,2.15,2.94,3.35,.25,.29,.48,.57,.68,.82l1.08,1.25-.28-.41c.97-.77,2.07-1.32,3.27-1.63,1.52-.42,3.14-.03,4.31,1.03l6.36,5.72,10,9.26,9.61,8.7c3.91,3.69,7.5,7.75,10.69,12.07,.25,.33,.5,.66,.75,1.01,2.6,3.54,5.22,7.5,7.79,11.77,.21,.34,.42,.68,.61,1.01,2.36,3.96,4.75,8.33,7.09,12.96l.52,1c5.15,10.19,9.11,19.79,11.52,26.06l.24,.62-.66,.06c-5.94,.51-11.8,1.77-17.43,3.74-.12,.04-10.35,3.04-24.08,5.54l-.39,.07Zm-37.75-104.35c-.27,0-.54,.03-.82,.1-3.16,.81-9.33,3.53-15.13,12.68-.25,.39-.21,.89,.11,1.23l6.12,6.46c.27,.36,.27,.78,.04,1.09l-2.5,4.15c-.42,.68-.37,1.56,.11,2.2,.79,1.03,2.01,2.65,3.56,4.72,.25,.32,.48,.62,.71,.95,1.51,1.98,3.34,4.46,5.27,7.08l2.55,3.51c1.7,2.33,3.51,4.81,5.38,7.39l.7,1c.91,1.27,1.82,2.56,2.75,3.87,.99,1.41,2,2.83,3.04,4.27l.27,.38c.14,.19,.27,.39,.4,.58,1.83,2.61,3.67,5.27,5.49,7.93l.55,.81c2.45,3.55,5.06,7.48,7.96,12.01,.22,.37,.42,.69,.61,1,5.25,8.26,9.01,14.91,11.17,19.77,13.48-2.47,23.46-5.41,23.56-5.44,5.47-1.92,11.19-3.17,16.99-3.73-2.43-6.25-6.28-15.53-11.24-25.35l-.52-1c-2.34-4.62-4.71-8.96-7.07-12.91-.19-.33-.38-.66-.59-.99-2.56-4.25-5.17-8.19-7.75-11.71-.24-.34-.49-.67-.74-.99-3.16-4.28-6.71-8.3-10.57-11.94l-10.6-9.6-9.98-9.2-5.38-4.87c-.92-.83-2.19-1.14-3.38-.81-1.07,.28-2.04,.76-2.9,1.45-.26,.2-.54,.27-.82,.24-.28-.04-.52-.18-.69-.4l-.68-.82c-.2-.24-.42-.52-.67-.8-1.01-1.19-2.08-2.4-2.91-3.32-.63-.67-1.51-1.03-2.41-1.03Zm-10.5,21.01s0,0,0,0h0Z" fill="#002346"></path>
  </g>
  <path d="M466.36,167.95c-.1,0-.2-.03-.29-.09-.22-.16-.28-.47-.12-.7,15.02-21.1,37.06-24.02,37.28-24.04,.26-.04,.52,.16,.56,.44,.03,.27-.16,.52-.44,.56-.22,.03-21.84,2.91-36.59,23.63-.1,.14-.25,.21-.41,.21Z" fill="#002346"></path>
  <path d="M479.13,177.07c-.1,0-.2-.03-.29-.09-.23-.16-.28-.47-.12-.7,.11-.16,11.26-15.74,34.12-18.7,.28-.04,.52,.16,.56,.43,.04,.27-.16,.52-.43,.56-22.42,2.9-33.32,18.13-33.43,18.29-.1,.14-.25,.21-.41,.21Z" fill="#002346"></path>
  <path d="M486.92,189.71c-.12,0-.24-.04-.34-.13-.2-.19-.22-.5-.03-.71,.12-.13,12.58-13.48,34.84-16.36,.28-.04,.52,.16,.56,.43,.04,.27-.16,.52-.43,.56-21.91,2.84-34.11,15.92-34.23,16.05-.1,.11-.23,.16-.37,.16Z" fill="#002346"></path>
  <g>
    <path d="M631.16,205.29c-16.1,2.3-32.48,1.67-48.36-1.84,0,0-25.51-4.85-48.33-2.52-5.98,.52-11.88,1.78-17.55,3.77,0,0-1.27,.38-3.53,1l-.5-9.46h1.42l-1.42-13.36h1.42l-.71-12.81h1.54l-.55-12.48c6.79-3.2,14.11-5.13,21.6-5.69l11.7,12.73,.83,.89,.55,.6h5.68l2.56,4,1-.16c7.18-1.09,49.89-7,62.63,4.55h3.05c1.1,0,2.01,.85,2.09,1.94l.85,11.36h2.12s1.95,11.17,1.9,17.48Z" fill="#fbe493"></path>
    <path d="M612.01,207.15c-9.83,0-19.64-1.07-29.32-3.21-.24-.04-25.69-4.81-48.17-2.51-5.95,.51-11.81,1.77-17.44,3.74-.02,0-1.29,.39-3.56,1.01l-.6,.16-.56-10.61h1.39l-1.42-13.36h1.45l-.71-12.81h1.55l-.54-12.29,.3-.14c6.88-3.24,14.2-5.17,21.78-5.74l.24-.02,13.1,14.24h5.73l2.53,3.95,.68-.11c8.25-1.25,49.93-6.9,62.9,4.54h2.86c1.35,0,2.49,1.06,2.59,2.4l.82,10.9h2.08l.07,.41c.02,.11,1.96,11.29,1.91,17.57v.43s-.43,.06-.43,.06c-6.4,.91-12.81,1.37-19.22,1.37Zm-64.28-7.35c18.3,0,34.96,3.12,35.16,3.16,15.75,3.48,31.81,4.12,47.77,1.9-.03-5.56-1.48-14.52-1.82-16.54h-2.16l-.89-11.82c-.06-.83-.76-1.48-1.59-1.48h-3.25l-.14-.13c-12.47-11.31-54.02-5.67-62.22-4.43l-1.32,.21-2.59-4.05h-5.63l-13.06-14.2c-7.25,.57-14.28,2.42-20.88,5.48l.56,12.67h-1.53l.71,12.81h-1.39l1.42,13.36h-1.45l.44,8.31c1.88-.52,2.92-.83,2.92-.83,5.68-1.99,11.63-3.27,17.65-3.79,4.39-.45,8.9-.63,13.31-.63Z" fill="#002346"></path>
  </g>
  <g>
    <path d="M496.43,209.56l-3.49,.66c-8.64,1.61-17.38,2.69-26.16,3.22-5.63,.33-11.28,.27-16.91-.19,2-3.38,7.76-12.09,15.9-14.3l-.18-2.53s-6.55,.91-6.91-6.75l-.93-8.81s-1.77-8.49,6.15-8c.03,0,.05-.02,.05-.05-.24-.92-3.47-14.22,9.15-15.86,0,0,17-3.41,19.6,7.95,0,0,3.21,18.76,3.17,27.86,0,0,1.67,9.66-2.31,11.93,0,.04,.96,.04,2.87,4.87Z" fill="#e1cf56"></path>
    <path d="M459.68,214.15c-3.29,0-6.59-.13-9.86-.4l-.8-.06,.41-.69c2.11-3.57,7.83-12.03,15.8-14.41l-.12-1.63c-.92,.03-2.88-.11-4.5-1.46-1.5-1.25-2.33-3.2-2.45-5.8l-.93-8.78c-.03-.12-.85-4.22,1.32-6.73,1.07-1.24,2.63-1.87,4.75-1.85-.39-1.88-1.19-7.32,1.54-11.36,1.7-2.52,4.45-4.04,8.18-4.52,.14-.03,17.47-3.36,20.15,8.33,.04,.21,3.22,18.93,3.18,27.97,.06,.31,1.52,9-1.97,11.95,.73,.76,1.57,2.32,2.49,4.67l.22,.56-4.08,.77c-8.63,1.61-17.46,2.7-26.22,3.23-2.37,.14-4.75,.21-7.12,.21Zm-8.97-1.33c5.32,.4,10.71,.44,16.03,.13,8.72-.53,17.5-1.61,26.1-3.21l2.89-.55c-1.47-3.56-2.26-3.98-2.35-4.02l-.31-.13-.02-.64,.25-.14c3.63-2.07,2.08-11.32,2.07-11.41,.03-9.04-3.14-27.67-3.17-27.86-2.46-10.72-18.84-7.58-19.01-7.54-3.46,.45-5.98,1.83-7.51,4.1-2.91,4.32-1.44,10.46-1.26,11.15l.06,.25-.33,.43h-.3c-2.04-.13-3.57,.37-4.54,1.48-1.85,2.13-1.1,5.88-1.09,5.92l.94,8.86c.11,2.33,.81,4.04,2.08,5.1,1.82,1.52,4.24,1.21,4.26,1.21l.53-.07,.25,3.47-.4,.11c-7.35,2-12.82,9.55-15.18,13.38Z" fill="#002346"></path>
  </g>
  <path d="M361.57,274.64c-.27-.01-.54-.21-.54-.5,0-.28,.22-.5,.5-.5,0,0,.03,0,.04,0,7.31,0,11.01-6.58,11.04-6.65,.13-.24,.44-.33,.68-.2,.24,.13,.33,.44,.2,.68-.16,.29-4.01,7.17-11.92,7.17Z" fill="#002346"></path>
  <path d="M332.31,287.91c-2.08,0-4-1.32-5.74-3.93-.05-.07-.08-.13-.11-.17-.03-.02-.06-.05-.09-.08-1.26-1.43-2.53-2.06-3.77-1.9-2.5,.34-4.22,3.81-4.24,3.84-.12,.25-.42,.35-.67,.23-.25-.12-.35-.42-.23-.67,.08-.16,1.97-3.98,5-4.4,1.55-.21,3.09,.5,4.56,2.13,.13,.09,.24,.26,.37,.46,.71,1.07,2.88,4.34,6.27,3.26,.26-.08,.54,.06,.63,.32,.08,.26-.06,.54-.32,.63-.57,.18-1.12,.27-1.67,.27Z" fill="#002346"></path>
  <path d="M331.81,294.84c-3.67,0-6.22-3.28-6.33-3.42-1.08-1.37-2.2-2.06-3.34-2.03-1.88,.05-3.27,1.99-3.29,2.01-.16,.23-.47,.28-.7,.12-.23-.16-.28-.47-.12-.7,.07-.1,1.69-2.37,4.07-2.43,1.49-.02,2.88,.77,4.16,2.41,.03,.04,2.51,3.23,5.85,3.03,.28-.02,.51,.19,.53,.47,.02,.28-.19,.51-.47,.53-.12,0-.25,.01-.37,.01Z" fill="#002346"></path>
  <path d="M328.81,301.42c-.16,0-.33-.08-.42-.23-1.4-2.17-2.85-3.38-4.2-3.49-1.24-.1-1.99,.71-2.03,.75-.19,.2-.5,.22-.71,.03-.2-.18-.22-.5-.04-.7,.04-.05,1.11-1.23,2.83-1.08,1.7,.13,3.37,1.46,4.97,3.95,.15,.23,.08,.54-.15,.69-.08,.05-.18,.08-.27,.08Z" fill="#002346"></path>
  <path d="M302.39,318.28c-.13,0-.25-.05-.35-.14-4.48-4.42-5.07-10.43-5.09-10.69-.02-.28,.18-.52,.45-.54,.25-.01,.52,.18,.54,.45,0,.06,.58,5.92,4.8,10.07,.2,.19,.2,.51,0,.71-.1,.1-.23,.15-.36,.15Z" fill="#002346"></path>
  <path d="M388.84,334.81c-.27,0-.49-.21-.5-.48-.95-21.87,20.63-33.73,20.85-33.85,.24-.13,.54-.04,.68,.2,.13,.24,.04,.55-.2,.68-.21,.11-21.25,11.69-20.32,32.92,.01,.28-.2,.51-.48,.52h-.02Z" fill="#002346"></path>
  <path d="M278.69,389.97s-.06,0-.09,0c-.27-.05-.45-.31-.4-.58,4.85-25.4,18.64-58.87,18.78-59.21,.11-.25,.4-.38,.65-.27,.25,.11,.38,.4,.27,.65-.14,.33-13.89,33.72-18.72,59.01-.05,.24-.26,.41-.49,.41Z" fill="#002346"></path>
  <path d="M315.64,399.64c-.09,0-.18-.02-.26-.08-.23-.15-.31-.45-.16-.69,5.21-8.36,3.75-19.14,2.89-23.39-.32-1.55-.19-3.17,.36-4.67l8.65-23.57c.09-.26,.38-.39,.64-.3,.26,.1,.39,.38,.3,.64l-8.65,23.57c-.49,1.33-.6,2.76-.32,4.13,.89,4.37,2.39,15.46-3.02,24.12-.09,.15-.26,.24-.42,.24Z" fill="#002346"></path>
  <path d="M401.4,395.1c-.11,0-.21-.03-.3-.1-.22-.17-.26-.48-.1-.7l9.67-12.82c.17-.22,.48-.26,.7-.1,.22,.17,.26,.48,.1,.7l-9.67,12.82c-.1,.13-.25,.2-.4,.2Z" fill="#002346"></path>
  <path d="M408.14,399.64c-.1,0-.21-.03-.29-.1-.22-.16-.27-.48-.11-.7l9.16-12.53c.16-.22,.48-.27,.7-.11,.22,.16,.27,.48,.11,.7l-9.16,12.53c-.1,.13-.25,.21-.4,.21Z" fill="#002346"></path>
  <path d="M417.96,398.5c-.11,0-.22-.04-.31-.11-.22-.17-.25-.48-.08-.7l6.68-8.53c.17-.22,.48-.25,.7-.08,.22,.17,.25,.48,.08,.7l-6.68,8.53c-.1,.13-.25,.19-.39,.19Z" fill="#002346"></path>
  <path d="M325.09,471.02s-.07,0-.11-.01c-50.22-11.48-104.57-48.35-105.11-48.72-.23-.16-.29-.47-.13-.7,.16-.23,.47-.28,.7-.13,.54,.37,54.74,37.14,104.77,48.58,.27,.06,.44,.33,.38,.6-.05,.23-.26,.39-.49,.39Z" fill="#002346"></path>
  <path d="M182.31,511.9c-.07,0-.15-.02-.22-.05-.25-.12-.35-.42-.23-.67,8.55-17.78,26.63-18.71,26.81-18.71,.29,0,.51,.21,.52,.48,.01,.28-.2,.51-.48,.52-.18,0-17.67,.92-25.95,18.15-.09,.18-.26,.28-.45,.28Z" fill="#002346"></path>
  <g>
    <path d="M373.19,514.53s6.35-46.48,68.23-74.2" fill="#fff"></path>
    <path d="M373.19,515.03s-.05,0-.07,0c-.27-.04-.47-.29-.43-.56,.06-.47,7.1-47.08,68.52-74.59,.25-.12,.55,0,.66,.25,.11,.25,0,.55-.25,.66-60.92,27.29-67.87,73.35-67.94,73.81-.03,.25-.25,.43-.49,.43Z" fill="#002346"></path>
  </g>
  <path d="M404.61,534.09c-17.62,0-25.71-3.77-29.39-7.59-3.56-3.7-2.94-7.33-2.92-7.48,.05-.27,.3-.44,.58-.4,.27,.05,.45,.31,.4,.58-.02,.13-.54,3.32,2.69,6.64,5.09,5.25,18.99,10.37,56.29,4.96,.26-.04,.53,.15,.57,.42,.04,.27-.15,.53-.42,.57-11.22,1.62-20.36,2.3-27.79,2.3Z" fill="#002346"></path>
  <g>
    <path d="M475.94,514.53c0-16.49,13.27-41.56,13.27-41.56-15.18-4.62-47.79,30.66-47.79,30.66-9.6,42.75-32.54,64.81-42.27,72.5-2.74,2.18-6.09,3.44-9.59,3.61-33.65,1.6-135.26-5.79-135.26-5.79-34.47-2.6-50.93-5.12-58.69-6.78-5.36-1.13-9.99-4.47-12.76-9.2-10-17.26-3.63-45.68-3.63-45.68l-7.13-4.66,2,39.26c3.41,31.26,23.87,28.42,23.87,28.42-10.8,21.6-4,60.82-4,60.82h10.27c-5.11-26.15,3.41-59.68,3.41-59.68,12.51,1.7,46.61,4,46.61,4-9.38,26.44-11.93,56.85-11.93,56.85l9.66,.57c.27-19.29,4.12-38.36,11.37-56.24,96.86,1.43,128.51,2.57,136,3.35,.79,.09,1.6-.06,2.31-.42,1.32-.67,2.58-1.46,3.76-2.36,11.63,.34,23.21-1.59,34.1-5.68,12.51,17,21.56,59.29,21.56,59.29h9.7c-5.11-32.8-23-63.4-23-63.4,20.25-13.24,28.16-57.88,28.16-57.88Zm-58,57.74c20.46-23,34.11-73.09,34.11-73.09l18.75-11.94-6.77,36.39c-6.28,53.42-46.07,48.64-46.07,48.64h-.02Z" fill="#e6e7e8"></path>
    <path d="M252.47,638.4l-10.69-.63,.04-.51c.03-.3,2.62-30.3,11.74-56.35-4.74-.33-33.8-2.35-45.54-3.9-.96,4.01-8.02,34.89-3.3,59.03l.12,.6h-11.3l-.07-.42c-.07-.39-6.54-38.69,3.66-60.34-2.06,.07-7.29-.2-12.4-4.18-6.12-4.77-9.87-13.1-11.14-24.74l-2.05-40.27,8.24,5.39-.08,.34c-.06,.28-6.21,28.43,3.57,45.32,2.69,4.59,7.22,7.86,12.43,8.96,7.74,1.66,24.19,4.17,58.62,6.77,1.01,.08,101.96,7.37,135.2,5.79,3.41-.17,6.63-1.38,9.3-3.5,9.46-7.48,32.5-29.48,42.09-72.22l.03-.13,.09-.1c1.34-1.45,33-35.45,48.3-30.8l.58,.18-.28,.54c-.13,.25-13.21,25.15-13.21,41.33v.09c-.09,.45-8.08,44.43-27.99,57.95,2.13,3.76,18.08,32.69,22.83,63.17l.09,.58h-10.69l-.08-.4c-.09-.42-9.06-41.88-21.25-58.79-10.84,4.02-22.19,5.9-33.76,5.58-1.16,.87-2.4,1.64-3.7,2.3-.8,.41-1.7,.57-2.59,.47-6.82-.71-35.91-1.87-135.61-3.34-7.17,17.8-10.94,36.55-11.2,55.74v.52Zm-9.62-1.57l8.62,.51c.33-19.25,4.16-38.05,11.4-55.9l.13-.32h.34c79.17,1.17,126.21,2.33,136.04,3.36,.71,.08,1.4-.05,2.03-.37,1.29-.66,2.53-1.43,3.68-2.31l.14-.11h.18c11.6,.36,23.03-1.56,33.91-5.64l.35-.13,.22,.31c11.78,16.01,20.6,54.74,21.56,59.09h8.71c-5.16-32.11-22.67-62.34-22.85-62.65l-.24-.41,.4-.26c19.56-12.79,27.64-55.9,27.93-57.51,.02-15.06,11.1-37.39,13.04-41.19-14.56-3.33-44.71,28.56-46.6,30.58-9.69,42.96-32.89,65.12-42.42,72.65-2.84,2.25-6.25,3.54-9.88,3.72-33.29,1.59-134.3-5.72-135.32-5.79-34.49-2.6-50.99-5.13-58.76-6.79-5.48-1.16-10.25-4.6-13.09-9.44-9.39-16.21-4.43-42.41-3.76-45.7l-6.02-3.94,1.95,38.28c1.24,11.33,4.85,19.42,10.74,24.02,6.08,4.75,12.5,3.94,12.57,3.93l.94-.13-.42,.85c-10.01,20.02-4.7,55.84-4.02,60.1h9.24c-4.83-25.88,3.44-58.97,3.53-59.3l.11-.43,.44,.06c12.35,1.68,46.24,3.97,46.58,4l.66,.04-.22,.62c-8.59,24.21-11.47,52.12-11.86,56.21Zm177.47-63.96c-1.51,0-2.4-.1-2.43-.1h-1.11l.78-.83c20.15-22.65,33.87-72.39,34-72.89l.05-.19,19.88-12.66-6.98,37.52c-2.18,18.6-8.65,32.26-19.21,40.58-9.68,7.62-20.3,8.57-24.97,8.57Zm-1.35-1.03c3.46,.16,15.17-.02,25.72-8.34,10.34-8.15,16.67-21.58,18.83-39.93l6.56-35.29-17.62,11.22c-.93,3.35-14.19,49.91-33.5,72.34Z" fill="#002346"></path>
  </g>
  <g>
    <rect x="473.67" y="476.44" width="153.48" height="26.15" fill="#fff"></rect>
    <path d="M627.65,503.09h-154.48v-27.15h154.48v27.15Zm-153.48-1h152.48v-25.15h-152.48v25.15Z" fill="#002346"></path>
  </g>
  <path d="M509.8,456.26c-.15,0-.3-.07-.4-.2-4.06-5.46-2.83-15.8-2.77-16.23,.03-.27,.3-.47,.56-.43,.27,.03,.47,.28,.43,.56-.01,.1-1.24,10.38,2.58,15.51,.17,.22,.12,.54-.1,.7-.09,.07-.19,.1-.3,.1Z" fill="#002346"></path>
  <path d="M468.29,172.11c-.18,0-.35-.09-.44-.26-.13-.24-.04-.55,.2-.68,.12-.07,12.08-6.47,25.49-3.01,.27,.07,.43,.34,.36,.61s-.34,.43-.61,.36c-13.04-3.38-24.64,2.85-24.76,2.92-.08,.04-.16,.06-.24,.06Z" fill="#002346"></path>
  <path d="M491.7,186.03h-7.46c-.5,0-.98-.21-1.32-.58-.34-.37-.5-.87-.46-1.36l1.51-16.44c.03-.27,.27-.47,.54-.45,.27,.03,.48,.27,.45,.54l-1.51,16.44c-.02,.22,.05,.43,.2,.6,.15,.16,.36,.25,.58,.25h7.46c.25,0,.48-.12,.63-.32,.15-.2,.19-.45,.12-.69l-4.63-16.28c-.08-.27,.08-.54,.34-.62,.27-.08,.54,.08,.62,.34l4.63,16.27c.16,.54,.06,1.11-.28,1.57s-.86,.72-1.43,.72Z" fill="#002346"></path>
  <path d="M492.98,194.4h-12.13c-.28,0-.5-.22-.5-.5s.22-.5,.5-.5h12.13c.28,0,.5,.22,.5,.5s-.22,.5-.5,.5Z" fill="#002346"></path>
  <path d="M476.81,205.61c-3.19,0-5.46-.75-6.76-2.24-1.32-1.5-1.11-3.18-1.11-3.25,.04-.27,.3-.47,.56-.43,.27,.04,.47,.29,.43,.56,0,.06-.14,1.33,.88,2.48,1.11,1.25,3.12,1.88,5.98,1.88l16.75-.42h.01c.27,0,.49,.22,.5,.49,0,.28-.21,.51-.49,.51l-16.76,.42Z" fill="#002346"></path>
  <path d="M465.22,191.53c-.26,0-.48-.2-.5-.47l-1.26-18.17c-.02-.28,.19-.51,.46-.53,.26-.02,.51,.19,.53,.46l1.26,18.17c.02,.28-.19,.51-.46,.53-.01,0-.02,0-.04,0Z" fill="#002346"></path>
  <path d="M433.29,208.11c-.26,0-.48-.2-.5-.46l-1.2-15.38c-.02-.28,.18-.52,.46-.54,.28-.03,.52,.18,.54,.46l1.2,15.38c.02,.28-.18,.52-.46,.54-.01,0-.03,0-.04,0Z" fill="#002346"></path>
  <path d="M433.74,190.21c-.09,0-.17-.02-.25-.07-.24-.14-.32-.45-.18-.68,.14-.23,3.56-5.69,23.33-4.52,.28,.02,.49,.25,.47,.53-.02,.28-.25,.5-.53,.47-19.17-1.14-22.38,3.97-22.41,4.02-.09,.16-.26,.25-.43,.25Z" fill="#002346"></path>
  <path d="M443.57,204.2c-.12,0-.25-.05-.34-.13-.11-.1-.17-.25-.16-.4l1.29-18.09c.02-.28,.29-.49,.53-.46,.28,.02,.48,.26,.46,.53l-1.24,17.47,10.2-1.54-5.51-15.8c-.09-.26,.05-.55,.31-.64,.26-.09,.55,.05,.64,.31l5.71,16.37c.05,.14,.03,.3-.04,.42-.08,.13-.21,.21-.35,.24l-11.41,1.73s-.05,0-.08,0Z" fill="#002346"></path>
  <path d="M444.79,128.2c-.09,0-.18-.02-.26-.07-.24-.14-.31-.45-.17-.69,.07-.12,7.05-11.6,18.18-15.71,.26-.1,.55,.04,.64,.3s-.04,.55-.3,.64c-10.79,3.98-17.6,15.17-17.67,15.28-.09,.16-.26,.24-.43,.24Z" fill="#002346"></path>
  <path d="M447.54,141.96c-.07,0-.14-.01-.2-.04-.25-.11-.37-.41-.25-.66,.1-.22,10.07-22.28,28.9-24.47,.27-.03,.52,.16,.55,.44,.03,.27-.17,.52-.44,.55-18.26,2.12-28,23.66-28.1,23.88-.08,.19-.27,.3-.46,.3Z" fill="#002346"></path>
  <path d="M453.53,150.09c-.07,0-.13-.01-.19-.04-.25-.11-.37-.4-.27-.66,.09-.21,9.27-21.42,30.97-25.1,.27-.05,.53,.14,.58,.41,.05,.27-.14,.53-.41,.58-21.15,3.58-30.12,24.3-30.21,24.5-.08,.19-.27,.31-.46,.31Z" fill="#002346"></path>
  <path d="M459.87,158.8c-.08,0-.15-.02-.23-.05-.25-.13-.34-.43-.22-.67s12.82-24.67,32.6-26.57c.28-.01,.52,.17,.55,.45s-.18,.52-.45,.55c-19.23,1.84-31.68,25.78-31.8,26.02-.09,.17-.26,.27-.45,.27Z" fill="#002346"></path>
  <path d="M503.67,208.54c-.26,0-.47-.2-.5-.46-1.07-12.54-7.4-14.83-7.47-14.85-.26-.09-.4-.37-.31-.63,.09-.26,.37-.4,.63-.32,.29,.09,7.01,2.46,8.15,15.71,.02,.28-.18,.52-.46,.54-.01,0-.03,0-.04,0Z" fill="#002346"></path>
  <path d="M507.55,207.64c-.22,0-.42-.14-.48-.37-3.12-11.2-3.04-18.8,.26-22.58,2.37-2.72,5.5-2.33,5.63-2.31,.27,.04,.46,.29,.43,.56s-.3,.45-.56,.43c-.12-.02-2.74-.33-4.75,2-2.09,2.42-3.8,8.14-.04,21.64,.07,.27-.08,.54-.35,.62-.04,.01-.09,.02-.13,.02Z" fill="#002346"></path>
  <path d="M518.55,163.78c-.24,0-.45-.17-.49-.42l-.72-4.46c-.04-.27,.14-.53,.41-.57,.28-.05,.53,.14,.57,.41l.72,4.46c.04,.27-.14,.53-.41,.57-.03,0-.05,0-.08,0Z" fill="#002346"></path>
  <path d="M523.55,162.78c-.24,0-.45-.17-.49-.42l-.72-4.46c-.04-.27,.14-.53,.41-.57,.28-.05,.53,.14,.57,.41l.72,4.46c.04,.27-.14,.53-.41,.57-.03,0-.05,0-.08,0Z" fill="#002346"></path>
  <path d="M528.72,160.75c-.23,0-.43-.15-.49-.38l-1.07-4.39c-.07-.27,.1-.54,.37-.6,.27-.06,.54,.1,.6,.37l1.07,4.39c.07,.27-.1,.54-.37,.6-.04,0-.08,.01-.12,.01Z" fill="#002346"></path>
  <path d="M534.79,159.73c-.22,0-.42-.14-.48-.37l-1.21-4.35c-.07-.27,.08-.54,.35-.62,.27-.08,.54,.08,.62,.35l1.21,4.35c.07,.27-.08,.54-.35,.62-.04,.01-.09,.02-.13,.02Z" fill="#002346"></path>
  <path d="M518.29,170.11c-.25,0-.47-.19-.5-.44-.03-.27,.17-.52,.44-.55l30.97-3.49c.25-.03,.52,.17,.55,.44,.03,.27-.17,.52-.44,.55l-30.97,3.49s-.04,0-.06,0Z" fill="#002346"></path>
  <path d="M516.73,183.38c-.27,0-.49-.21-.5-.48-.01-.28,.2-.51,.48-.52,.25,0,25.03-1.07,40.39-4.39,.27-.06,.54,.11,.59,.38,.06,.27-.11,.54-.38,.59-15.45,3.34-40.31,4.4-40.56,4.41h-.02Z" fill="#002346"></path>
  <path d="M517.83,183.33c-.24,0-.45-.17-.49-.41-.12-.63-1.1-6.19,.5-8.12,.37-.44,.85-.68,1.41-.69,.27-.05,1.31-.17,2.46,.6,1.68,1.12,2.81,3.52,3.37,7.13,.04,.27-.15,.53-.42,.57-.28,.05-.53-.14-.57-.42-.63-4.11-1.93-5.77-2.9-6.43-.94-.64-1.73-.48-1.76-.47-.04,0-.08,.01-.12,.01-.28,0-.5,.11-.69,.33-1.1,1.33-.58,5.71-.28,7.29,.05,.27-.13,.53-.4,.58-.03,0-.06,0-.09,0Z" fill="#002346"></path>
  <path d="M529.38,182.59c-.22,0-.42-.14-.48-.37-.19-.66-1.77-6.54-.16-8.43,.41-.48,.99-.68,1.67-.6,.27,.03,.47,.28,.44,.56-.03,.27-.28,.48-.56,.44-.46-.05-.66,.11-.79,.26-.96,1.11-.29,5.19,.36,7.5,.07,.27-.08,.54-.35,.62-.04,.01-.09,.02-.13,.02Z" fill="#002346"></path>
  <path d="M537.63,181.85c-.24,0-.45-.17-.49-.42l-1.06-6.2c-.05-.27,.14-.53,.41-.58,.27-.04,.53,.14,.58,.41l1.06,6.2c.05,.27-.14,.53-.41,.58-.03,0-.06,0-.08,0Z" fill="#002346"></path>
  <path d="M544.63,180.85c-.22,0-.42-.14-.48-.36l-1.34-4.73c-.08-.27,.08-.54,.35-.62,.27-.07,.54,.08,.62,.35l1.34,4.73c.08,.27-.08,.54-.35,.62-.04,.01-.09,.02-.14,.02Z" fill="#002346"></path>
  <path d="M518.29,196.66c-.97,0-1.51,0-1.57,0-.28,0-.5-.23-.5-.5,0-.27,.23-.5,.5-.5,.04-.01,.59,0,1.57,0,10.53,0,71.41-.39,106.29-9,.27-.07,.54,.1,.61,.37,.07,.27-.1,.54-.37,.61-34.99,8.64-95.99,9.03-106.53,9.03Z" fill="#002346"></path>
  <path d="M519.07,196.65c-.26,0-.48-.2-.5-.46-.01-.2-.32-4.96,1.69-6.96,.66-.66,1.48-.95,2.44-.89h0c.17,0,3.68,.13,4.15,7.61,.02,.28-.19,.51-.47,.53-.3,.02-.51-.19-.53-.47-.4-6.5-3.17-6.67-3.19-6.67-.71-.05-1.25,.15-1.69,.6-1.69,1.69-1.4,6.14-1.4,6.19,.02,.28-.19,.51-.46,.53-.01,0-.02,0-.04,0Z" fill="#002346"></path>
  <path d="M531.53,196.56c-.25,0-.48-.18-.52-.44-.13-.81-1.21-7.9,2.12-9.01,.02-.01,.73-.32,1.69,.17,1.75,.88,3.12,3.74,4.06,8.5,.06,.29-.13,.57-.42,.62-.28,.06-.57-.13-.62-.42-1.13-5.71-2.65-7.3-3.45-7.73-.52-.28-.87-.15-.88-.15-2.14,.72-1.75,6.03-1.45,7.84,.05,.29-.15,.56-.44,.61-.03,0-.06,0-.09,0Z" fill="#002346"></path>
  <path d="M541.98,196.31c-.25,0-.48-.18-.52-.45-.04-.24-.94-5.82,.75-8.18,.42-.59,.97-.94,1.63-1.06,.27-.08,1.34-.35,2.49,.39,1.76,1.14,2.76,4,2.99,8.5,.01,.29-.21,.54-.5,.56-.31-.01-.54-.21-.56-.5-.26-5.12-1.49-6.98-2.48-7.64-.84-.56-1.59-.3-1.62-.29-.03,.01-.07,.02-.1,.03-.39,.06-.71,.27-.98,.64-1.19,1.66-.81,5.89-.57,7.38,.05,.29-.15,.56-.44,.61-.03,0-.06,0-.09,0Z" fill="#002346"></path>
  <path d="M558.13,195.63c-.22,0-.43-.15-.48-.38-.07-.26-1.62-6.37,.18-8.7,.48-.62,1.15-.94,1.97-.94,.28,0,.5,.22,.5,.5s-.22,.5-.5,.5c-.51,0-.89,.17-1.18,.55-1.25,1.61-.43,6.2,0,7.84,.07,.27-.09,.54-.36,.61-.04,.01-.08,.02-.12,.02Z" fill="#002346"></path>
  <path d="M565.18,180.85c-.16,0-.3-.07-.4-.2l-7.68-10.22c-.17-.22-.12-.53,.1-.7,.22-.17,.53-.12,.7,.1l7.51,10,55.67-5.81c.28-.03,.52,.17,.55,.45,.03,.27-.17,.52-.45,.55l-55.95,5.83s-.03,0-.05,0Z" fill="#002346"></path>
  <path d="M577.99,194.34c-.18,0-.36-.1-.44-.27l-7.27-14.07c-.13-.25-.03-.55,.21-.67,.24-.13,.55-.03,.67,.21l7.27,14.07c.13,.25,.03,.55-.21,.67-.07,.04-.15,.06-.23,.06Z" fill="#002346"></path>
  <path d="M577.23,157.9c-.05,0-.11,0-.16-.03l-13.19-4.43c-.26-.09-.4-.37-.31-.63,.09-.26,.37-.41,.63-.31l13.19,4.43c.26,.09,.4,.37,.31,.63-.07,.21-.26,.34-.47,.34Z" fill="#002346"></path>
  <path d="M608.33,163.5c-4.7,0-9.08-.78-9.33-.82-.27-.05-.45-.31-.4-.58,.05-.27,.32-.45,.58-.4,.08,.01,8.13,1.44,14,.45,.27-.04,.53,.14,.58,.41,.05,.27-.14,.53-.41,.58-1.6,.27-3.33,.37-5.02,.37Z" fill="#002346"></path>
  <path d="M582.8,148.25c-.08,0-.16-.02-.23-.06l-8.43-4.37c-.25-.13-.34-.43-.21-.67,.13-.25,.43-.34,.67-.21l8.43,4.37c.25,.13,.34,.43,.21,.67-.09,.17-.26,.27-.44,.27Z" fill="#002346"></path>
  <path d="M597.71,150.66c-.24,0-.45-.17-.49-.41-.05-.27,.13-.53,.41-.58l8.47-1.47c.28-.06,.53,.13,.58,.41,.05,.27-.13,.53-.41,.58l-8.47,1.47s-.06,0-.09,0Z" fill="#002346"></path>
  <path d="M596.8,144.13c-9.12,0-17.3-3.86-17.72-4.06-.25-.12-.35-.42-.24-.67,.12-.25,.42-.35,.67-.24,.13,.06,13.02,6.14,24.18,3.1,.27-.07,.54,.09,.61,.35,.07,.27-.08,.54-.35,.61-2.37,.65-4.79,.9-7.15,.9Z" fill="#002346"></path>
  <path d="M603.82,87.53s-.08,0-.12-.01l-4.55-1.14c-.27-.07-.43-.34-.36-.61,.07-.27,.34-.43,.61-.36l4.55,1.14c.27,.07,.43,.34,.36,.61-.06,.23-.26,.38-.49,.38Z" fill="#002346"></path>
  <path d="M631.29,197.11s-.1,0-.14-.02c-.26-.08-.41-.36-.33-.62l26.87-88.92c.08-.26,.36-.41,.62-.33,.26,.08,.41,.36,.33,.62l-26.87,88.92c-.07,.22-.26,.36-.48,.36Z" fill="#002346"></path>
  <path d="M642.39,194.38c-.19,0-.37-.11-.45-.29-.12-.25-.01-.55,.24-.67l23.44-11.16c.25-.12,.55-.01,.67,.24,.12,.25,.01,.55-.24,.67l-23.44,11.16c-.07,.03-.14,.05-.21,.05Z" fill="#002346"></path>
  <path d="M647.35,187.37c-.21,0-.41-.14-.48-.35l-1.98-6.52c-.08-.26,.07-.54,.33-.62l12.8-3.98c.25-.08,.51,.05,.61,.29l2.26,5.46c.11,.26-.02,.55-.27,.65-.25,.11-.55-.02-.65-.27l-2.08-5.04-11.89,3.7,1.84,6.05c.08,.26-.07,.54-.33,.62-.05,.01-.1,.02-.15,.02Z" fill="#002346"></path>
  <path d="M657.79,195.61c-.18,0-.35-.09-.44-.26l-3.69-6.81c-.13-.24-.04-.55,.2-.68,.24-.13,.55-.04,.68,.2l3.69,6.81c.13,.24,.04,.55-.2,.68-.08,.04-.16,.06-.24,.06Z" fill="#002346"></path>
  <path d="M668.03,154.28c-.22,0-.42-.14-.48-.36l-1.73-6.17c-.07-.26,.07-.52,.32-.61l9-3c.25-.09,.54,.05,.63,.31l1.75,4.89c.09,.26-.04,.55-.3,.64-.26,.09-.55-.04-.64-.3l-1.59-4.43-8.08,2.69,1.6,5.71c.07,.27-.08,.54-.35,.62-.05,.01-.09,.02-.14,.02Z" fill="#002346"></path>
  <path d="M669.77,143.28c-.21,0-.4-.13-.47-.34l-1.97-5.67c-.08-.23,.01-.48,.22-.6l6.52-3.8c.24-.14,.54-.06,.68,.18s.06,.54-.18,.68l-6.17,3.59,1.84,5.28c.09,.26-.05,.55-.31,.64-.05,.02-.11,.03-.16,.03Z" fill="#002346"></path>
  <path d="M669.94,133.03c-.21,0-.4-.13-.47-.34l-2.09-6.1c-.09-.26,.05-.55,.31-.63,.26-.09,.55,.05,.63,.31l2.09,6.1c.09,.26-.05,.55-.31,.63-.05,.02-.11,.03-.16,.03Z" fill="#002346"></path>
  <path d="M693.95,160.75s-.05,0-.08,0c-.27-.04-.46-.3-.41-.57l7.04-43.24c.04-.27,.3-.46,.57-.41,.27,.04,.46,.3,.41,.57l-7.04,43.24c-.04,.25-.25,.42-.49,.42Z" fill="#002346"></path>
  <g>
    <ellipse cx="352.32" cy="217.69" rx="9.5" ry="21.9" transform="translate(14.36 457.08) rotate(-67.02)" fill="#002346"></ellipse>
    <path d="M363.75,230.45c-4.34,0-9.75-1.18-15.34-3.55-5.45-2.31-10.18-5.41-13.34-8.72-3.25-3.42-4.46-6.7-3.38-9.23,1.07-2.53,4.26-3.95,8.98-3.99,.07,0,.13,0,.2,0,4.54,0,9.97,1.25,15.34,3.53,5.45,2.31,10.18,5.41,13.34,8.72,3.25,3.42,4.46,6.7,3.38,9.23h0c-1.13,2.67-4.55,4.01-9.19,4.01Zm-22.87-24.49c-.07,0-.13,0-.19,0-4.3,.04-7.16,1.23-8.07,3.38-.91,2.14,.22,5.04,3.19,8.15,3.06,3.22,7.68,6.23,13,8.49,10.68,4.53,21.31,4.56,23.22,.07h0c.91-2.14-.22-5.04-3.19-8.15-3.06-3.22-7.68-6.23-13-8.49-5.25-2.22-10.55-3.45-14.95-3.45Z" fill="#002346"></path>
  </g>
</svg>
