<?xml version="1.0" encoding="UTF-8"?>
<svg xmlns="http://www.w3.org/2000/svg" id="a" width="865.76" height="682.89" viewBox="0 0 865.76 682.89">
  <circle cx="34.74" cy="263.17" r="9.69" fill="none" stroke="#2a2c45" stroke-linecap="round" stroke-linejoin="round"></circle>
  <g>
    <rect x="708.73" y="463.98" width="125.89" height="174.22" fill="#fff" stroke="#002346" stroke-miterlimit="10"></rect>
    <rect x="702.63" y="457.52" width="138.09" height="6.47" rx="3.23" ry="3.23" fill="#e5e5e5" stroke="#002346" stroke-miterlimit="10"></rect>
    <rect x="659.21" y="457.52" width="43.42" height="6.47" fill="#ecab73"></rect>
    <rect x="659.21" y="457.52" width="43.42" height="6.47" opacity=".2"></rect>
    <rect x="666.08" y="463.98" width="42.65" height="174.22" fill="#e5e5e5" stroke="#002346" stroke-miterlimit="10"></rect>
    <path d="M139.95,361.43H655.69c4.02,0,7.28,3.26,7.28,7.28v168.09H132.66v-168.09c0-4.02,3.26-7.28,7.28-7.28Z" fill="#fff" stroke="#002346" stroke-miterlimit="10"></path>
    <path d="M158.15,383.08h479.33c4.51,0,8.18,3.67,8.18,8.18v122.37H149.97v-122.37c0-4.51,3.67-8.18,8.18-8.18Z" fill="#e5e5e5" stroke="#002346" stroke-miterlimit="10"></path>
    <polygon points="145.18 587.15 137.31 636.14 144.75 636.14 177.55 587.59 145.18 587.15" fill="#e5e5e5" stroke="#2a2c45" stroke-miterlimit="10"></polygon>
    <polygon points="650.28 587.15 658.15 636.14 650.72 636.14 617.92 587.59 650.28 587.15" fill="#e5e5e5" stroke="#2a2c45" stroke-miterlimit="10"></polygon>
    <path d="M689.03,446.01s.03,.02,.01,.03c-.81,.49-1.39,1.35-1.53,2.35l-13.79,105.23c-1.35,10.27-10.09,17.94-20.45,17.94H138.57c-10.94,0-19.99-8.56-20.57-19.49l-5.58-101.87c-.07-1.37-1.03-2.51-2.31-2.82l22.06,3.41,1,86.01H662.98v-83.97l26.05-6.83Z" fill="#e5e5e5" stroke="#002346" stroke-miterlimit="10"></path>
    <path d="M720.54,458.18l-11.23,87.7c-3.11,25.18-24.5,44.1-49.85,44.1H134.72c-26.35,0-48.22-20.34-50.12-46.62l-6.09-84.02c-.48-6.52,4.69-12.08,11.23-12.08h19.56l.82,.12c1.28,.32,2.24,1.46,2.31,2.82l5.58,101.87c.59,10.93,9.63,19.49,20.57,19.49H653.28c10.36,0,19.1-7.68,20.45-17.94l13.79-105.23c.14-1.05,.76-1.94,1.63-2.42l1.6-.43h18.67c6.75,0,11.97,5.93,11.12,12.63Z" fill="#fff" stroke="#002346" stroke-miterlimit="10"></path>
    <path d="M129.6,485.4h252.5c5.8,0,10.5,4.7,10.5,10.5v13.87H119.1v-13.87c0-5.8,4.7-10.5,10.5-10.5Z" fill="#e5e5e5" stroke="#002346" stroke-miterlimit="10"></path>
    <path d="M119.1,509.76H392.71v40.23c0,3.48-2.83,6.31-6.31,6.31H125.41c-3.48,0-6.31-2.83-6.31-6.31v-40.23h0Z" fill="#fff" stroke="#002346" stroke-miterlimit="10"></path>
    <path d="M407.52,485.4h254.89c5.8,0,10.5,4.7,10.5,10.5v13.87H397.02v-13.87c0-5.8,4.7-10.5,10.5-10.5Z" fill="#e5e5e5" stroke="#002346" stroke-miterlimit="10"></path>
    <path d="M397.02,509.76h276v40.23c0,3.48-2.83,6.31-6.31,6.31H403.33c-3.48,0-6.31-2.83-6.31-6.31v-40.23h0Z" fill="#fff" stroke="#002346" stroke-miterlimit="10"></path>
    <path d="M242.38,351.73s4.56-.46,9.64,.52c5.77,1.11,10.67,4.9,13.31,10.15l18.5,36.74,37.41-27.04,17.16,14.73s-45.9,82.4-71.9,40.37l-6.36-11.34,.14,41.89-90.01,4.15v-7.47s-31.49,4.35-34.46-19.89c-.49-4.03,0-8.1,1.2-11.98,1.15-3.72,3.24-9.4,6.99-16.87l20.26-42.72s7.48-23.02,38.16-13.48l39.95,2.23Z" fill="#f58f74" stroke="#002346" stroke-miterlimit="10"></path>
    <path d="M175.53,461.91s-8.06,24.6,6.97,37.77c5.19,4.54,12.08,6.62,18.96,6.19,6.84-.43,18.1-2.09,33.17-7.55l37.23-13.87,44.41,72.32,28.74-11.43s-33.54-68.34-47.33-95.41c0,0-6.89-12.66-38.18-3.66l-53.76,13.54c-1.53,.41-3.1,.67-4.69,.75l-25.52,1.35Z" fill="#fbe493" stroke="#002346" stroke-miterlimit="10"></path>
    <polygon points="221.56 571.94 239.68 496.44 271.86 484.45 281.61 500.34 251.59 583.2 221.56 571.94" fill="#fbe493" stroke="#002346" stroke-miterlimit="10"></polygon>
    <polygon points="324.84 567.4 335.94 586.04 356 574.85 346.84 558.88 324.84 567.4" fill="#f0b1bf" stroke="#002346" stroke-miterlimit="10"></polygon>
    <path d="M340.42,581.68s-.04-13.51,15.29-16.4c.17-.03,.34,.06,.41,.21l5.19,11.31h30.33s5.35-.4,8.33,6.4l-56.3,25.04-15.67-28.41c-.1-.19-.03-.42,.17-.51,1.55-.72,7.87-3.17,12.25,2.36Z" fill="#f58f74" stroke="#002346" stroke-linecap="round" stroke-linejoin="round"></path>
    <path d="M216.5,599.96c.29-.43,4.17-13.2,4.17-13.2l24.27,8.18-5.6,14.79-22.84,3.3v-13.07Z" fill="#f0b1bf" stroke="#002346" stroke-miterlimit="10"></path>
    <polygon points="314.69 376.85 334.67 393.1 338.41 386.83 321.25 372.1 314.69 376.85" fill="#fff" stroke="#002346" stroke-miterlimit="10"></polygon>
    <path d="M222.36,455.36l-1.63-87.08,1.62,.61,1.27-4.49s2.62,1.57,8.57,1.11l.24,3.38,.59-.24,2.13,83.3-12.79,3.42Z" fill="#e5e5e5" stroke="#002346" stroke-miterlimit="10"></path>
    <path d="M367.13,361.62c0,.23-.08,.45-.24,.62-1.46,1.57-6.36,6.6-12.05,9.82-1.13,.64-2.16,1.44-3.07,2.36-2.01,2.03-5.92,5.61-9.82,7.1-1,.38-1.92,.94-2.74,1.63l-2.48,2.09-12.67-10.88s.21-.1,.53-.3c2.03-1.26,3.34-3.4,3.61-5.77,.22-2.07,.98-6.14,3.57-9.93,0,0,3.2-4.94,3.53-9.59,.03-.43,.47-.72,.87-.56,.92,.37,2.29,1.43,2.35,4.42h0c.02,.95-.09,2.09-.39,3.46,0,0-.82,3.59,1.13,1.37,.05-.06,.11-.12,.16-.18l12.46-13.67c.45-.5,1.2-.59,1.77-.2,.38,.26,.59,.68,.59,1.12,0,.24-.07,.49-.21,.72l-8.18,13.03c-.1,.16-.07,.37,.08,.49,.07,.06,.16,.09,.25,.09,.1,0,.2-.04,.28-.12l12.4-12.85c.47-.49,1.23-.53,1.75-.11,.31,.26,.48,.63,.48,1,0,.26-.08,.53-.24,.75l-10.34,14.53c-.13,.18-.12,.43,.03,.6,.1,.11,.23,.16,.36,.16,.11,0,.21-.03,.3-.1l12.65-9.87c.57-.44,1.41-.37,1.83,.21,.17,.23,.25,.49,.25,.75,0,.33-.13,.65-.37,.9l-11.51,11.38c-.21,.21-.25,.55-.07,.8,.12,.17,.31,.27,.51,.27,.1,0,.21-.02,.3-.08l11.01-6.25c.44-.25,1-.09,1.25,.35,.08,.14,.11,.29,.11,.44Z" fill="#f0b1bf" stroke="#002346" stroke-miterlimit="10"></path>
    <path d="M219.22,327.61l-8.52,17.56s2.06,7.21,15.19,11.15l-2.28,8.09s2.07,1.31,8.57,1.11l-.97-9.13s8.36-.84,7.88-10.55l-14.52-23.38s-.64,3.48-5.36,5.16Z" fill="#f0b1bf" stroke="#002346" stroke-miterlimit="10"></path>
    <rect x="224.58" y="299.07" width="29.66" height="46.76" rx="14.83" ry="14.83" fill="#f0b1bf" stroke="#002346" stroke-miterlimit="10"></rect>
    <path d="M264.19,309.02s-3.09,6.78-9.95,4.88c0,0,.13-6.72-5.15-11.23,0,0,.09,2.74-1.33,5.62-1.95,3.97-6.77,8.2-18.64,5.79,0,0-1.24,8.71-7.46,8.37l-5.61,11.67s-10.16-26.03-4.26-36.9c1.94-3.57,5.62-5.52,12-4.39,0,0,5.19-8.17,17.6-5.5,0,0,7.91,.31,12.84,7.86,0,0,1.78,2.89,5.24,3.89,0,0,8.49,2.25,4.71,9.94Z" fill="#002346" stroke="#002346" stroke-miterlimit="10"></path>
    <ellipse cx="218.26" cy="320.44" rx="6.74" ry="7.45" fill="#f0b1bf" stroke="#002346" stroke-miterlimit="10"></ellipse>
    <path d="M222.35,368.89l3.55-12.58s-12.42-3.53-15.19-11.15l2.32-4.72s-4.14-.75-6.21,3.55l-2.39,4.51c-.46,.87-.63,1.87-.48,2.84,.45,2.83,2.51,8.67,11.52,14.36,1.28,.81,2.63,1.5,4.03,2.09,.79,.33,1.76,.71,2.85,1.1Z" fill="#fff" stroke="#002346" stroke-miterlimit="10"></path>
    <path d="M231.22,356.38l1.21,12.51s10.25-3.59,10.96-16.16c0,0,.2-4.66-3.42-6.9h-.86s1.24,8.7-7.88,10.55Z" fill="#fff" stroke="#002346" stroke-miterlimit="10"></path>
    <path d="M237.91,426.61l21.82,1.63s10.1,1.96,15.41,6.17l9.04,6.28c.61,.43,.54,1.36-.14,1.67-.93,.43-2.16,.82-3.24,.58,0,0-2.06,2.55-6.89,.32,0,0-7.11-6.46-14.44-4.4,0,0-14.04,4.88-22.51,.29l.94-12.54Z" fill="#f0b1bf" stroke="#002346" stroke-miterlimit="10"></path>
    <polygon points="311.15 556.42 319.9 573.53 355.72 556.42 346.5 540.24 311.15 556.42" fill="#fff" stroke="#002346" stroke-miterlimit="10"></polygon>
    <polygon points="211.27 586.11 217.1 569.03 254.18 580.68 247.97 597.57 211.27 586.11" fill="#fff" stroke="#002346" stroke-miterlimit="10"></polygon>
    <path d="M215.68,598.46l-9.07,33.79c-.16,.6,.29,1.18,.9,1.18h67.29s2.87-7.04-6.32-9.62l-27.72-8.3,4.57-9.97c.19-.41,.06-.89-.3-1.15-2.33-1.65-11-6.6-21.65,1.91,0,0-1.78-6.9-6.53-8.48-.5-.17-1.04,.15-1.17,.66Z" fill="#f58f74" stroke="#002346" stroke-linecap="round" stroke-linejoin="round"></path>
    <polygon points="228.07 425.45 228.07 450.04 238.48 448.39 238.48 425.45 228.07 425.45" fill="#2a2c45"></polygon>
    <polygon points="228.07 425.45 228.07 450.04 238.48 449.39 238.48 425.45 228.07 425.45" fill="#fff" stroke="#002346" stroke-miterlimit="10"></polygon>
    <path d="M544.77,443.08h-95.22s-17.43,58-17.43,58l97.14,.29,15.66-58.09c.03-.1-.05-.2-.15-.2Z" fill="#fbe493" stroke="#002346" stroke-miterlimit="10"></path>
    <path d="M544.9,442.97l-2.06-2.71h-96.12s-18.71,60.85-18.71,60.85h4.12s17.43-58.04,17.43-58.04h95.3c.05,0,.09-.06,.05-.11Z" fill="#fbe493" stroke="#002346" stroke-miterlimit="10"></path>
    <path d="M432.12,500.93l9.09-30.09,8.2,20.09s4.78,9.35-1.45,10h-15.84Z" opacity=".2"></path>
    <circle cx="534.73" cy="449.26" r="2.46" fill="#fff" stroke="#002346" stroke-miterlimit="10"></circle>
    <path d="M537.94,465.99l-95.06-.22c-.07,0-.12,.07-.09,.14l10.8,26.81c.65,1.63,1,3.39,.87,5.15-.13,1.87-.77,4.11-2.63,6.08h94.58c3.51,0,6.26-3.09,5.78-6.57-.21-1.49-.75-3.28-1.79-5.43l-12.47-25.95Z" fill="#e5e5e5" stroke="#002346" stroke-miterlimit="10"></path>
    <line x1="540.12" y1="477.65" x2="452.12" y2="477.65" fill="none" stroke="#002346" stroke-linecap="round" stroke-linejoin="round"></line>
    <line x1="545.55" y1="490.51" x2="457.55" y2="490.51" fill="none" stroke="#002346" stroke-linecap="round" stroke-linejoin="round"></line>
    <path d="M442.74,465.76l10.82,26.85c.63,1.57,1.01,3.24,.99,4.94-.02,2.08-.57,4.6-2.71,6.39h-38.29v-3h34.41c1.26,0,2.42-.76,2.84-1.94,.51-1.44,.49-3.9-1.39-8.06l-8.2-20.09,1.53-5.08Z" fill="#fff" stroke="#002346" stroke-miterlimit="10"></path>
    <path d="M293.33,201.57h106.8c4.64,0,8.39,3.76,8.39,8.39v60.56c0,4.64-3.76,8.39-8.39,8.39h-73.78c-.41,0-.81,.15-1.12,.43l-21.4,19.24c-.45,.4-1.16,.08-1.16-.52v-17.48c0-.92-.75-1.67-1.67-1.67h-7.67c-4.64,0-8.39-3.76-8.39-8.39v-60.56c0-4.64,3.76-8.39,8.39-8.39Z" fill="#fff" stroke="#002346" stroke-miterlimit="10"></path>
    <circle cx="415.63" cy="195.65" r="22.7" fill="#f58f74" stroke="#002346" stroke-miterlimit="10"></circle>
    <rect x="316.92" y="217.52" width="76.7" height="7.82" transform="translate(710.54 442.85) rotate(-180)" fill="#e5e5e5" stroke="#002346" stroke-miterlimit="10"></rect>
    <line x1="393.62" y1="236.79" x2="300.71" y2="236.79" fill="none" stroke="#002346" stroke-linecap="round" stroke-linejoin="round"></line>
    <line x1="393.62" y1="247.28" x2="300.71" y2="247.28" fill="none" stroke="#002346" stroke-linecap="round" stroke-linejoin="round"></line>
    <line x1="393.62" y1="258.53" x2="342.3" y2="258.53" fill="none" stroke="#002346" stroke-linecap="round" stroke-linejoin="round"></line>
    <polyline points="403.63 199.94 413.06 207.65 427.63 183.65" fill="none" stroke="#002346" stroke-linecap="round" stroke-linejoin="round"></polyline>
    <line x1="73.8" y1="171.65" x2="73.8" y2="629.07" fill="none" stroke="#2a2c45" stroke-linecap="round" stroke-linejoin="round"></line>
    <path d="M72.13,163.51h3.35c2.05,0,3.71,1.66,3.71,3.71v1.96h-10.78v-1.96c0-2.05,1.66-3.71,3.71-3.71Z" fill="#f58f74" stroke="#002346" stroke-miterlimit="10"></path>
    <line x1="79.57" y1="170.82" x2="68.04" y2="170.82" fill="none" stroke="#2a2c45" stroke-linecap="round" stroke-linejoin="round"></line>
    <path d="M43.16,264.51l107.39-85.03c9.61-7.64,23.77-.65,23.55,11.63l-.28,15.46" fill="none" stroke="#2a2c45" stroke-linecap="round" stroke-linejoin="round"></path>
    <path d="M172.58,200.07h5.72c3.49,0,6.33,2.84,6.33,6.33v5.75h-18.37v-5.75c0-3.49,2.84-6.33,6.33-6.33Z" fill="#fbe493" stroke="#002346" stroke-miterlimit="10"></path>
    <path d="M160.49,208.74h29.9c5.44,0,9.86,4.42,9.86,9.86v48.15h-49.61v-48.15c0-5.44,4.42-9.86,9.86-9.86Z" fill="#f58f74" stroke="#002346" stroke-miterlimit="10"></path>
    <path d="M162.84,212.15s-4.46,.26-4.46,8.92v40.16" fill="none" stroke="#2a2c45" stroke-linecap="round" stroke-linejoin="round"></path>
    <path d="M32.78,648.56v4.36H115.56v-3.9s-17.01,.6-27.83-5.65c-5.29-3.06-8.4-8.86-8.4-14.97v-3.91s-11.31,0-11.31,0h0c0,7.13-2,13.89-7.93,17.84-5.87,3.91-14.75,7.32-27.3,6.24Z" fill="#f58f74" stroke="#002346" stroke-miterlimit="10"></path>
    <circle cx="74.01" cy="236.7" r="13.92" fill="#f58f74" stroke="#002346" stroke-miterlimit="10"></circle>
    <circle cx="74.01" cy="236.7" r="10.09" fill="none" stroke="#2a2c45" stroke-linecap="round" stroke-linejoin="round"></circle>
    <ellipse cx="241.14" cy="321.83" rx=".87" ry="1.89" transform="translate(-18.8 14.98) rotate(-3.43)" fill="#002346" stroke="#002346" stroke-miterlimit="10"></ellipse>
    <ellipse cx="251.09" cy="322.04" rx=".87" ry="1.89" transform="translate(-18.8 15.58) rotate(-3.43)" fill="#002346" stroke="#002346" stroke-miterlimit="10"></ellipse>
    <path d="M246.84,323.74l2.21,6.63c.09,.36-.22,.69-.58,.64l-3.26-.47" fill="none" stroke="#002346" stroke-linecap="round" stroke-linejoin="round"></path>
    <path d="M238.83,318.49s1.53-1.7,3.51-.18" fill="none" stroke="#002346" stroke-linecap="round" stroke-linejoin="round"></path>
    <path d="M248.73,318.65s1.53-1.7,3.51-.18" fill="none" stroke="#002346" stroke-linecap="round" stroke-linejoin="round"></path>
    <path d="M243.43,334.65c.58,.41,3.22,2.12,6.19,1.38,.04,0,.07,.02,.05,.06-.43,.74-3.73,6.04-6.32-1.37-.01-.04,.03-.09,.07-.06Z" fill="#fff" stroke="#002346" stroke-miterlimit="10"></path>
    <rect x="726.17" y="492.27" width="91" height="43" rx="1.82" ry="1.82" fill="#e5e5e5" stroke="#002346" stroke-miterlimit="10"></rect>
    <rect x="726.17" y="562.27" width="91" height="43" rx="1.82" ry="1.82" fill="#e5e5e5" stroke="#002346" stroke-miterlimit="10"></rect>
    <rect x="762.06" y="508.24" width="19.23" height="11.06" rx="1.99" ry="1.99" fill="#fff" stroke="#002346" stroke-miterlimit="10"></rect>
    <rect x="762.06" y="578.24" width="19.23" height="11.06" rx="1.83" ry="1.83" fill="#fff" stroke="#002346" stroke-miterlimit="10"></rect>
    <polyline points="170.5 454.27 228.07 450.04 228.07 425.45 173.43 423.89 182.5 400.27" fill="#f58f74" stroke="#002346" stroke-linecap="round" stroke-linejoin="round"></polyline>
    <line x1="260.15" y1="415.87" x2="260" y2="395.77" fill="none" stroke="#002346" stroke-linecap="round" stroke-linejoin="round"></line>
    <path d="M280.81,442.95l-9.91-6.86c-1.25-.86-2.68-1.41-4.19-1.6l-5.71-.71" fill="none" stroke="#002346" stroke-linecap="round" stroke-linejoin="round"></path>
    <path d="M218.33,317.27s1.74,3.16-1.79,5.33" fill="none" stroke="#002346" stroke-linecap="round" stroke-linejoin="round"></path>
    <line x1="396.52" y1="578.55" x2="341.08" y2="602.86" fill="none" stroke="#002346" stroke-linecap="round" stroke-linejoin="round"></line>
    <line x1="207.84" y1="628.87" x2="275" y2="629.77" fill="none" stroke="#002346" stroke-linecap="round" stroke-linejoin="round"></line>
    <g>
      <path d="M696.16,391.89c.17,1.93,.42,4.12,.79,6.34,0,0,7.84-25.65,33.61-22.34l-5.06-11.15-4.19-4.19c-8.4,4.36-16.54,3.05-22.09,14.32-2.59,5.26-3.57,11.17-3.05,17.02Z" fill="#7cd093" stroke="#002346" stroke-miterlimit="10"></path>
      <path d="M768.81,367.33c-23.25,.03-26.73-34.24-3.24-62.77,.08-.09,.23-.03,.21,.09-.93,9.72,27.62,44.57,8.91,60.53-1.64,1.4-3.73,2.15-5.89,2.15Z" fill="#7cd093" stroke="#002346" stroke-miterlimit="10"></path>
      <path d="M767.4,354.52c-14.67-8.71-11.36-34.81,32.11-50.22,.08-.03,.16,.05,.13,.13-.49,1.42-3.37,10.65-4.89,36.71-.4,6.95-10.33,23.48-27.36,13.37Z" fill="#7cd093" stroke="#002346" stroke-miterlimit="10"></path>
      <path d="M782.58,411.74c.66,5.13-34.15,5.14-33.49,0-.66-5.13,34.15-5.13,33.49,0Z" fill="#002346" stroke="#002346" stroke-miterlimit="10"></path>
      <path d="M783.96,457.22c-1.5-.23-39.84,.66-39.93-.71-7.55-3.58-7.88-15.27-7.88-15.27-1.14-15.6,12.94-23.98,12.94-23.98v-5.52c-.66,5.14,34.15,5.13,33.49,0v5.9c18.43,12.1,14.69,38.35,1.38,39.58Z" fill="#f69074" stroke="#002346" stroke-miterlimit="10"></path>
      <path d="M783.72,424.49c.04,2.96-4.61,2.96-4.57,0-.04-2.96,4.61-2.96,4.57,0Z" fill="#fff" stroke="#002346" stroke-miterlimit="10"></path>
      <path d="M790.57,431.34c.04,2.96-4.61,2.96-4.57,0-.04-2.96,4.61-2.96,4.57,0Z" fill="#fff" stroke="#002346" stroke-miterlimit="10"></path>
      <path d="M791.71,442.38c.04,2.96-4.61,2.96-4.57,0-.04-2.96,4.61-2.96,4.57,0Z" fill="#fff" stroke="#002346" stroke-miterlimit="10"></path>
      <path d="M785.63,450.75c.04,2.96-4.61,2.96-4.57,0-.04-2.96,4.61-2.96,4.57,0Z" fill="#fff" stroke="#002346" stroke-miterlimit="10"></path>
      <path d="M766.98,453.03c.04,2.96-4.61,2.96-4.57,0-.04-2.96,4.61-2.96,4.57,0Z" fill="#fff" stroke="#002346" stroke-miterlimit="10"></path>
      <path d="M752.51,450.75c.04,2.96-4.61,2.96-4.57,0-.04-2.96,4.61-2.96,4.57,0Z" fill="#fff" stroke="#002346" stroke-miterlimit="10"></path>
      <path d="M744.52,444.28c.04,2.96-4.61,2.96-4.57,0-.04-2.96,4.61-2.96,4.57,0Z" fill="#fff" stroke="#002346" stroke-miterlimit="10"></path>
      <path d="M745.66,431.34c.04,2.96-4.61,2.96-4.57,0-.04-2.96,4.61-2.96,4.57,0Z" fill="#fff" stroke="#002346" stroke-miterlimit="10"></path>
      <path d="M754.04,423.73c.04,2.96-4.61,2.96-4.57,0-.04-2.96,4.61-2.96,4.57,0Z" fill="#fff" stroke="#002346" stroke-miterlimit="10"></path>
      <path d="M761.65,430.58c.04,2.96-4.61,2.96-4.57,0-.04-2.96,4.61-2.96,4.57,0Z" fill="#fff" stroke="#002346" stroke-miterlimit="10"></path>
      <path d="M752.9,436.67c.04,2.96-4.61,2.96-4.57,0-.04-2.96,4.61-2.96,4.57,0Z" fill="#fff" stroke="#002346" stroke-miterlimit="10"></path>
      <path d="M760.51,444.28c.04,2.96-4.61,2.96-4.57,0-.04-2.96,4.61-2.96,4.57,0Z" fill="#fff" stroke="#002346" stroke-miterlimit="10"></path>
      <path d="M768.88,437.81c.04,2.96-4.61,2.96-4.57,0-.04-2.96,4.61-2.96,4.57,0Z" fill="#fff" stroke="#002346" stroke-miterlimit="10"></path>
      <path d="M770.4,424.87c.04,2.96-4.61,2.96-4.57,0-.04-2.96,4.61-2.96,4.57,0Z" fill="#fff" stroke="#002346" stroke-miterlimit="10"></path>
      <path d="M777.25,432.86c.04,2.96-4.61,2.96-4.57,0-.04-2.96,4.61-2.96,4.57,0Z" fill="#fff" stroke="#002346" stroke-miterlimit="10"></path>
      <path d="M782.58,438.19c.04,2.96-4.61,2.96-4.57,0-.04-2.96,4.61-2.96,4.57,0Z" fill="#fff" stroke="#002346" stroke-miterlimit="10"></path>
      <path d="M774.97,445.8c.04,2.96-4.61,2.96-4.57,0-.04-2.96,4.61-2.96,4.57,0Z" fill="#fff" stroke="#002346" stroke-miterlimit="10"></path>
      <path d="M803.13,386.05c-12.55-10.22-30.4,3.81-12.56,21.31,0,0,9.13,8.37,12.94,17.13,0,0,17.51-12.56,17.89-29.69,0,0,0-17.51-18.27-8.75Z" fill="#7cd093" stroke="#002346" stroke-miterlimit="10"></path>
      <path d="M696.59,383.93c19.72-34.76,28.14,.99,57.83-3.97,.45-39.97-57.39-38.29-57.83,3.97Z" fill="#7cd093" stroke="#002346" stroke-miterlimit="10"></path>
      <path d="M749.09,417.26s14.05,7.21,33.49,.38" fill="none" stroke="#002346" stroke-linecap="round" stroke-linejoin="round"></path>
      <path d="M769.36,398.82s8.27-34.73,29.32-17.89c2.96,2.37,4.82,5.85,5.72,9.54,1.39,5.7,3.17,16.09,.94,26.13" fill="none" stroke="#002346" stroke-linecap="round" stroke-linejoin="round"></path>
      <path d="M796.23,307.44s-38.87,28.12-25.63,104.19" fill="none" stroke="#002346" stroke-linecap="round" stroke-linejoin="round"></path>
      <path d="M711.89,361.19s51.27-.83,52.92,49.62" fill="none" stroke="#002346" stroke-linecap="round" stroke-linejoin="round"></path>
    </g>
  </g>
  <g>
    <rect x="667.31" y="2.28" width="145.71" height="201.1" transform="translate(637.34 842.99) rotate(-90)" fill="none" stroke="#2a2c45" stroke-linecap="round" stroke-linejoin="round"></rect>
    <rect x="674.12" y="10.8" width="132.08" height="183.21" transform="translate(637.76 842.57) rotate(-90)" fill="none" stroke="#2a2c45" stroke-linecap="round" stroke-linejoin="round"></rect>
    <path d="M652.16,36.76c-.13,1.69-.19,2.55-.19,4.28,0,34.59,25.56,62.63,57.09,62.63,31.53,0,57.09-28.04,57.09-62.63,0-1.58-.05-3.15-.16-4.7" fill="none" stroke="#2a2c45" stroke-linecap="round" stroke-linejoin="round"></path>
    <path d="M831.26,141.02s-48.49-25.84-78.31,27.85" fill="none" stroke="#2a2c45" stroke-linecap="round" stroke-linejoin="round"></path>
    <path d="M831.24,57.89s-13.49,51.7-87.16,64.07c-4,.67-8.04,1.04-12.1,1.22-16.81,.72-72.79,4.94-83.73,29.5" fill="none" stroke="#2a2c45" stroke-linecap="round" stroke-linejoin="round"></path>
    <ellipse cx="706.93" cy="71.72" rx="9.8" ry="19.17" fill="none" stroke="#2a2c45" stroke-linecap="round" stroke-linejoin="round"></ellipse>
    <ellipse cx="709.91" cy="71.72" rx="4.26" ry="7.24" fill="none" stroke="#2a2c45" stroke-linecap="round" stroke-linejoin="round"></ellipse>
    <ellipse cx="795.55" cy="65.76" rx="9.8" ry="19.17" fill="none" stroke="#2a2c45" stroke-linecap="round" stroke-linejoin="round"></ellipse>
    <ellipse cx="798.54" cy="65.76" rx="4.26" ry="7.24" fill="none" stroke="#2a2c45" stroke-linecap="round" stroke-linejoin="round"></ellipse>
    <ellipse cx="719.71" cy="147.56" rx="19.17" ry="9.8" fill="none" stroke="#2a2c45" stroke-linecap="round" stroke-linejoin="round"></ellipse>
    <ellipse cx="719.71" cy="150.55" rx="7.24" ry="4.26" fill="none" stroke="#2a2c45" stroke-linecap="round" stroke-linejoin="round"></ellipse>
  </g>
  <g>
    <circle cx="121.65" cy="77.47" r="47.5" fill="none" stroke="#2a2c45" stroke-linecap="round" stroke-linejoin="round"></circle>
    <circle cx="121.65" cy="77.47" r="40.83" fill="none" stroke="#2a2c45" stroke-linecap="round" stroke-linejoin="round"></circle>
    <polyline points="118.32 57.47 118.32 84.14 138.32 84.14" fill="none" stroke="#2a2c45" stroke-linecap="round" stroke-linejoin="round"></polyline>
  </g>
</svg>
