<?xml version="1.0" encoding="UTF-8"?>
<svg xmlns="http://www.w3.org/2000/svg" id="a" width="865.76" height="682.89" viewBox="0 0 865.76 682.89">
  <circle cx="699.32" cy="114.47" r="64.5" fill="#fff" stroke="#002346" stroke-miterlimit="10"></circle>
  <g>
    <g>
      <path d="M496.32,584.86c-4.49-.68-10.62,1.33-14.43,2.84-3.67,1.48-7.53,2.44-11.46,2.91-13.49,1.63-32.54,1.62-32.54,1.62-16.15,0-18.15-1.4-18.15-1.4-.83-.67-.89-1.36-.45-2.02,.84-1.29,3.56-2.5,6.14-3.41,4.71-1.65,9.22-3.84,13.52-6.4l20.08-11.9,3.38-2.05c.98-.59,2.21-.56,3.15,.09h0s5.43,3.75,5.43,3.75c0,0,6.75,3.25,12.77-1.2l6.61-4.5c.95-.09,1.81-.22,2.58-.4,.58,.56,1.12,1.82,1.39,4.3l1.99,17.74Z" fill="#f58f74" stroke="#002346" stroke-linecap="round" stroke-linejoin="round"></path>
      <path d="M494.33,593.43l-63.02,1s-17.25,.73-12.01-5.62c-.45,.66-.39,1.35,.45,2.02,0,0,2,1.4,18.15,1.4,0,0,19.05,0,32.54-1.62,3.93-.48,7.79-1.44,11.46-2.91,3.81-1.52,9.94-3.53,14.43-2.84,0,0,2.6,8.38-1.99,8.58Z" fill="#fff" stroke="#002346" stroke-miterlimit="10"></path>
      <path d="M490.37,563.21l-6.61,4.5c-6.02,4.45-12.77,1.2-12.77,1.2l-5.43-3.75v-3.72c5.49,.85,17.53,2.49,24.8,1.78Z" fill="#f0b1bf" stroke="#002346" stroke-miterlimit="10"></path>
      <path d="M367.44,229.08s-6.24-3.44-14.26,0c0,0-5.95,2.47-10.81,3.93,0,0-5.95-.24-3.52,4.74,0,0,.61,2.55,9.48-.73,0,0,3.77-1.46,1.58,3.28,0,0-2.31,7.06-14.7,15.74,0,0-3.4,2.61,0,4.31,0,0-2.19,5.22,4.01,3.64,0,0,4.12,3.04,11.35-3.04l9.78-7.09c.35-.26,.84-.23,1.16,.06h0c.41,.37,.41,1.02-.01,1.38-1.99,1.72-6.89,6.27-5.04,7.84,0,0,2.07,1.9,8.75-4.17,1.1-1,2.12-2.07,3.11-3.17,2.43-2.72,9.41-9.85,14.85-8.63,0,0,3.14-7.37-.97-12.71,0,0-3.66-5.42-14.76-5.38Z" fill="#f0b1bf" stroke="#002346" stroke-miterlimit="10"></path>
      <path d="M339.21,263.99s-.73-2.43,3.16-5.22c0,0,7.53-4.62,11.18-9.6" fill="none" stroke="#002346" stroke-linecap="round" stroke-linejoin="round"></path>
      <path d="M350.57,238.25s4.8,2.66,9.66,1.21" fill="none" stroke="#002346" stroke-linecap="round" stroke-linejoin="round"></path>
      <rect x="488.65" y="76.23" width="8" height="18.29" fill="#002346" stroke="#002346" stroke-miterlimit="10"></rect>
      <rect x="448.64" y="79.66" width="8" height="18.29" fill="#002346" stroke="#002346" stroke-miterlimit="10"></rect>
      <path d="M518.35,91.78l24.61,6.35-16.5,17.34c-6.43,6.76-15.51,10.53-24.8,9.81-4.11-.33-8.7-1.45-13.6-3.87l-18.74,.5-12.24,3.33c-4.34,4.69-16.03,10.74-22.14,13.71-2.04,1-4.16,1.8-6.29,2.59-18.32,6.72-27.26,33.66-27.26,33.66l-15.34,47.89c-.22,.72-.84,1.25-1.59,1.35l-14.74,1.24,5.4,29.85,22.05,.46c4.23,.09,8.39-1.45,11.33-4.49,2.12-2.2,3.85-5.32,3.75-9.66,0,0,.04,.11,.13,.31,.74,1.66,1.93,3.04,3.38,4.03,1.53,1.05,3.35,1.66,5.26,1.74,12.95,.51,67.07,1.67,101.99-12.45,0,0,11.46-3.81,9.77-30.56l.17-34.39,55.44-65.8s11.03-14.43,2.97-27.16c0,0-1.69-4.42-14.86-6.03l-51.37-5.44-6.78,25.7Z" fill="#f58f74" stroke="#002346" stroke-linecap="round" stroke-linejoin="round"></path>
      <ellipse cx="449.83" cy="94" rx="3.99" ry="4.62" transform="translate(-9.53 107.2) rotate(-13.45)" fill="#f0b1bf" stroke="#002346" stroke-miterlimit="10"></ellipse>
      <ellipse cx="494.42" cy="93.99" rx="4.62" ry="3.99" transform="translate(266.13 542.51) rotate(-73.79)" fill="#f0b1bf" stroke="#002346" stroke-miterlimit="10"></ellipse>
      <path d="M463.48,115.37v.93c0,2.07-.89,4.05-2.44,5.42l-3.96,3.5,11.89,3.25,3.82,17.85c.04,.18,.3,.15,.31-.03l.55-17.97,14.43-6.93-1.65-2.35c-.94-1.34-1.4-2.97-1.28-4.61l.31-4.5-21.96,5.43Z" fill="#f0b1bf" stroke="#002346" stroke-miterlimit="10"></path>
      <polyline points="451.68 129.9 461.93 138.22 468.96 128.48" fill="none" stroke="#002346" stroke-linecap="round" stroke-linejoin="round"></polyline>
      <polyline points="473.63 128.34 483.31 138.22 494.6 123.96" fill="none" stroke="#002346" stroke-linecap="round" stroke-linejoin="round"></polyline>
      <path d="M412.26,241.82s-5.07-10.48,1.44-29.03c0,0,6.52-18.55,5.51-38.1" fill="none" stroke="#002346" stroke-linecap="round" stroke-linejoin="round"></path>
      <path d="M473.79,149.41s.05,20.01-4.83,45.58c0,0-7.13,30.83-4.38,43.87" fill="none" stroke="#002346" stroke-linecap="round" stroke-linejoin="round"></path>
      <line x1="489.61" y1="161.06" x2="513.97" y2="156.89" fill="none" stroke="#002346" stroke-linecap="round" stroke-linejoin="round"></line>
      <path d="M532.95,170.5s3.83-20.64,8.09-26.15" fill="none" stroke="#002346" stroke-linecap="round" stroke-linejoin="round"></path>
      <line x1="542.97" y1="98.13" x2="565.06" y2="105.7" fill="none" stroke="#002346" stroke-linecap="round" stroke-linejoin="round"></line>
      <path d="M496.66,564.43l-12.17-67.75-7.63-50.49,35.96,101.69s4.64,8.39,14.41,7.35h0c1.17-.13,2.42-.39,3.73-.81,0,0,5.78-2.56,11.51-7.04h0c.24-.19,.49-.39,.72-.57,1.67-1.37,3.33-2.89,4.8-4.58,.19-.21,.37-.43,.55-.63,.05-.08,.12-.15,.18-.23,.17-.2,.33-.41,.49-.61,.48-.6,.92-1.23,1.33-1.88,.16-.23,.31-.47,.45-.71,.07-.11,.13-.22,.2-.34,.16-.28,.32-.56,.46-.85,.18-.35,.35-.69,.51-1.05h0c.73-1.66,1.23-3.42,1.4-5.25,.12-1.13,.1-2.3-.06-3.49l-31.67-124.18c-.67-2.64-.89-5.39-.65-8.1,1.69-19.48,8.48-103.95,2.91-151.66-.31-2.73-.66-5.34-1.07-7.81-34.93,14.12-89.05,12.96-101.99,12.45-1.91-.08-3.73-.69-5.26-1.74l-.57,7.88-8.06,111.53s-1.54,36.32,4.32,59.57c0,0,20.9,88.96,38.33,134.72l46.88,4.57Z" fill="#fbe493" stroke="#002346" stroke-miterlimit="10"></path>
      <path d="M476.86,446.2l-14.51-37.13c-2.41-6.17-3.48-12.77-3.16-19.39l3.71-74.8c.1-1.93-.72-3.79-2.2-5.03l-2-1.67" fill="none" stroke="#002346" stroke-linecap="round" stroke-linejoin="round"></path>
      <path d="M551.01,586.45s1.15,5.92-15.19,5.78c0,0-13.45,.22-15.67-2.84-.36-.49-.42-1.07-.09-1.74,0,0,.63-2.03,2.11-3.86,.87-1.09,1.43-2.39,1.62-3.76l3.44-24.78h0c1.17-.13,2.42-.39,3.73-.81,0,0,5.78-2.56,11.51-7.04,3.84-3.01,7.67-6.89,9.68-11.46,.1,.46,3.17,15.02-1.15,50.53Z" fill="#f58f74" stroke="#002346" stroke-linecap="round" stroke-linejoin="round"></path>
      <path d="M556.11,543.85c-1.2,16.15-2.8,42.4-2.8,42.4-.25,8.58-4.93,8.18-4.93,8.18h-22.53c-7.58-.8-5.7-5.04-5.7-5.04,2.22,3.06,15.67,2.84,15.67,2.84,16.34,.14,15.19-5.78,15.19-5.78,4.32-35.51,1.25-50.07,1.15-50.53h0c.73-1.66,1.23-3.42,1.4-5.25l.08-.06c3.62,5.23,2.48,13.24,2.48,13.24Z" fill="#fff" stroke="#002346" stroke-miterlimit="10"></path>
      <path d="M500.05,267.39s9.31,25.91,20.88,31.69" fill="none" stroke="#002346" stroke-linecap="round" stroke-linejoin="round"></path>
      <path d="M524.09,243.25c-60.22,17.88-108.9,10.79-108.9,10.79l.57-7.88c1.53,1.05,3.35,1.66,5.26,1.74,12.95,.51,67.07,1.67,101.99-12.45,.41,2.47,.76,5.07,1.07,7.81Z" fill="#fff" stroke="#002346" stroke-miterlimit="10"></path>
      <path d="M427.5,255.1v-7.75c0-1.8,1.46-3.26,3.26-3.26h0c1.8,0,3.26,1.46,3.26,3.26v8s-2.53,0-6.53-.25Z" fill="#fbe493" stroke="#002346" stroke-miterlimit="10"></path>
      <path d="M453.87,247.74v7.37s15.44-1.02,21.32-1.78l.29-7.22s-15.24,1.39-21.61,1.63Z" fill="#fbe493" stroke="#002346" stroke-miterlimit="10"></path>
      <path d="M500.05,249.28l-.79-6.91c-.14-1.23,.63-2.38,1.82-2.72h0c1.48-.42,3,.58,3.19,2.11l.83,6.43s-3.24,.72-5.06,1.09Z" fill="#fbe493" stroke="#002346" stroke-miterlimit="10"></path>
      <rect x="452.36" y="63.42" width="39.4" height="55.71" rx="19.7" ry="19.7" fill="#f0b1bf" stroke="#002346" stroke-miterlimit="10"></rect>
      <path d="M458.25,62.28s-18.57,5.89-7.93,12.91c0,0-4.16,5.2-1.26,7.87,1.04,.95,2.61,1.16,3.9,.58,1.36-.62,3.24-2.09,5.29-5.5,0,0,3.4,6.57,16.08-7.02,0,0,6.26,3.82,13.43,.1,0,0,4,5.11,4,11.9v5.66s6.02-.34,5.59-9.71c-.46-9.94-7.36-18.41-16.86-21.34-8.58-2.65-18.39-4.23-17.49,2.75,0,0-9.28-2.49-14.49,2.94,0,0,6.79-2.94,9.74-1.13Z" fill="#002346" stroke="#002346" stroke-miterlimit="10"></path>
      <rect x="59.38" y="471.67" width="304.89" height="20.87" transform="translate(693.93 270.28) rotate(90)" fill="#fff" stroke="#002346" stroke-miterlimit="10"></rect>
      <rect x="486.98" y="471.67" width="304.89" height="20.87" transform="translate(1121.53 -157.32) rotate(90)" fill="#fff" stroke="#002346" stroke-miterlimit="10"></rect>
      <rect x="125.45" y="296.67" width="593.48" height="34.13" rx="17.06" ry="17.06" fill="#fff" stroke="#002346" stroke-miterlimit="10"></rect>
      <rect x="193.79" y="176.16" width="158.78" height="102.65" rx="3.43" ry="3.43" transform="translate(546.37 454.98) rotate(-180)" fill="#fbe493" stroke="#002346" stroke-miterlimit="10"></rect>
      <line x1="333.36" y1="182.23" x2="208.96" y2="182.23" fill="none" stroke="#002346" stroke-linecap="round" stroke-linejoin="round"></line>
      <path d="M280.77,240.89h-30.85s-8.74,46.22-8.74,46.22c-.97,5.15,2.97,9.91,8.21,9.91h60.2s0,0,0,0c0-4.19-3.4-7.58-7.58-7.58h-6.68c-4.57,0-8.44-3.38-9.05-7.91l-5.5-40.63Z" fill="#95607a"></path>
      <path d="M280.77,240.89h-30.85s-8.74,46.22-8.74,46.22c-.97,5.15,2.97,9.91,8.21,9.91h60.2s0,0,0,0c0-4.19-3.4-7.58-7.58-7.58h-6.68c-4.57,0-8.44-3.38-9.05-7.91l-5.5-40.63Z" fill="#fff" stroke="#002346" stroke-miterlimit="10"></path>
      <path d="M335.42,235.87h-18.98c8.3-5.93,6.72-16.21,6.72-16.21h17.78s.01,9.09-5.52,16.21Z" fill="#f58f74" stroke="#002346" stroke-linecap="round" stroke-linejoin="round"></path>
      <path d="M251.69,219.67h-18.98c8.3-5.93,6.72-16.21,6.72-16.21h17.78s.01,9.09-5.52,16.21Z" fill="#f58f74" stroke="#002346" stroke-linecap="round" stroke-linejoin="round"></path>
      <path d="M230.15,211.56h-18.98c8.3-5.93,6.72-16.21,6.72-16.21h17.78s.01,9.09-5.52,16.21Z" fill="#f58f74" stroke="#002346" stroke-linecap="round" stroke-linejoin="round"></path>
      <g>
        <path d="M583.02,264.31h87.81c.65,0,1.18,.53,1.18,1.18v24.77c0,.65-.53,1.18-1.18,1.18h-87.81v-27.13h0Z" transform="translate(1255.02 555.75) rotate(-180)" fill="#fff" stroke="#002346" stroke-miterlimit="10"></path>
        <path d="M674.39,297.01h-90.35c-2.83,0-5.04-2.45-5.04-5.57v-25.58c0-3.13,2.21-5.57,5.04-5.57h90.35c2.22,0,4.02,1.8,4.02,4.02s-1.8,4.02-4.02,4.02h-87.35v20.65h87.35c2.22,0,4.02,1.8,4.02,4.02s-1.8,4.02-4.02,4.02Z" fill="#fbe493" stroke="#002346" stroke-miterlimit="10"></path>
      </g>
      <g>
        <path d="M591.02,227.72h87.81c.65,0,1.18,.53,1.18,1.18v24.77c0,.65-.53,1.18-1.18,1.18h-87.81v-27.13h0Z" transform="translate(1271.03 482.58) rotate(-180)" fill="#fff" stroke="#002346" stroke-miterlimit="10"></path>
        <path d="M682.39,260.43h-90.35c-2.83,0-5.04-2.45-5.04-5.57v-25.58c0-3.13,2.21-5.57,5.04-5.57h90.35c2.22,0,4.02,1.8,4.02,4.02s-1.8,4.02-4.02,4.02h-87.35v20.65h87.35c2.22,0,4.02,1.8,4.02,4.02s-1.8,4.02-4.02,4.02Z" fill="#f58f74" stroke="#002346" stroke-linecap="round" stroke-linejoin="round"></path>
      </g>
      <ellipse cx="462.8" cy="90.89" rx="1.31" ry="2.3" transform="translate(-4.6 27.82) rotate(-3.43)" fill="#002346" stroke="#002346" stroke-miterlimit="10"></ellipse>
      <ellipse cx="478.97" cy="90.97" rx="1.31" ry="2.3" transform="translate(-4.58 28.78) rotate(-3.43)" fill="#002346" stroke="#002346" stroke-miterlimit="10"></ellipse>
      <path d="M470.48,90.59l-1.86,10.01c-.13,.54,.33,1.04,.88,.96l3.15-.18" fill="none" stroke="#002346" stroke-linecap="round" stroke-linejoin="round"></path>
      <path d="M460.4,85.04s2.32-2.57,5.31-.28" fill="none" stroke="#002346" stroke-linecap="round" stroke-linejoin="round"></path>
      <path d="M475.36,85.28s2.32-2.57,5.31-.28" fill="none" stroke="#002346" stroke-linecap="round" stroke-linejoin="round"></path>
      <path d="M474.55,111.06c-1.6-.4-4.31-.78-7,.21-.52,.19-.97-.39-.69-.86,1.38-2.37,4.49-6.04,8.33-.24,.29,.44-.12,1.02-.63,.89Z" fill="#fff" stroke="#002346" stroke-miterlimit="10"></path>
      <path d="M522.95,75.09l-19.8-3.16c-1.48-.24-2.76-1.19-3.36-2.56-1.13-2.6-3.88-7.02-10.19-10.23,0,0-14.69-7.05-11.09-.77l3.92,1.43s-1.4,1.82,3.79,4.86c0,0,4.25,2.3,5.66,11.2,0,0,1.13,7.52,8.35,10.47l18.11,5.44s1.75-6.96,4.61-16.68Z" fill="#f0b1bf" stroke="#002346" stroke-miterlimit="10"></path>
      <path d="M482.44,59.8s6.39-.52,12.16,8.96" fill="none" stroke="#002346" stroke-linecap="round" stroke-linejoin="round"></path>
      <path d="M449,92.98s-.13,1.38,.61,2.12" fill="none" stroke="#002346" stroke-linecap="round" stroke-linejoin="round"></path>
      <path d="M495.34,92.98s.13,1.38-.61,2.12" fill="none" stroke="#002346" stroke-linecap="round" stroke-linejoin="round"></path>
      <g>
        <path d="M102.41,401.98c1.83-8.78,8.97-15.5,17.84-17.79,12.54-3.24,33.15-2.78,49.99,25.4,0,0,15.73,24.91,6.52,61.03,0,0-1.89-18.34-31.52-31.47-3.27-1.45-6.66-2.64-10.09-3.68-9.26-2.8-36.99-12.99-32.73-33.5Z" fill="#7ccf92" stroke="#002346" stroke-miterlimit="10"></path>
        <path d="M208.64,371.3c-4.01,.75-7.69,2.8-10.13,5.99-4.77,6.22-8.37,19.27,3.89,45.42,0,0,18.08,37.3-11.48,81.81,0,0,47.69-20.79,59.73-64.78,4.17-15.23,2.97-31.48-3.74-45.81-6.07-12.97-17.49-26.5-38.26-22.63Z" fill="#7ccf92" stroke="#002346" stroke-miterlimit="10"></path>
        <path d="M181.96,564.14s-23.13-33.35,16.79-67.08c.9-.76,1.82-1.48,2.75-2.2,7.53-5.83,52.95-44.18,21.68-97.87" fill="none" stroke="#002346" stroke-linecap="round" stroke-linejoin="round"></path>
        <path d="M148.56,410.13s42.24,27.31,23.91,75.55c0,0-20.39,49.26,1.25,77.45" fill="none" stroke="#002346" stroke-linecap="round" stroke-linejoin="round"></path>
        <path d="M92.94,487.53c.05-5.56,3.6-10.49,8.74-12.89,7.25-3.37,19.85-5.41,33.39,9.89,0,0,12.27,13.2,11.08,35.87,0,.11-.17,.15-.21,.04-.89-2.16-5.54-11.05-22.65-15.16-2.15-.52-4.35-.86-6.55-1.11-5.94-.67-23.91-3.78-23.8-16.64Z" fill="#7ccf92" stroke="#002346" stroke-miterlimit="10"></path>
        <path d="M219.06,514.8s28.87-22.48,59.26-.67c0,0,14.05,10.35,10.34,21.34-1.48,4.38-5.54,7.41-10.19,8.17-6.07,1-16.39,.69-27.48-8.43,0,0-24.66-18.47-31.93-20.42Z" fill="#7ccf92" stroke="#002346" stroke-miterlimit="10"></path>
        <path d="M188.66,563.63s4.12-69.48,72.14-47.32" fill="none" stroke="#002346" stroke-linecap="round" stroke-linejoin="round"></path>
        <polygon points="207.21 635.12 143.32 635.12 139.2 561.62 211.33 561.62 207.21 635.12" fill="#fff" stroke="#002346" stroke-miterlimit="10"></polygon>
        <path d="M141.26,591.32c4.18-1.96,10.45-4.18,18.03-4.03,7.4,.15,12.07,2.49,17.01,4.03,7.11,2.22,17.8,3.72,32.97,0" fill="none" stroke="#002346" stroke-linecap="round" stroke-linejoin="round"></path>
        <path d="M141.26,600.39c4.18-1.96,10.45-4.18,18.03-4.03,7.4,.15,12.07,2.49,17.01,4.03,7.11,2.22,17.8,3.72,32.97,0" fill="none" stroke="#002346" stroke-linecap="round" stroke-linejoin="round"></path>
        <path d="M121.68,491.14s27.82,11.08,35.04,70.48" fill="none" stroke="#002346" stroke-linecap="round" stroke-linejoin="round"></path>
      </g>
    </g>
    <path d="M592.25,555.63c1.25,1.89,2.44,3.5,3.47,4.76,6.05,7.46,10.44,16.19,12.57,25.57,4.1,17.99,2.8,36.8,2.8,36.8-10.19,0-13.43,4.25-14.23,8.23-.29,1.45-.25,2.87-.11,4.03,.19,1.65,1.59,2.89,3.25,2.98,11.54,.55,18.33-.69,21.8-1.74,5.23-1.58,5.3-40.35,5.3-40.35,0,0,.29-5.74,.41-7.94,.03-.38,.47-.59,.78-.38,12.73,8.63,21.24,17.99,24.19,21.44,.99,1.17,1.77,2.51,2.07,4.02,1.58,7.55-7.42,12.01-10.73,13.38-1.23,.51-2.41,1.14-3.47,1.96-3.27,2.52-3.16,4.66-2.36,6.11,.69,1.26,1.91,1.99,1.91,1.99l.35,.28c2.23,1.78,4.7,3.27,7.38,4.25,3.61,1.33,6.09,1.2,9.44-.45,5.16-2.54,8.9-6.83,8.9-6.83,27.44,15.09,43.91-8.23,43.91-8.23,27.92-3.02,37.99-18.07,41.41-31.01,3.09-11.69,1.14-24.08-4.45-34.81-8.64-16.62-21.6-21.42-28.37-22.8-1.06-.22-1.66,1.19-.78,1.81,5.17,3.65,9.38,8.03,12.64,12.09,6.83,8.51,11.1,18.91,11.32,29.81,.58,28.81-27.65,29.81-27.65,29.81-.97-16.64-9.65-27-14.53-31.57-5.8-5.43-11.02-11.46-15.67-17.92-5.76-8.01-11.02-16.59-15.48-24.46-12.2-21.58-17.77-46.27-16-70.98,.77-10.61,1.85-19.95,2.37-24.18,.33-2.65,.27-5.35-.36-7.94-2.04-8.34-8.44-13.61-13.16-16.46-2.98-1.81-6.45-2.63-9.92-2.44l-12.84,.71c-4.64,.26-8.92,2.58-11.66,6.34l-8.89,12.1c-1.22,1.67-2.84,3.03-4.69,3.97l-3.62,1.81c-2.84,1.41-4.4,4.51-3.86,7.64,1.28,7.26,4.83,19.32,14.42,19.32h12.45c.62,0,1.05,.63,.81,1.2-3.33,7.95-16.39,27.09-20.34,32.83-.8,1.14-1.58,2.28-2.28,3.47-13.19,22.28-5.27,41.45,1.5,51.78Z" fill="#fff" stroke="#002346" stroke-miterlimit="10"></path>
    <path d="M651.88,475.15s-16.86,10.2-43.92,2.07l-4.14,7.04s26.58,11.32,48.48-1.24l-.41-7.87Z" fill="#fbe493" stroke="#002346" stroke-miterlimit="10"></path>
    <path d="M628.51,625.04c-.76,5.65,8.38,9.06,9.48,9.45-.8-1.44-.91-3.58,2.36-6.11,1.06-.82,2.24-1.45,3.47-1.96,3.31-1.37,12.31-5.83,10.73-13.38-.3-1.51-1.08-2.85-2.07-4.02-2.91-3.42-11.24-12.59-23.73-21.12-.27-.18-.61,.13-.44,.41,2.89,4.69,13.16,21.51,14.33,26.22,1.02,4.08-6.3,5.88-10.12,6.54-2.04,.35-3.74,1.92-4.01,3.97Z" fill="#fff" stroke="#002346" stroke-miterlimit="10"></path>
    <path d="M588.59,631h8.27c.8-3.98,4.03-8.23,14.23-8.23,0,0,1.3-18.81-2.8-36.8-2.13-9.38-6.52-18.11-12.57-25.57-1.03-1.26-2.22-2.87-3.47-4.76h-.08s6.57,16.37,6.57,27.34l2.74,37.04s-12.5,1.14-14.75,8.58c-.36,1.2,.6,2.39,1.85,2.39Z" fill="#fff" stroke="#002346" stroke-miterlimit="10"></path>
    <path d="M664.6,425.19s5.49,4.12,2.74,13.72c0,0-2.74,12.35-1.37,21.95,0,0,1.37,9.6-8.23,5.49,0,0-17.41-10.71-16.51-37.43,.02-.6-.24-1.17-.73-1.51-2.4-1.73-9.3-7.46-4.72-13.19,0,0,6.86-6.86,19.21,2.74l9.6,8.23Z" fill="#e5e5e5" stroke="#002346" stroke-miterlimit="10"></path>
    <path d="M593.17,437.58c1.85-.93,3.47-2.29,4.69-3.97l8.89-12.1c2.74-3.76,7.02-6.08,11.66-6.34,0,0-23.96-3.62-25.25,22.41Z" fill="#e5e5e5" stroke="#002346" stroke-miterlimit="10"></path>
    <ellipse cx="622.06" cy="434.11" rx="2.74" ry="3.43" fill="#002346" stroke="#002346" stroke-miterlimit="10"></ellipse>
    <ellipse cx="604.23" cy="429.99" rx="3.43" ry="2.74" transform="translate(56.12 929.56) rotate(-77.78)" fill="#002346" stroke="#002346" stroke-miterlimit="10"></ellipse>
    <path d="M596.85,444.4h-6.9c-1,0-1.66,1.06-1.21,1.96l2.3,4.6c.41,.82,1.51,1,2.16,.35l4.6-4.6c.85-.85,.25-2.31-.96-2.31Z" fill="#002346" stroke="#002346" stroke-miterlimit="10"></path>
  </g>
  <g>
    <circle cx="663.08" cy="90.01" r="10.48" fill="#f58f74" stroke="#002346" stroke-linecap="round" stroke-linejoin="round"></circle>
    <polyline points="658.54 89.66 662.03 93.15 667.62 86.87" fill="none" stroke="#002346" stroke-linecap="round" stroke-linejoin="round"></polyline>
    <circle cx="663.08" cy="113.42" r="10.48" fill="#f58f74" stroke="#002346" stroke-linecap="round" stroke-linejoin="round"></circle>
    <polyline points="658.54 113.07 662.03 116.56 667.62 110.27" fill="none" stroke="#002346" stroke-linecap="round" stroke-linejoin="round"></polyline>
    <circle cx="663.08" cy="137.17" r="10.48" fill="#f58f74" stroke="#002346" stroke-linecap="round" stroke-linejoin="round"></circle>
    <polyline points="658.54 136.82 662.03 140.32 667.62 134.03" fill="none" stroke="#002346" stroke-linecap="round" stroke-linejoin="round"></polyline>
    <rect x="684.04" y="80.93" width="64.28" height="18.17" rx="3.23" ry="3.23" fill="#fbe493" stroke="#002346" stroke-miterlimit="10"></rect>
    <line x1="694.87" y1="90.01" x2="737.49" y2="90.01" fill="none" stroke="#002346" stroke-linecap="round" stroke-linejoin="round"></line>
    <rect x="684.04" y="104.33" width="64.28" height="18.17" rx="3.23" ry="3.23" fill="#fbe493" stroke="#002346" stroke-miterlimit="10"></rect>
    <line x1="694.87" y1="113.42" x2="737.49" y2="113.42" fill="none" stroke="#002346" stroke-linecap="round" stroke-linejoin="round"></line>
    <rect x="683.34" y="128.09" width="64.28" height="18.17" rx="3.23" ry="3.23" fill="#fbe493" stroke="#002346" stroke-miterlimit="10"></rect>
    <line x1="694.17" y1="137.17" x2="736.79" y2="137.17" fill="none" stroke="#002346" stroke-linecap="round" stroke-linejoin="round"></line>
  </g>
  <circle cx="699.32" cy="114.47" r="73.5" fill="none" stroke="#002346" stroke-linecap="round" stroke-linejoin="round"></circle>
  <circle cx="162.32" cy="130.47" r="17.5" fill="#f58f74" stroke="#002346" stroke-linecap="round" stroke-linejoin="round"></circle>
  <polyline points="155.32 130.47 159.32 135.47 169.32 125.47" fill="none" stroke="#002346" stroke-linecap="round" stroke-linejoin="round"></polyline>
</svg>
