<?xml version="1.0" encoding="UTF-8"?>
<svg xmlns="http://www.w3.org/2000/svg" id="a" width="865.76" height="682.89" viewBox="0 0 865.76 682.89">
  <g>
    <g>
      <g>
        <rect x="344.82" y="154.91" width="242.64" height="469.06" rx="29.41" ry="29.41" fill="#e6e7e8"></rect>
        <path d="M558.04,624.48h-183.81c-16.5,0-29.92-13.42-29.92-29.91V184.33c0-16.5,13.42-29.92,29.92-29.92h183.81c16.5,0,29.91,13.42,29.91,29.92v410.23c0,16.5-13.42,29.91-29.91,29.91ZM374.23,155.41c-15.94,0-28.92,12.97-28.92,28.92v410.23c0,15.94,12.97,28.91,28.92,28.91h183.81c15.94,0,28.91-12.97,28.91-28.91V184.33c0-15.94-12.97-28.92-28.91-28.92h-183.81Z" fill="#231f20"></path>
      </g>
      <g>
        <rect x="350.56" y="160.88" width="231.15" height="457.12" rx="28.34" ry="28.34" fill="#fff"></rect>
        <path d="M553.37,618.51h-174.47c-15.9,0-28.84-12.94-28.84-28.84V189.23c0-15.9,12.94-28.84,28.84-28.84h174.47c15.9,0,28.84,12.94,28.84,28.84v400.44c0,15.9-12.94,28.84-28.84,28.84ZM378.9,161.38c-15.35,0-27.84,12.49-27.84,27.84v400.44c0,15.35,12.49,27.84,27.84,27.84h174.47c15.35,0,27.84-12.49,27.84-27.84V189.23c0-15.35-12.49-27.84-27.84-27.84h-174.47Z" fill="#231f20"></path>
      </g>
      <g>
        <circle cx="465.8" cy="354.3" r="4.73" fill="#fff"></circle>
        <path d="M465.8,359.53c-2.88,0-5.23-2.35-5.23-5.23s2.35-5.23,5.23-5.23,5.23,2.35,5.23,5.23-2.35,5.23-5.23,5.23Zm0-9.46c-2.33,0-4.23,1.9-4.23,4.23s1.9,4.23,4.23,4.23,4.23-1.9,4.23-4.23-1.9-4.23-4.23-4.23Z" fill="#231f20"></path>
      </g>
      <g>
        <circle cx="465.8" cy="325.91" r="4.73" fill="#fff"></circle>
        <path d="M465.8,331.14c-2.88,0-5.23-2.35-5.23-5.23s2.35-5.23,5.23-5.23,5.23,2.35,5.23,5.23-2.35,5.23-5.23,5.23Zm0-9.46c-2.33,0-4.23,1.9-4.23,4.23s1.9,4.23,4.23,4.23,4.23-1.9,4.23-4.23-1.9-4.23-4.23-4.23Z" fill="#231f20"></path>
      </g>
      <g>
        <circle cx="465.8" cy="296.17" r="4.73" fill="#fff"></circle>
        <path d="M465.8,301.41c-2.88,0-5.23-2.35-5.23-5.23s2.35-5.23,5.23-5.23,5.23,2.35,5.23,5.23-2.35,5.23-5.23,5.23Zm0-9.46c-2.33,0-4.23,1.9-4.23,4.23s1.9,4.23,4.23,4.23,4.23-1.9,4.23-4.23-1.9-4.23-4.23-4.23Z" fill="#231f20"></path>
      </g>
      <g>
        <circle cx="460.39" cy="251.57" r="27.71" fill="#231f20"></circle>
        <path d="M460.39,279.78c-15.56,0-28.21-12.66-28.21-28.21s12.66-28.21,28.21-28.21,28.21,12.66,28.21,28.21-12.66,28.21-28.21,28.21Zm0-55.42c-15,0-27.21,12.21-27.21,27.21s12.21,27.21,27.21,27.21,27.21-12.21,27.21-27.21-12.21-27.21-27.21-27.21Z" fill="#231f20"></path>
      </g>
      <g>
        <circle cx="471.21" cy="251.57" r="27.71" fill="#a6dced"></circle>
        <path d="M471.21,279.78c-15.56,0-28.21-12.66-28.21-28.21s12.66-28.21,28.21-28.21,28.21,12.66,28.21,28.21-12.66,28.21-28.21,28.21Zm0-55.42c-15,0-27.21,12.21-27.21,27.21s12.21,27.21,27.21,27.21,27.21-12.21,27.21-27.21-12.21-27.21-27.21-27.21Z" fill="#231f20"></path>
      </g>
      <g>
        <path d="M522.38,216.19c5.3-4.06,6.55-11.56,2.81-17.09-12.38-18.27-37.8-33.37-65.47-33.37s-51.49,12.27-63.93,30.4c-4.39,6.4-2.83,15.14,3.51,19.61h0c5.96,4.2,14.03,3.1,18.88-2.33,10.54-11.81,26.15-19.29,43.57-19.29s33.24,9.65,43.75,20.72c4.46,4.7,11.74,5.31,16.88,1.36h0Z" fill="#231f20"></path>
        <path d="M514.7,219.3c-3.5,0-6.98-1.4-9.57-4.13-9.43-9.94-25.78-20.56-43.38-20.56-16.61,0-32.35,6.97-43.19,19.12-5.05,5.66-13.45,6.7-19.54,2.41-6.53-4.6-8.16-13.71-3.63-20.3,12.96-18.88,37.61-30.61,64.34-30.61,29.79,0,54.55,16.87,65.88,33.59,3.88,5.73,2.6,13.54-2.92,17.77h0c-2.37,1.82-5.18,2.71-7.98,2.71Zm-52.96-25.69c17.92,0,34.53,10.78,44.11,20.87,4.3,4.54,11.28,5.1,16.22,1.31l.3,.4-.3-.4c5.1-3.91,6.29-11.12,2.7-16.42-11.18-16.5-35.63-33.15-65.05-33.15-26.4,0-50.74,11.56-63.52,30.18-4.22,6.15-2.7,14.63,3.39,18.92,5.67,4,13.5,3.03,18.22-2.26,11.03-12.36,27.05-19.45,43.94-19.45Z" fill="#231f20"></path>
      </g>
      <g>
        <path d="M533.19,216.19c5.3-4.06,6.55-11.56,2.81-17.09-12.38-18.27-37.8-33.37-65.47-33.37s-51.49,12.27-63.93,30.4c-4.39,6.4-2.83,15.14,3.51,19.61h0c5.96,4.2,14.03,3.1,18.88-2.33,10.54-11.81,26.15-19.29,43.57-19.29s33.24,9.65,43.75,20.72c4.46,4.7,11.74,5.31,16.88,1.36h0Z" fill="#a6dced"></path>
        <path d="M525.51,219.31c-3.5,0-6.98-1.4-9.57-4.13-9.43-9.94-25.78-20.56-43.38-20.56-16.61,0-32.35,6.97-43.19,19.12-5.05,5.66-13.45,6.7-19.54,2.41-6.53-4.6-8.16-13.71-3.63-20.3,12.96-18.88,37.61-30.61,64.34-30.61,29.79,0,54.55,16.87,65.88,33.59,3.88,5.73,2.6,13.54-2.92,17.77h0c-2.37,1.82-5.18,2.71-7.98,2.71Zm-52.96-25.69c17.92,0,34.53,10.78,44.11,20.87,4.3,4.54,11.27,5.1,16.22,1.31l.3,.4-.3-.4c5.1-3.91,6.29-11.12,2.7-16.42-11.18-16.5-35.63-33.15-65.05-33.15-26.4,0-50.74,11.56-63.52,30.18-4.22,6.15-2.7,14.63,3.39,18.92,5.67,4,13.5,3.03,18.22-2.26,11.03-12.36,27.05-19.45,43.94-19.45Z" fill="#231f20"></path>
      </g>
      <g>
        <path d="M361.11,180.48c7.16,2.84,15.14-.38,18.71-7.21,10.87-20.83,43.13-35.93,81.25-35.93s71.82,15.78,81.94,37.33c3.02,6.43,10.39,9.59,17.22,7.66h0c9.29-2.62,13.71-13.37,8.74-21.65-17.22-28.68-59.96-51.72-107.91-51.72-50.4,0-93.13,21.5-107.96,51.25-3.84,7.7-.14,17.05,7.86,20.22l.15,.06Z" fill="#231f20"></path>
        <path d="M556.12,183.4c-5.73,0-11.06-3.2-13.56-8.52-10.25-21.81-43.76-37.04-81.49-37.04s-69.68,14.33-80.81,35.66c-3.72,7.14-12.03,10.34-19.33,7.45h0l-.15-.06c-3.99-1.58-7.15-4.78-8.69-8.79-1.53-4-1.33-8.3,.57-12.11,15.37-30.82,58.94-51.53,108.41-51.53,45.42,0,89.96,21.37,108.33,51.97,2.42,4.03,2.81,8.87,1.06,13.28-1.78,4.48-5.46,7.8-10.09,9.11-1.42,.4-2.85,.59-4.25,.59Zm-95.05-46.56c38.1,0,71.99,15.47,82.39,37.62,2.9,6.18,9.9,9.29,16.64,7.39,4.33-1.22,7.77-4.33,9.43-8.52,1.63-4.11,1.27-8.63-.99-12.4-18.2-30.31-62.39-51.48-107.48-51.48-49.11,0-92.31,20.49-107.52,50.98-1.77,3.55-1.96,7.57-.53,11.31,1.43,3.75,4.39,6.74,8.12,8.22l.15,.06c6.82,2.7,14.59-.3,18.08-6.98,11.3-21.65,44.12-36.2,81.69-36.2Z" fill="#231f20"></path>
      </g>
      <g>
        <path d="M370.58,183.19c7.16,2.84,15.14-.38,18.71-7.21,10.87-20.83,43.13-35.93,81.25-35.93s71.82,15.78,81.94,37.33c3.02,6.43,10.39,9.59,17.22,7.66h0c9.29-2.62,13.71-13.37,8.74-21.65-17.22-28.68-59.96-51.72-107.91-51.72-50.4,0-93.13,21.5-107.96,51.25-3.84,7.7-.14,17.05,7.86,20.22l.15,.06Z" fill="#a6dced"></path>
        <path d="M565.58,186.11c-5.73,0-11.06-3.2-13.56-8.52-10.25-21.81-43.76-37.04-81.49-37.04s-69.68,14.33-80.81,35.66c-3.72,7.14-12.03,10.34-19.33,7.45l-.15-.06c-3.99-1.58-7.15-4.78-8.69-8.79-1.53-4-1.33-8.3,.57-12.11,15.37-30.82,58.94-51.53,108.41-51.53,45.42,0,89.96,21.37,108.33,51.97,2.42,4.03,2.81,8.87,1.06,13.28-1.78,4.48-5.46,7.8-10.09,9.11-1.42,.4-2.85,.59-4.25,.59Zm-95.05-46.56c38.1,0,71.99,15.47,82.39,37.62,2.9,6.18,9.9,9.29,16.64,7.39,4.33-1.22,7.77-4.33,9.43-8.52,1.63-4.11,1.27-8.63-.99-12.4-18.2-30.31-62.39-51.48-107.48-51.48-49.1,0-92.31,20.49-107.52,50.98-1.77,3.55-1.96,7.57-.53,11.31,1.43,3.75,4.39,6.74,8.12,8.22l.15,.06c6.82,2.7,14.59-.3,18.08-6.98,11.3-21.65,44.12-36.2,81.69-36.2Z" fill="#231f20"></path>
      </g>
      <g>
        <path d="M605.89,141.31c6.4-4.49,8.35-13.04,4.67-19.93-21.49-40.27-80.61-69.19-150.17-69.19s-128.65,28.91-150.16,69.16c-4.05,7.59-.9,17.03,6.8,20.87h0c6.93,3.45,15.28,1.17,19.65-5.23,22.84-33.47,69.66-56.41,123.7-56.41s101.17,23.09,123.93,56.74c4.82,7.13,14.53,8.94,21.57,4h0Z" fill="#231f20"></path>
        <path d="M597.11,144.6c-.96,0-1.93-.09-2.9-.27-4.23-.78-7.89-3.17-10.3-6.74-23.58-34.86-70.91-56.52-123.51-56.52s-99.63,21.53-123.29,56.19c-4.5,6.59-13.22,8.91-20.29,5.4-3.9-1.94-6.78-5.3-8.1-9.45-1.3-4.07-.92-8.37,1.08-12.1,22.19-41.52,82.71-69.42,150.6-69.42s128.44,27.91,150.62,69.46c3.8,7.13,1.73,15.97-4.83,20.58-2.7,1.9-5.84,2.88-9.07,2.88Zm-136.72-64.53c52.93,0,100.58,21.83,124.34,56.96,2.26,3.35,5.69,5.59,9.66,6.32,3.94,.73,7.93-.14,11.21-2.45l.29,.41-.29-.41c6.14-4.31,8.09-12.61,4.52-19.29-22.01-41.23-82.18-68.93-149.73-68.93s-127.69,27.69-149.71,68.89c-1.87,3.5-2.23,7.52-1.01,11.33,1.24,3.89,3.94,7.04,7.6,8.86,6.62,3.3,14.79,1.12,19.02-5.07,23.84-34.93,71.4-56.63,124.11-56.63Z" fill="#231f20"></path>
      </g>
      <g>
        <path d="M614,142.66c6.4-4.49,8.35-13.04,4.67-19.93-21.49-40.27-80.61-69.19-150.17-69.19s-128.65,28.91-150.16,69.16c-4.05,7.59-.9,17.03,6.8,20.87h0c6.93,3.45,15.28,1.17,19.65-5.23,22.84-33.47,69.66-56.41,123.7-56.41s101.17,23.09,123.93,56.74c4.82,7.13,14.53,8.94,21.57,4h0Z" fill="#a6dced"></path>
        <path d="M605.22,145.95c-.96,0-1.93-.09-2.9-.27-4.23-.78-7.89-3.17-10.3-6.74-23.58-34.86-70.91-56.52-123.51-56.52s-99.63,21.53-123.29,56.19c-4.5,6.6-13.22,8.92-20.29,5.4-3.9-1.94-6.78-5.3-8.1-9.45-1.3-4.07-.92-8.37,1.08-12.1,22.19-41.52,82.71-69.42,150.6-69.42s128.44,27.91,150.61,69.46c3.8,7.13,1.73,15.97-4.83,20.58-2.7,1.9-5.84,2.88-9.07,2.88Zm-136.72-64.53c52.93,0,100.58,21.83,124.34,56.96,2.26,3.35,5.69,5.59,9.66,6.32,3.95,.73,7.93-.14,11.21-2.45l.29,.41-.29-.41c6.14-4.31,8.09-12.61,4.52-19.29-22.01-41.23-82.18-68.93-149.73-68.93s-127.69,27.69-149.71,68.89c-1.87,3.5-2.23,7.52-1.01,11.33,1.24,3.89,3.94,7.04,7.59,8.86,6.62,3.3,14.79,1.12,19.02-5.07,23.84-34.93,71.4-56.63,124.12-56.63Z" fill="#231f20"></path>
      </g>
      <g>
        <g>
          <path d="M553.28,482.14c0,4.07-.28,8.07-.82,11.99h0c-5.84,42.54-42.33,75.3-86.46,75.3-17.37,0-33.55-5.07-47.15-13.82-3.6-2.31-7.02-4.88-10.22-7.68-15.16-13.23-25.7-31.61-28.9-52.41-.67-4.36-1.02-8.82-1.02-13.37,0-20.19,6.85-38.78,18.37-53.57,2.24-2.88,4.66-5.61,7.24-8.18h0c5.04-5.04,10.7-9.46,16.84-13.14,13.11-7.87,28.44-12.39,44.84-12.39,23.71,0,45.21,9.45,60.94,24.8,16.25,15.85,26.34,37.99,26.34,62.49Z" fill="#a6dced"></path>
          <path d="M465.99,569.92c-16.89,0-33.28-4.81-47.42-13.9-3.59-2.3-7.05-4.9-10.28-7.73-15.61-13.63-25.93-32.35-29.06-52.71-.68-4.42-1.02-8.94-1.02-13.44,0-19.73,6.39-38.35,18.47-53.87,2.2-2.83,4.6-5.54,7.13-8.08h0s.15-.15,.15-.15c5.09-5.08,10.79-9.52,16.94-13.21,13.58-8.15,29.17-12.46,45.1-12.46,23.04,0,44.8,8.86,61.29,24.94,17.08,16.67,26.49,38.99,26.49,62.84,0,4.05-.28,8.1-.83,12.06-5.93,43.18-43.31,75.73-86.96,75.73Zm-61.19-149.33l-.14,.15c-2.56,2.55-4.98,5.29-7.2,8.14-11.95,15.34-18.26,33.76-18.26,53.26,0,4.45,.34,8.92,1.01,13.29,3.09,20.13,13.3,38.64,28.73,52.11,3.19,2.79,6.61,5.36,10.16,7.64,13.97,8.99,30.19,13.74,46.88,13.74,43.15,0,80.11-32.18,85.97-74.86,.54-3.91,.82-7.92,.82-11.92,0-23.59-9.3-45.65-26.19-62.13-16.3-15.9-37.82-24.66-60.59-24.66-15.75,0-31.16,4.26-44.58,12.32-6.03,3.61-11.61,7.96-16.61,12.92Z" fill="#231f20"></path>
        </g>
        <g>
          <path d="M553.28,482.14c0,4.07-.28,8.07-.82,11.99h0s-6.25,.79-6.25,.79l-1.09,10.33h-3.26l-9.25-16.31-9.25-1.09-7.61-7.07-4.73,1.36,3.64,5.71,3.81,.54,2.18,3.81-11.42,8.16-8.7-10.33,4.89,13.6,9.79-1.63,2.18,2.18-13.6,14.14,2.18,6.53-11.42,20.67-7.07-1.09-5.98-15.77,2.18-4.89-4.89-13.05-15.23-1.63-7.07-7.61-2.18-8.7,7.61-11.65,16.21-2.21,2.46,3.26,16.68,.82,1.01-4.08-6.99-1.36v-6.53h-7.61v4.35h-3.26v-4.89h-5.44l-7.29,6.29h-5.76v-7.68h6.25l.82-3.5-4.89-7.07,.54-2.72,7.61,4.35,2.72-2.72h8.16c1.09-6.53,5.44-7.07,5.44-7.07l-2.72-5.98-4.35,2.18,1.09,5.98-2.18,1.63-5.44-1.6v-7.64l5.98-4.68v-4.02l8.7-3.26,6.53,5.44-2.72,1.63,2.72,3.26,11.96-9.79,5.98,1.96v-10.66l12.81-5.11c16.25,15.85,26.34,37.99,26.34,62.49Z" fill="#fff"></path>
          <path d="M494.81,546.04l-7.7-1.19-6.16-16.24,2.18-4.9-4.71-12.57-15.11-1.62-7.29-7.84-2.26-9.04,7.86-12.03,16.72-2.28,2.5,3.31,16.03,.78,.78-3.17-6.88-1.34v-6.44h-6.61v4.35h-4.26v-4.89h-4.75l-7.29,6.29h-6.45v-8.68h6.36l.68-2.9-4.89-7.06,.72-3.61,7.88,4.51,2.6-2.6h7.95c.98-5.02,3.85-6.5,5.15-6.91l-2.25-4.96-3.55,1.78,1.08,5.92-2.62,1.97-6.04-1.78v-8.26l5.98-4.68v-4.12l9.3-3.49,7.29,6.08-2.82,1.69,2.03,2.43,11.79-9.65,5.59,1.83v-10.31l13.43-5.36,.23,.23c17.08,16.67,26.49,38.99,26.49,62.84,0,4.05-.28,8.1-.83,12.06v.44h-.43s-5.86,.73-5.86,.73l-1.09,10.39h-4l-9.26-16.35-9.16-1.08-7.53-6.99-3.81,1.1,3.16,4.95,3.82,.55,2.52,4.41-12.16,8.69-7.2-8.55,3.81,10.58,9.63-1.61,2.7,2.7-13.73,14.27,2.15,6.45-11.7,21.16Zm-6.97-2.08l6.44,.99,11.15-20.17-2.2-6.6,13.47-14-1.65-1.65-9.95,1.66-5.98-16.62,10.2,12.12,10.68-7.63-1.83-3.2-3.79-.54-4.12-6.47,5.64-1.62,7.7,7.15,9.33,1.1,9.23,16.28h2.52l1.08-10.28,6.26-.79c.51-3.83,.76-7.69,.76-11.54,0-23.48-9.22-45.45-25.96-61.9l-12.2,4.87v11.01l-6.38-2.09-12.14,9.93-3.41-4.09,2.62-1.57-5.76-4.8-8.1,3.04v3.92l-5.98,4.68v7.02l4.84,1.43,1.73-1.29-1.1-6.05,5.15-2.58,3.22,7.07-.67,.08c-.16,.02-4,.61-5.01,6.66l-.07,.42h-8.37l-2.84,2.84-7.34-4.2-.37,1.83,4.9,7.08-.96,4.1h-6.15v6.68h5.08l7.29-6.29h6.12v4.89h2.26v-4.35h8.61v6.61l7.1,1.38-1.23,4.99-17.32-.85-2.43-3.22-15.69,2.14-7.37,11.28,2.09,8.36,6.86,7.38,15.35,1.64,5.07,13.53-2.17,4.89,5.81,15.31Z" fill="#231f20"></path>
        </g>
        <g>
          <polygon points="509.77 535.71 507.6 534.62 507.6 530.61 509.77 525.33 513.58 524.28 513.58 530 509.77 535.71" fill="#fff"></polygon>
          <path d="M509.94,536.35l-2.85-1.42,.04-4.51,2.27-5.5,4.68-1.29v6.52l-4.14,6.2Zm-1.85-2.04l1.5,.75,3.48-5.22v-4.9l-2.94,.81-2.04,4.95v3.6Z" fill="#231f20"></path>
        </g>
        <g>
          <path d="M433.09,523.2l1.09,8.7-15.34,23.71c-3.6-2.31-7.02-4.88-10.22-7.68l-1.09-16.02-3.26-1.63-8.7-15.23,5.44-4.35-.54-5.98,8.16-4.45,3.26,4.45,8.16-2.72,4.89,8.16,14.14,7.07-5.98,5.98Z" fill="#fff"></path>
          <path d="M418.99,556.29l-.42-.27c-3.59-2.3-7.05-4.9-10.28-7.73l-.16-.14-1.09-15.94-3.14-1.57-8.99-15.73,5.56-4.45-.55-6.04,8.84-4.82,3.3,4.51,8.19-2.73,5.03,8.38,14.63,7.31-6.3,6.3,1.08,8.64-15.71,24.28Zm-9.88-8.61c3.02,2.63,6.24,5.06,9.59,7.23l14.97-23.13-1.1-8.76,5.66-5.66-13.65-6.82-4.76-7.94-8.12,2.71-3.21-4.39-7.49,4.08,.54,5.92-5.31,4.25,8.41,14.73,3.38,1.69,1.1,16.1Z" fill="#231f20"></path>
        </g>
        <g>
          <path d="M426.57,447.06l1.07,12.51h-5.97l-1.09,3.26-11.42,5.31v5.57l-5.86,5.17-.66,5.71-2.18,1.09-2.18-3.1-10.33-1.25-4.35,4.89,3.21,7.07h6.03l5.43,6.97-2.71,2.43-5.45-4.5h-5.42l-4.97-2.68c-.67-4.36-1.02-8.82-1.02-13.37,0-20.19,6.85-38.78,18.37-53.57h6.65l3.81,2.72,3.81-2.72-.03-4.89h8.73l7.6,13.38-5.42,5.66-4.89-3.3,3.26-3.23-1.74-3.26h-2.61l-2.72,7.07-2.72-2.18-8.16,4.42v6.6l5.99,3.67,2.18-8.16,6.53-.85,2.94,3.57h6.31Z" fill="#fff"></path>
          <path d="M395.58,503.34l-5.65-4.66h-5.37l-5.3-2.85-.04-.25c-.68-4.42-1.02-8.94-1.02-13.44,0-19.73,6.39-38.35,18.47-53.87l.15-.19h7.06l3.65,2.6,3.31-2.36-.03-5.14h9.52l7.92,13.96-5.97,6.23-5.75-3.87,3.43-3.4-1.42-2.67h-1.97l-2.84,7.39-2.99-2.4-7.61,4.12v6.02l5.18,3.17,2.09-7.83,7.13-.93,2.96,3.6h6.53l1.16,13.51h-6.15l-1.04,3.13-11.33,5.26v5.48l-5.89,5.19-.67,5.79-2.8,1.4-2.3-3.27-9.85-1.19-3.96,4.45,2.95,6.48h5.95l5.87,7.53-3.38,3.02Zm-10.76-5.66h5.48l5.26,4.34,2.04-1.83-5-6.41h-6.11l-3.48-7.66,4.74-5.33,10.81,1.3,2.06,2.93,1.55-.77,.65-5.63,5.84-5.14v-5.66l11.51-5.35,1.13-3.4h5.78l-.99-11.51h-6.09l-2.91-3.54-5.92,.77-2.26,8.48-6.8-4.16v-7.17l8.72-4.72,2.44,1.96,2.6-6.75h3.25l2.06,3.86-3.09,3.06,4.04,2.72,4.87-5.08-7.27-12.8h-7.93l.03,4.65-4.31,3.08-3.97-2.83h-6.25c-11.85,15.3-18.11,33.65-18.11,53.07,0,4.37,.33,8.75,.97,13.05l4.63,2.5Z" fill="#231f20"></path>
        </g>
        <g>
          <path d="M432.55,411.71l-6.45,6.53h-5.51l-4.35,2.72-11.92-.57h0c5.04-5.04,10.7-9.46,16.84-13.14l11.39,4.47Z" fill="#fff"></path>
          <path d="M416.36,421.46l-12.55-.6v-.68l.15-.15c5.09-5.08,10.79-9.52,16.94-13.21l.21-.13,12.33,4.84-7.13,7.21h-5.58l-4.36,2.73Zm-10.89-1.52l10.63,.51,4.34-2.71h5.45l5.77-5.84-10.46-4.1c-5.68,3.43-10.97,7.51-15.73,12.14Z" fill="#231f20"></path>
        </g>
        <g>
          <polygon points="427.64 422.41 429.28 417.69 442.88 411.71 448.32 413.34 455.17 411.71 462.98 417.06 459.57 420.96 459.2 428.57 454.3 439.02 446.37 439.02 439.62 449.24 434.18 445.97 433.64 437.82 436.9 434.01 435.81 425.31 427.64 422.41" fill="#fff"></polygon>
          <path d="M439.77,449.91l-6.07-3.64-.58-8.62,3.25-3.79-1.02-8.18-8.35-2.96,1.88-5.39,13.96-6.14,5.49,1.65,6.94-1.65,8.46,5.79-3.66,4.19-.42,7.63-5.03,10.74h-7.98l-6.87,10.39Zm-5.11-4.23l4.8,2.88,6.64-10.04h7.88l4.72-10.08,.38-7.69,3.15-3.6-7.16-4.91-6.77,1.61-5.39-1.62-13.23,5.82-1.41,4.04,8,2.83,1.15,9.23-3.27,3.82,.51,7.69Z" fill="#231f20"></path>
        </g>
        <g>
          <path d="M454.3,444.13l3.26-3.06,1.63,4.35s-.54,3.81-4.89,3.81v-5.1Z" fill="#fff"></path>
          <path d="M454.3,449.74h-.5v-5.82l3.97-3.72,1.94,5.17-.02,.13s-.66,4.24-5.39,4.24Zm.5-5.39v4.37c3.08-.24,3.76-2.66,3.88-3.24l-1.32-3.52-2.56,2.4Z" fill="#231f20"></path>
        </g>
      </g>
    </g>
    <g>
      <g>
        <polygon points="640.87 368.14 599.68 368.14 590.85 266.64 640.87 266.64 640.87 368.14" fill="#fff"></polygon>
        <path d="M641.37,368.64h-42.15l-8.91-102.5h51.06v102.5Zm-41.23-1h40.23v-100.5h-48.97l8.74,100.5Z" fill="#231f20"></path>
      </g>
      <g>
        <path d="M641.54,612.16v5.01c0,1.57,1.27,2.85,2.85,2.85h37.76c1.57,0,2.85-1.27,2.85-2.85v-9.99l-10.3-1.47-27.95,2.21-5.21,4.24Z" fill="#fff"></path>
        <path d="M682.15,620.52h-37.76c-1.85,0-3.35-1.5-3.35-3.35v-5.25l5.51-4.49,28.16-2.22,10.78,1.54v10.42c0,1.85-1.5,3.35-3.35,3.35Zm-40.11-8.12v4.77c0,1.29,1.05,2.35,2.35,2.35h37.76c1.29,0,2.35-1.05,2.35-2.35v-9.56l-9.81-1.4-27.74,2.19-4.9,3.99Z" fill="#231f20"></path>
      </g>
      <g>
        <path d="M657.05,586.9s-3.68,1.15-5.15,12.19c0,0-11.89,5.54-10.36,13.07h29.79c1.98,0,3.91-.64,5.49-1.85,1.38-1.06,3.42-2.15,5.83-1.98l1.6-12.92v-3.92s-6.54-2.76-7.32-3.1c-.77-.34-12.54-5.89-13.28-6.06-.74-.17-6.62,4.56-6.62,4.56Z" fill="#ffb669"></path>
        <path d="M671.34,612.66h-30.2l-.08-.4c-1.48-7.29,8.61-12.62,10.39-13.5,1.4-10.09,4.71-12.01,5.35-12.29,6.02-4.83,6.74-4.67,6.98-4.62,.49,.11,4.34,1.88,10.82,4.9,1.35,.63,2.34,1.09,2.54,1.18,.77,.34,7.31,3.09,7.31,3.09l.31,.13v4.25l-1.66,13.45-.47-.03c-2.3-.16-4.26,.93-5.5,1.88-1.64,1.26-3.7,1.95-5.79,1.95Zm-29.37-1h29.37c1.88,0,3.72-.62,5.18-1.74,1.28-.98,3.26-2.1,5.64-2.1,.02,0,.04,0,.06,0l1.54-12.46v-3.53c-1.3-.55-6.35-2.68-7.02-2.97-.21-.09-1.2-.56-2.57-1.19-3.26-1.52-10.04-4.68-10.62-4.84-.49,.1-3.56,2.35-6.19,4.47l-.16,.08c-.1,.04-3.43,1.44-4.81,11.78l-.04,.27-.25,.12c-.11,.05-11.08,5.26-10.15,12.12Z" fill="#231f20"></path>
      </g>
      <path d="M644.81,604.52c-.19,0-.38-.11-.46-.3-.11-.25,0-.55,.26-.66,.38-.16,9.49-4.02,18.17-1.68,2.19,.59,4.53-.59,5.43-2.75l1.62-3.91c.1-.26,.4-.38,.65-.27,.25,.11,.38,.4,.27,.65l-1.62,3.91c-1.09,2.63-3.93,4.06-6.61,3.34-8.34-2.25-17.42,1.59-17.51,1.63-.06,.03-.13,.04-.2,.04Z" fill="#231f20"></path>
      <g>
        <path d="M598.94,364.89l61.05,1.04,22.35,27.87v70.15l7.8,118.96-38.46-4.81c-1.48-.19-2.51-1.58-2.24-3.05l.98-5.38-3.64-4.54c-1.21-1.51-.86-3.73,.75-4.81l1.42-.95s-54.43-52.96-55.9-75.02c0,0-1.47-62.13,5.88-89.9v-29.55Z" fill="#a6dced"></path>
        <path d="M690.69,583.48l-39.06-4.88c-.86-.11-1.61-.55-2.12-1.24s-.71-1.54-.55-2.39l.94-5.16-3.49-4.37c-.66-.83-.95-1.91-.79-2.96,.16-1.05,.76-1.99,1.65-2.58l.9-.6c-5.56-5.45-54.19-53.72-55.61-74.91-.02-.64-1.39-62.45,5.88-90v-29.99l61.79,1.05,22.61,28.19v70.33l7.84,119.53Zm-91.24-218.07l-.02,29.17c-7.25,27.39-5.88,89.14-5.87,89.76,1.44,21.6,55.2,74.15,55.75,74.67l.44,.43-1.93,1.29c-.66,.44-1.09,1.12-1.21,1.9-.12,.78,.08,1.56,.58,2.18l3.78,4.72-1.02,5.61c-.1,.58,.03,1.15,.38,1.62,.35,.47,.86,.77,1.44,.84l37.85,4.73-7.76-118.35v-70.01s-22.1-27.55-22.1-27.55l-60.3-1.03Z" fill="#231f20"></path>
      </g>
      <path d="M648.96,559.87c-.14,0-.28-.06-.38-.18-.18-.21-.15-.53,.06-.7,.9-.75,22.1-18.45,33.53-22.86,.22-.08,.46,0,.6,.19,.16,.24,4.02,6.01,5.58,11.53,.08,.27-.08,.54-.35,.62-.26,.08-.54-.08-.62-.35-1.31-4.63-4.38-9.59-5.23-10.91-11.37,4.6-32.65,22.37-32.87,22.55-.09,.08-.21,.12-.32,.12Z" fill="#231f20"></path>
      <g>
        <path d="M712.23,567.02c1.21,.65,1.73,2.12,1.19,3.39-1.85,4.34-5.62,14.46-5.62,25,0,.14-.02,18.7-13.11,25.4-2.07,1.06-4.6,.62-6.21-1.07l-3.14-3.31c1.15,.48,2.54,.41,3.71-.32,3.85-2.43,10.66-8.36,10.66-19.96v-10.38c0-1.5-.09-2.99-.23-4.48-.2-2.16-.2-6.15,1.76-10.14l3.63-8.09,7.37,3.97Z" fill="#fff"></path>
        <path d="M692.32,621.88c-1.55,0-3.09-.62-4.2-1.8l-4.75-5.01,2.17,.9c1.06,.44,2.27,.33,3.25-.28,3.89-2.45,10.42-8.25,10.42-19.54v-10.38c0-1.33-.08-2.79-.23-4.43-.2-2.11-.23-6.26,1.8-10.41l3.84-8.57,7.85,4.22c1.45,.78,2.06,2.51,1.41,4.03-1.68,3.93-5.58,14.21-5.58,24.8,0,.78-.15,19.07-13.38,25.84-.82,.42-1.71,.62-2.6,.62Zm-5.52-4.65l2.05,2.16c1.45,1.53,3.76,1.93,5.62,.97,12.69-6.49,12.84-24.77,12.84-24.95,0-10.77,3.96-21.21,5.66-25.2,.44-1.04,.03-2.22-.96-2.76l-6.9-3.71-3.41,7.6c-1.93,3.94-1.9,7.89-1.71,9.89,.16,1.68,.24,3.16,.24,4.53v10.38c0,11.77-6.82,17.82-10.89,20.38-.77,.48-1.63,.71-2.52,.7Z" fill="#231f20"></path>
      </g>
      <path d="M678.58,538.83c-.16,0-.31-.07-.41-.21l-31.1-43.68c-29.91-45.96-27.28-104.59-27.25-105.18,.01-.28,.25-.5,.52-.47,.28,.01,.49,.25,.47,.52-.03,.58-2.64,58.9,27.08,104.56l31.08,43.66c.16,.23,.11,.54-.12,.7-.09,.06-.19,.09-.29,.09Z" fill="#231f20"></path>
      <path d="M621.39,407.26c-.08,0-.13,0-.15,0-.28-.02-.48-.26-.47-.53,.02-.27,.25-.48,.53-.47,.03,0,1.74,.08,3.14-1.25,1.3-1.22,1.95-3.24,1.95-5.98v-13.26c0-.28,.22-.5,.5-.5s.5,.22,.5,.5v13.26c0,3.04-.77,5.3-2.28,6.72-1.49,1.39-3.22,1.5-3.73,1.5Z" fill="#231f20"></path>
      <path d="M683.53,483.38c-.08,0-.15-.02-.23-.05l-15.28-7.77c-1.63-.83-2.65-2.49-2.65-4.32v-30.54c0-.28,.22-.5,.5-.5h16.47c.28,0,.5,.22,.5,.5s-.22,.5-.5,.5h-15.97v30.04c0,1.45,.81,2.77,2.1,3.43l15.28,7.77c.25,.13,.34,.43,.22,.67-.09,.17-.26,.27-.45,.27Z" fill="#231f20"></path>
      <path d="M682.34,456.74c-.07,0-.14-.01-.21-.05-11.51-5.32-16.66-15.68-16.71-15.79-.12-.25-.02-.55,.23-.67,.25-.12,.55-.02,.67,.23,.05,.1,5.06,10.15,16.23,15.32,.25,.12,.36,.41,.24,.66-.08,.18-.27,.29-.45,.29Z" fill="#231f20"></path>
      <path d="M662.93,541.48c-.16,0-.32-.08-.42-.23l-23.54-36.04c-12.44-16.1-12.59-20.83-12.59-21.03-.69-5.62-2.59-7.15-2.61-7.17-.05-.04-.09-.09-.13-.14-4.34-7.08-.24-24.44-.06-25.17,.06-.27,.33-.44,.6-.37,.27,.06,.43,.33,.37,.6-.04,.18-4.16,17.57-.1,24.35,.43,.38,2.25,2.28,2.92,7.83,0,.1,.29,4.83,12.4,20.51l23.56,36.07c.15,.23,.09,.54-.15,.69-.08,.06-.18,.08-.27,.08Z" fill="#231f20"></path>
      <path d="M650.43,570.17c-.16,0-.32-.08-.42-.22-.15-.23-.09-.54,.14-.69l13.24-8.83c.23-.15,.54-.09,.69,.14,.15,.23,.09,.54-.14,.69l-13.24,8.83c-.09,.06-.18,.08-.28,.08Z" fill="#231f20"></path>
      <g>
        <path d="M657.05,578.77v8.13h6.76c1.78,0,3.46,.85,4.51,2.28l5.65,7.7s3.35,3.27,4.62-1.31c0,0,.53-2.37,2.74-1.64v-2.21l-3.71-10.39-20.56-2.57Z" fill="#fff"></path>
        <path d="M676.34,598.51c-1.4,0-2.67-1.22-2.73-1.28l-5.71-7.76c-.96-1.3-2.49-2.08-4.11-2.08h-7.26v-9.2l21.43,2.68,3.84,10.85v2.9l-.66-.22c-.5-.17-.91-.15-1.25,.04-.63,.36-.84,1.23-.84,1.23-.43,1.57-1.15,2.49-2.14,2.75-.2,.05-.4,.08-.59,.08Zm-18.79-12.11h6.26c1.93,0,3.77,.93,4.91,2.49l5.65,7.7c.3,.28,1.42,1.13,2.31,.89,.62-.17,1.1-.85,1.43-2.03,0-.03,.3-1.28,1.32-1.86,.42-.24,.89-.33,1.4-.27v-1.5l-3.58-10.02-19.69-2.46v7.06Z" fill="#231f20"></path>
      </g>
      <g>
        <path d="M627.06,245.69c-.35,.16-.71,.3-1.08,.43-8.11,2.81-16.95-1.48-19.77-9.58l-1.3-3.75-2.71-7.77-1.28-3.68c-2.82-8.11,1.47-16.96,9.58-19.78,1.68-.59,3.41-.87,5.1-.87,6.44,0,12.45,4.03,14.68,10.45l5.29,15.21c2.69,7.74-1.1,16.16-8.5,19.35Z" fill="#fff"></path>
        <path d="M620.9,247.47c-6.64,0-12.87-4.16-15.17-10.78l-5.29-15.21c-1.41-4.05-1.15-8.4,.71-12.25,1.87-3.86,5.12-6.75,9.17-8.16,1.7-.59,3.47-.9,5.26-.9,6.82,0,12.91,4.34,15.15,10.79l5.29,15.21c2.75,7.89-1.11,16.66-8.77,19.97-.37,.17-.74,.31-1.12,.44-1.73,.6-3.5,.88-5.23,.88Zm-5.31-46.3c-1.68,0-3.34,.28-4.93,.84-3.79,1.32-6.85,4.04-8.6,7.65-1.75,3.62-1.99,7.7-.67,11.49l5.29,15.21c2.72,7.83,11.3,11.99,19.13,9.27,.35-.12,.7-.25,1.04-.41h0c7.19-3.11,10.8-11.33,8.23-18.73l-5.29-15.21c-2.1-6.05-7.81-10.12-14.21-10.12Z" fill="#231f20"></path>
      </g>
      <g>
        <path d="M629.1,262.23c-8.09,19.86-28.41,5.77-28.41,5.77l.46-16.06,2.54-2.97c.78-.92,1.21-2.08,1.21-3.28v-12.9l1.3,3.75c2.82,8.11,11.67,12.39,19.77,9.58,.37-.13,.73-.26,1.08-.43,.07,1.45,.33,2.69,.6,3.62,.47,1.64,.8,3.32,.92,5.02l.53,7.9Z" fill="#fff"></path>
        <path d="M615.06,273.35c-7.42,0-14.31-4.71-14.65-4.95l-.22-.15,.47-16.51,2.65-3.11c.7-.82,1.09-1.88,1.09-2.96v-15.86l2.27,6.55c2.72,7.83,11.3,11.99,19.13,9.27,.35-.12,.7-.25,1.04-.41l.67-.31,.04,.74c.06,1.2,.25,2.37,.58,3.5,.51,1.77,.83,3.5,.94,5.13l.53,8.02-.04,.11c-2.25,5.52-5.65,9-10.12,10.32-1.45,.43-2.93,.61-4.38,.61Zm-13.86-5.62c1.5,.97,10.28,6.33,17.96,4.05,4.13-1.23,7.3-4.47,9.43-9.63l-.52-7.79c-.1-1.58-.4-3.19-.9-4.92-.28-.98-.47-2-.57-3.03-.16,.06-.31,.12-.47,.17-8.35,2.89-17.5-1.54-20.4-9.89l-.33-.95v9.93c0,1.32-.47,2.6-1.33,3.61l-2.43,2.84-.44,15.61Z" fill="#231f20"></path>
      </g>
      <g>
        <path d="M601.15,251.93s-3.68,0-5.88,6.62c0,0-27.95,11.77-26.48,25.74l1.47,22.8s-3.68,6.62-.74,12.5c0,0-6.69,5.99-1.14,13.29,0,0-6.95,15.39,10.7,22.01,0,0,3.68,1.47,14.71-1.47,0,0,3.49,18.17-1.1,35.44-.23,.87,.03,1.8,.72,2.38,1.59,1.33,4.92,3.57,10.18,4.51,1.41,.25,2.7-.86,2.7-2.29v-42.08s-6.06-2.99-5.6-9.3c0,0-1.01-15.13,1.93-16.6l3.68-1.47-1.38-37.36c-.05-1.48-.39-2.94-.98-4.3-1.31-3.06-3.57-9.17-3.24-14.36l.46-16.06Z" fill="#ffb669"></path>
        <path d="M604,396.28c-.16,0-.32-.01-.49-.04-5.41-.96-8.84-3.3-10.41-4.62-.82-.69-1.17-1.82-.89-2.89,4.08-15.33,1.7-31.58,1.18-34.69-10.66,2.77-14.34,1.38-14.5,1.31-5.67-2.12-9.45-5.37-11.23-9.65-2.39-5.75-.39-11.44,.14-12.75-4.81-6.6-.11-12.2,1.11-13.47-2.56-5.57,.32-11.52,.83-12.51l-1.46-22.66c-1.44-13.68,23.8-24.95,26.58-26.15,2.3-6.67,6.12-6.75,6.29-6.75h.51l-.47,16.58c-.32,5.06,1.87,11.04,3.2,14.15,.62,1.44,.96,2.95,1.02,4.48l1.4,37.71-4,1.6c-1.89,.95-2,10.38-1.61,16.1-.43,5.95,5.27,8.86,5.33,8.88l.28,.14v.31s0,42.08,0,42.08c0,.84-.37,1.63-1.01,2.17-.51,.43-1.14,.65-1.79,.65Zm-9.81-43.47l.1,.53c.04,.18,3.46,18.48-1.11,35.66-.18,.69,.04,1.42,.56,1.86,1.49,1.25,4.76,3.48,9.94,4.4,.52,.09,1.05-.05,1.46-.39,.42-.35,.66-.86,.66-1.4v-41.78c-1.22-.71-6.02-3.87-5.6-9.63-.17-2.51-.88-15.47,2.2-17.01l3.39-1.36-1.37-37c-.05-1.41-.37-2.8-.94-4.12-1.37-3.19-3.62-9.33-3.28-14.59l.44-15.43c-1.02,.3-3.33,1.49-4.89,6.18l-.07,.21-.21,.09c-.28,.12-27.59,11.78-26.17,25.23l1.48,22.97-.07,.13c-.04,.06-3.51,6.46-.73,12.04l.17,.34-.28,.25c-.26,.23-6.28,5.78-1.08,12.62l.18,.24-.12,.27c-.03,.06-2.74,6.23-.24,12.24,1.67,4.01,5.26,7.07,10.66,9.09,.04,.02,3.75,1.35,14.41-1.49l.52-.14Z" fill="#231f20"></path>
      </g>
      <g>
        <path d="M601.15,252.05s-.02-.02-.02,0c-.43,1.79-5.86,24.19-5.86,24.89s9.64,10.14,9.64,10.14l-.04-1.45c-.02-.84-.19-1.67-.51-2.45-1.04-2.53-3.44-8.96-3.65-15.18l.45-15.94Z" fill="#231f20"></path>
        <path d="M605.43,288.3l-.88-.86c-9.79-9.55-9.79-10.26-9.79-10.5,0-.66,3.67-15.94,5.87-24.99l.11-.44,.91,.09v.47s0,0,0,0l-.45,15.94c.22,6.12,2.6,12.52,3.62,14.98,.34,.83,.53,1.72,.55,2.63l.07,2.68Zm-9.66-11.42c.47,.82,4.57,5.03,8.59,8.98v-.21c-.03-.79-.19-1.56-.48-2.28-1.04-2.51-3.47-9.04-3.69-15.36l.32-11.32c-2.28,9.47-4.56,19.04-4.74,20.19Zm-.03-.06" fill="#231f20"></path>
      </g>
      <path d="M587.74,281.32c-.31,0-.61-.11-.86-.33-.41-.36-.54-.92-.34-1.43l8.26-21.19c.1-.26,.39-.39,.65-.28,.26,.1,.38,.39,.28,.65l-8.26,21.19c-.07,.17,.03,.28,.08,.32s.17,.13,.33,.04l7.15-3.79c.24-.13,.55-.04,.68,.21,.13,.24,.04,.55-.21,.68l-7.15,3.79c-.19,.1-.4,.15-.61,.15Z" fill="#231f20"></path>
      <path d="M581.29,297.3c-.13,0-.26-.05-.35-.15-9.55-9.55-11.81-17.54-11.9-17.87-.07-.27,.08-.54,.35-.61,.26-.07,.54,.08,.61,.35,.02,.08,2.3,8.09,11.64,17.43,.2,.2,.2,.51,0,.71-.1,.1-.23,.15-.35,.15Z" fill="#231f20"></path>
      <path d="M591.11,327.37c-.25,0-.47-.19-.5-.45-1.92-18.2-8.26-36.4-8.32-36.58-.09-.26,.05-.55,.31-.64,.26-.09,.55,.05,.64,.31,.06,.18,6.44,18.49,8.37,36.81,.03,.27-.17,.52-.44,.55-.02,0-.04,0-.05,0Z" fill="#231f20"></path>
      <path d="M570.99,331.86c-.23,0-.44-.16-.49-.4-.05-.27,.12-.53,.39-.59l29.42-5.88c.27-.05,.53,.12,.59,.39,.05,.27-.12,.53-.39,.59l-29.42,5.88s-.07,0-.1,0Z" fill="#231f20"></path>
      <path d="M598.94,351.72c-.13,0-.27-.05-.37-.16-9.7-10.44-3.08-22.53-3.01-22.65,.13-.24,.44-.33,.68-.19,.24,.14,.33,.44,.19,.68-.06,.11-6.32,11.58,2.87,21.48,.19,.2,.18,.52-.03,.71-.1,.09-.22,.13-.34,.13Z" fill="#231f20"></path>
      <g>
        <path d="M605.92,351.44l-12.12,1.99s1.33,6.02,1.05,8.88c0,.02,.02,.03,.04,.01l11.14-10.67c.09-.08,.01-.23-.1-.21Z" fill="#231f20"></path>
        <path d="M594.97,362.92l-.65-.3,.02-.37c.27-2.75-1.03-8.66-1.04-8.72l-.11-.52,12.64-2.07c.27-.05,.53,.09,.66,.33,.12,.25,.07,.54-.13,.73l-11.39,10.91Zm-.58-9.09c.27,1.31,.94,4.8,.99,7.31l9.41-9.01-10.4,1.7Z" fill="#231f20"></path>
      </g>
      <g>
        <path d="M613.65,338.72s.56,10.24-5.39,12.37c-1.37,.49-2.91,.09-3.94-.93-.93-.93-2.14-2.43-3.23-4.7l12.55-6.74Z" fill="silver"></path>
        <path d="M607.06,351.8c-1.12,0-2.24-.45-3.08-1.28-.88-.88-2.18-2.43-3.33-4.84l-.2-.43,13.66-7.34,.04,.79c.02,.43,.51,10.64-5.72,12.87-.45,.16-.91,.24-1.38,.24Zm-5.29-6.13c1.03,2.04,2.14,3.37,2.92,4.14,.91,.91,2.26,1.23,3.42,.81,4.59-1.64,5.05-8.68,5.07-11.07l-11.4,6.12Z" fill="#231f20"></path>
      </g>
      <g>
        <path d="M627.49,245.81c-.22-.06-.45,.1-.44,.34,.02,.64,.12,1.86,.6,3.16,0,0,.71,2.63,.92,5.02l.53,7.9s-.95,11.45-7.83,24.85c0,0-3.59,7.51-3.03,27.74l13.27,78.84c.29,1.7,2,2.76,3.64,2.25,6.78-2.11,22.88-7.67,30.45-14.99,.09-.09,.24-.01,.23,.11l-1.43,12.85s0,0,0,0c.27-.01,18.43-.68,24.27,7.36l2.8-18.17c.08-.55,.4-1.03,.87-1.32,1.64-1.03,5.43-4.59,4.49-15.13-.04-.41,.06-.82,.28-1.16,.86-1.32,2.83-5.3,.3-11.24-.23-.55-.2-1.18,.12-1.69,1.13-1.8,3.25-6.99-.77-16.75l-21.43-64.28c-.88-2.63-2.81-4.77-5.33-5.92l-33.59-15.27s-2.47-2.65-8.93-4.49Z" fill="#ffb669"></path>
        <path d="M688.99,402.51l-.71-.98c-5.65-7.76-23.67-7.16-23.84-7.15h-.25s-.31-.36-.31-.36l.04-.24,1.31-11.84c-7.93,7.09-23.47,12.43-29.93,14.44-.92,.29-1.92,.16-2.74-.34-.82-.51-1.39-1.34-1.55-2.3l-13.27-78.84c-.56-20.19,2.92-27.73,3.07-28.04,6.76-13.16,7.77-24.56,7.78-24.68l-.53-7.83c-.2-2.31-.89-4.9-.9-4.92-.5-1.33-.6-2.63-.62-3.28,0-.27,.11-.52,.33-.68,.21-.17,.49-.22,.75-.15h0c5.99,1.71,8.61,4.1,9.08,4.56l33.5,15.24c2.64,1.2,4.68,3.47,5.6,6.22l21.43,64.28c4.1,9.96,1.87,15.33,.72,17.17-.23,.36-.26,.82-.09,1.23,2.6,6.1,.63,10.22-.34,11.71-.16,.24-.23,.54-.2,.84,.96,10.79-2.98,14.5-4.72,15.59-.35,.22-.58,.57-.64,.97l-2.98,19.37Zm-23.28-9.15c4.16,0,17.06,.52,22.65,6.69l2.63-17.06c.11-.69,.51-1.29,1.1-1.67,1.58-1,5.17-4.42,4.26-14.66-.05-.52,.08-1.05,.36-1.48,.88-1.35,2.67-5.11,.26-10.77-.3-.71-.24-1.51,.16-2.15,1.07-1.71,3.13-6.73-.81-16.29l-21.44-64.31c-.83-2.49-2.68-4.54-5.06-5.63l-33.68-15.32-.07-.07s-2.43-2.52-8.5-4.3c.03,.63,.15,1.68,.56,2.78,.04,.15,.74,2.74,.95,5.15l.53,7.91c-.01,.19-1.03,11.78-7.88,25.11-.03,.06-3.52,7.68-2.97,27.5l13.26,78.77c.11,.67,.51,1.26,1.09,1.61,.57,.35,1.27,.44,1.92,.24,6.59-2.05,22.73-7.6,30.25-14.87,.2-.19,.48-.23,.72-.11,.24,.12,.38,.38,.35,.65l-1.37,12.29c.2,0,.45,0,.74,0Z" fill="#231f20"></path>
      </g>
      <path d="M659.99,284.79s-.09,0-.14-.02c-.27-.08-.42-.36-.34-.62,3.69-12.55,11.96-17.54,12.31-17.74,.24-.14,.54-.06,.68,.18,.14,.24,.06,.54-.18,.68-.08,.05-8.28,5.01-11.85,17.16-.06,.22-.26,.36-.48,.36Z" fill="#231f20"></path>
      <g>
        <path d="M629.1,262.23s5.52,14-7.29,24.42c-.13,.1-.31-.04-.24-.18,1.28-2.64,6.25-13.38,7.52-24.24Z" fill="#231f20"></path>
        <path d="M621.72,287.18c-.14,0-.29-.05-.41-.14-.24-.19-.31-.52-.18-.79,1.44-2.95,6.22-13.42,7.48-24.08l.23-1.98,.73,1.85c.06,.14,5.5,14.47-7.44,24.99-.12,.1-.27,.15-.41,.15Zm7.54-22.51c-1.41,8.59-4.77,16.69-6.53,20.53,8.07-7.43,7.4-16.41,6.53-20.53Z" fill="#231f20"></path>
      </g>
      <path d="M639.71,284.2c-.21,0-.42-.05-.62-.14l-10.9-5.31c-.25-.12-.35-.42-.23-.67,.12-.25,.42-.35,.67-.23l10.9,5.31c.19,.09,.34,.01,.4-.03,.06-.04,.19-.15,.17-.35-1.04-13.74-2.67-29.42-4.12-32.25-.13-.25-.03-.55,.22-.67,.25-.12,.55-.03,.67,.22,1.9,3.72,3.72,25.92,4.23,32.63,.04,.5-.19,.97-.6,1.26-.24,.16-.51,.24-.78,.24Z" fill="#231f20"></path>
      <path d="M630.66,312.15c-.19,0-.37-.1-.45-.28-.12-.25-.01-.55,.23-.67,.1-.05,9.71-4.61,20.02-3.87,.28,.02,.48,.26,.46,.53-.02,.28-.25,.48-.53,.46-10.05-.71-19.42,3.73-19.52,3.77-.07,.03-.14,.05-.22,.05Z" fill="#231f20"></path>
      <path d="M665.88,381.14c-.22,0-.42-.14-.48-.36-1.08-3.79,.86-10.15,2.12-13.6,.4-1.11,.4-2.35-.01-3.52-1.91-5.39-2.63-18.91-2.81-22.92-.03-.74-.24-1.47-.61-2.17-3.04-5.75-5.02-12.78-6.15-17.66-.9-3.89-1.41-7.92-1.52-11.96l-.81-29.78c0-.28,.21-.51,.49-.51,.3,0,.51,.21,.51,.49l.81,29.78c.11,3.98,.61,7.94,1.49,11.77,1.11,4.83,3.07,11.77,6.05,17.42,.44,.84,.69,1.71,.72,2.6,.17,3.98,.89,17.37,2.75,22.63,.49,1.38,.49,2.87,.01,4.19-1.21,3.34-3.1,9.46-2.09,12.98,.08,.27-.08,.54-.34,.62-.05,.01-.09,.02-.14,.02Z" fill="#231f20"></path>
      <path d="M689.82,394.3c-.17,0-.33-.08-.43-.24-5.26-8.55-21.86-7.78-22.02-7.77-.27,.01-.51-.2-.53-.47-.01-.28,.2-.51,.47-.53,.71-.04,17.36-.81,22.93,8.25,.15,.24,.07,.54-.16,.69-.08,.05-.17,.07-.26,.07Z" fill="#231f20"></path>
      <g>
        <path d="M688.68,401.24s2.21,5.15-8.83,4.41c0,0,.58-6.23,2.5-9,0,0,3.39,.91,6.33,4.58Z" fill="silver"></path>
        <path d="M681.88,406.22c-.65,0-1.33-.02-2.06-.07l-.51-.03,.05-.51c.02-.26,.61-6.39,2.58-9.24l.2-.29,.34,.09c.15,.04,3.58,.99,6.59,4.76l.07,.12c.03,.06,.66,1.58-.34,2.99-1.03,1.46-3.35,2.19-6.91,2.19Zm-1.47-1.04c5.04,.26,6.9-.79,7.57-1.73,.59-.84,.34-1.74,.26-1.96-2.25-2.79-4.78-3.91-5.68-4.24-1.37,2.27-1.97,6.48-2.15,7.93Z" fill="#231f20"></path>
      </g>
      <g>
        <path d="M664.61,394.26l13.81,25.07c.04,.08,.17,.05,.17-.04,.07-2.36,.65-16.73,3.75-22.64,0,0-5.31-2.71-17.5-2.77-.19,0-.32,.21-.23,.38Z" fill="#fff"></path>
        <path d="M678.5,419.88c-.21,0-.41-.11-.52-.31l-13.81-25.07c-.13-.23-.12-.51,.01-.75,.14-.23,.39-.37,.65-.37h0c12.17,.06,17.51,2.71,17.73,2.82l.45,.23-.24,.45c-3.09,5.89-3.64,20.75-3.7,22.43,0,.27-.19,.49-.45,.55-.05,.01-.09,.02-.14,.02Zm-13.25-25.5l12.9,23.42c.2-4.47,.96-15.47,3.51-20.9-1.5-.61-6.72-2.41-16.41-2.51Zm-.2-.37h0s0,0,0,0Z" fill="#231f20"></path>
      </g>
      <g>
        <path d="M604.9,242.15s-7.63-1.86-10.13-9.3c-.16-.48-.55-.84-1.02-1.01-1.74-.6-5.61-2.58-3.89-7.87,.15-.47,.08-.98-.19-1.4-1.49-2.37-5.78-10.39,1.74-14.34,.51-.27,.87-.78,.89-1.36,.06-1.35,.58-3.71,3.41-3.73,.9,0,1.65-.7,1.68-1.59,.11-3.49,1.8-10.55,13.99-8.08,.81,.16,1.68,0,2.31-.53,.79-.66,2.15-1.27,3.97-.06,.74,.49,1.7,.52,2.5,.13,3.24-1.57,11.02-3.21,10.09,18.11,0,0-1.11-3.57-4.95-6.86-1.15-.98-2.86-.88-3.89,.22-2.28,2.42-7.05,6.67-14.78,9.74-1.53,.61-2.49,2.13-2.42,3.78l.68,14.77v9.38Z" fill="#fff"></path>
        <path d="M605.4,242.79l-.62-.15c-.32-.08-7.93-2.01-10.49-9.63-.11-.32-.37-.58-.71-.7-1.47-.51-6.11-2.64-4.2-8.5,.1-.32,.06-.68-.13-.98-1.07-1.7-3.45-6.08-2.38-10.05,.57-2.11,2.02-3.79,4.31-4.99,.37-.19,.61-.55,.63-.94,.13-2.66,1.55-4.19,3.91-4.2,.64,0,1.16-.49,1.18-1.11,.07-2.15,.68-5.13,3.18-7.11,2.51-1.98,6.35-2.47,11.41-1.44,.7,.14,1.41-.02,1.89-.42,.78-.65,2.41-1.53,4.57-.1,.58,.38,1.34,.42,2.01,.1,2.4-1.16,4.68-1.17,6.43-.02,3.35,2.2,4.82,8.46,4.38,18.6l-.12,2.84-.85-2.71s-1.12-3.48-4.8-6.62c-.94-.81-2.35-.73-3.2,.18-2.2,2.33-7.06,6.72-14.96,9.86-1.32,.53-2.17,1.85-2.1,3.29l.68,14.77v10.04Zm1.34-49.33c-2.55,0-4.57,.58-6.05,1.75-2.2,1.74-2.74,4.42-2.8,6.36-.04,1.16-.99,2.07-2.17,2.08-2.28,.01-2.85,1.77-2.92,3.25-.04,.74-.48,1.42-1.16,1.78-2.04,1.07-3.32,2.54-3.81,4.37-.97,3.59,1.26,7.67,2.26,9.26,.35,.55,.43,1.22,.24,1.82-1.53,4.69,1.59,6.55,3.58,7.25,.64,.22,1.12,.71,1.33,1.32,1.97,5.86,7.33,8.16,9.16,8.78v-8.7l-.68-14.75c-.09-1.87,1.01-3.58,2.73-4.27,7.72-3.07,12.46-7.34,14.6-9.61,1.22-1.3,3.23-1.41,4.58-.26,2.12,1.82,3.43,3.71,4.19,5.08,.18-10.53-2.04-14.3-4-15.59-1.85-1.21-3.98-.62-5.44,.09-.98,.48-2.13,.41-3-.17-1.24-.82-2.37-.81-3.38,.03-.73,.61-1.72,.84-2.73,.64-1.66-.34-3.18-.51-4.54-.51Z" fill="#231f20"></path>
      </g>
      <g>
        <ellipse cx="600.78" cy="230.23" rx="3.55" ry="5.13" transform="translate(-40.01 287.91) rotate(-26.11)" fill="#fff"></ellipse>
        <path d="M601.91,235.59c-1.75,0-3.69-1.38-4.77-3.58-1.37-2.79-.85-5.85,1.16-6.84,2.01-.99,4.75,.48,6.11,3.27,1.37,2.79,.85,5.85-1.16,6.84-.42,.21-.88,.31-1.35,.31Zm-2.23-9.73c-.33,0-.65,.07-.94,.21-1.51,.74-1.83,3.21-.7,5.5s3.26,3.55,4.78,2.81c1.51-.74,1.83-3.21,.7-5.5-.91-1.85-2.47-3.03-3.84-3.03Z" fill="#231f20"></path>
      </g>
      <g>
        <polygon points="607.03 303.42 611.34 330.69 629.1 329.16 625.42 303.42 607.03 303.42" fill="#a6dced"></polygon>
        <path d="M610.92,331.23l-4.47-28.31h19.41l3.81,26.7-18.75,1.62Zm-3.3-27.31l4.14,26.24,16.77-1.45-3.54-24.79h-17.37Z" fill="#231f20"></path>
      </g>
      <path d="M679.85,422.33c-.17,0-.34-.09-.43-.25l-18.45-32.05c-.14-.24-.06-.54,.18-.68,.24-.14,.54-.06,.68,.18l18.45,32.05c.14,.24,.06,.54-.18,.68-.08,.05-.16,.07-.25,.07Z" fill="#231f20"></path>
      <g>
        <path d="M601.1,345.46l26.33-13.95c1.19-.63,2.09-1.68,2.54-2.95,.25-.7,.49-1.5,.63-2.33,.42-2.45-1.71-4.58-4.17-4.24l-14.17,2.01s-.08-1.47,7.27-3.68c0,0,2.88-.58,3.03-3.26,.03-.58-.53-1.02-1.09-.87-1.67,.46-5.12,1.29-7.81,1.25,0,0-7.9,.6-10.63,6.88-.26,.6-.6,1.17-.99,1.7-.5,.69-1.19,2.19-1.36,5.33,0,0-.37,10.54,.41,14.1Z" fill="#fff"></path>
        <path d="M600.76,346.21l-.14-.64c-.79-3.58-.44-13.79-.42-14.22,.18-3.24,.89-4.84,1.45-5.61,.39-.53,.7-1.07,.94-1.6,2.82-6.48,10.71-7.15,11.05-7.18,2.66,.05,5.97-.75,7.72-1.23,.43-.12,.88-.02,1.23,.26,.34,.28,.52,.69,.5,1.12-.14,2.43-2.31,3.49-3.43,3.72-3.5,1.05-5.23,1.92-6.08,2.5l12.81-1.82c1.35-.19,2.66,.26,3.61,1.24,.94,.96,1.34,2.27,1.12,3.58-.13,.75-.35,1.56-.65,2.41-.49,1.39-1.48,2.53-2.78,3.22l-26.92,14.26Zm12.9-28.26s-7.59,.66-10.16,6.58c-.26,.6-.61,1.21-1.05,1.8-.4,.54-1.09,1.92-1.26,5.07,0,.09-.32,9.36,.28,13.31l25.73-13.63c1.08-.57,1.9-1.52,2.31-2.67,.28-.8,.49-1.55,.6-2.25,.17-1-.14-1.98-.85-2.71-.72-.75-1.73-1.09-2.76-.94l-14.71,2.09-.03-.54c-.03-.56,.65-2.09,7.63-4.18,.15-.03,2.55-.55,2.68-2.81,0-.15-.08-.24-.13-.29-.1-.08-.22-.1-.33-.07-1.8,.49-5.23,1.32-7.95,1.26Z" fill="#231f20"></path>
      </g>
      <path d="M614.9,327.37c-.23,0-.44-.16-.49-.39-.06-.27,.11-.54,.38-.6l15.08-3.35c.27-.06,.54,.11,.6,.38,.06,.27-.11,.54-.38,.6l-15.08,3.35s-.07,.01-.11,.01Z" fill="#231f20"></path>
      <path d="M617,331.86c-.23,0-.44-.16-.49-.39-.06-.27,.11-.54,.38-.59l12.98-2.8c.27-.06,.54,.11,.59,.38,.06,.27-.11,.54-.38,.59l-12.98,2.8s-.07,.01-.11,.01Z" fill="#231f20"></path>
      <g>
        <path d="M701.23,571.14c-2.04,4.17-1.96,8.33-1.73,10.41,.15,1.42,.21,2.85,.21,4.27v10.32c0,11.6-6.8,17.53-10.66,19.96-1.16,.73-2.55,.79-3.71,.32-.91-.38-1.68-1.1-2.06-2.11-1.17-3.07-.49-7.13-.49-7.13,.74-10.3-1.47-15.45-1.47-15.45l-7.36-20.59-1.47-8.83,19.86-6.62,12.5,7.36-3.63,8.09Z" fill="#ffb669"></path>
        <path d="M686.89,617.23c-.59,0-1.18-.11-1.73-.34-1.09-.46-1.92-1.31-2.34-2.4-1.2-3.16-.55-7.22-.52-7.39,.71-9.98-1.42-15.12-1.44-15.17l-7.37-20.62-1.56-9.33,20.48-6.83,13.08,7.7-3.82,8.52c-1.98,4.05-1.9,8.09-1.68,10.14,.14,1.29,.21,2.71,.21,4.33v10.32c0,11.77-6.82,17.82-10.89,20.38-.74,.46-1.58,.7-2.43,.7Zm-13.83-54.58l1.4,8.4,7.33,20.51c.08,.19,2.23,5.35,1.5,15.65-.01,.09-.64,4.02,.46,6.92,.31,.83,.95,1.48,1.79,1.83,1.06,.44,2.27,.33,3.25-.28,3.89-2.45,10.42-8.25,10.42-19.54v-10.32c0-1.58-.07-2.96-.2-4.22-.24-2.16-.32-6.41,1.77-10.68l3.44-7.67-11.92-7.01-19.24,6.41Z" fill="#231f20"></path>
      </g>
      <path d="M682.79,600.32c-.11,0-.22-.04-.32-.11-.21-.17-.25-.49-.07-.7,.08-.1,2-2.44,4.79-4.23,2.88-1.85,3.99-5.58,2.58-8.67l-.06-.13s-.06-.14-.07-.17c-.13-.49-3.11-12.01-2.29-17.29,.04-.27,.3-.46,.57-.42,.27,.04,.46,.3,.42,.57-.78,5.08,2.15,16.41,2.27,16.89l.07,.14c1.61,3.54,.34,7.8-2.95,9.92-2.65,1.71-4.54,4-4.56,4.02-.1,.12-.24,.18-.39,.18Z" fill="#231f20"></path>
      <g>
        <path d="M663.67,560.84l22.43-12.86,6.25,7.71s3.8,12.67-6.83,10.38c-3.12-.67-6.43-.03-9.01,1.85-1.14,.83-2.11,1.89-2.56,3.22l-10.3-10.3Z" fill="#fff"></path>
        <path d="M674.18,572.06l-11.33-11.33,23.37-13.4,6.61,8.21c.08,.27,1.96,6.67-.87,9.74-1.37,1.48-3.57,1.91-6.54,1.27-3.03-.66-6.17-.01-8.61,1.77-1.21,.89-2.01,1.89-2.38,2.97l-.26,.77Zm-9.7-11.11l9.31,9.31c.5-1,1.31-1.92,2.44-2.74,2.67-1.95,6.1-2.65,9.41-1.94,2.6,.56,4.48,.23,5.59-.97,2.28-2.47,.89-7.91,.68-8.68l-5.92-7.3-21.5,12.32Z" fill="#231f20"></path>
      </g>
      <path d="M601.08,231.84c-.17,0-.34-.09-.43-.24l-1.76-2.96c-.14-.24-.06-.54,.17-.69,.24-.14,.54-.06,.69,.17l1.76,2.96c.14,.24,.06,.54-.17,.69-.08,.05-.17,.07-.25,.07Z" fill="#231f20"></path>
      <g>
        <path d="M612.53,218.18c-.11,0-.22-.04-.31-.11-.21-.17-.25-.49-.08-.7,.07-.09,1.73-2.11,5.89-2.63,.27-.04,.52,.16,.56,.43,.03,.27-.16,.52-.43,.56-3.72,.46-5.22,2.25-5.23,2.26-.1,.12-.24,.18-.39,.18Z" fill="#231f20"></path>
        <path d="M631.5,216.95c-.09,0-.17-.02-.25-.07-.81-.47-1.63-.74-2.45-.8-.28-.02-.48-.26-.47-.53,.02-.28,.27-.47,.53-.47,.98,.07,1.95,.38,2.89,.93,.24,.14,.32,.45,.18,.68-.09,.16-.26,.25-.43,.25Z" fill="#231f20"></path>
        <g>
          <ellipse cx="616.95" cy="221.73" rx="1.1" ry="1.47" transform="translate(-38.33 241.77) rotate(-21.52)" fill="#231f20"></ellipse>
          <path d="M617.18,223.65c-.28,0-.57-.08-.83-.25-.39-.24-.7-.63-.89-1.09-.41-1.03-.07-2.09,.77-2.42,.42-.16,.9-.11,1.33,.15,.39,.24,.7,.63,.89,1.09,.18,.47,.22,.96,.1,1.4-.13,.48-.45,.85-.87,1.02-.16,.06-.32,.09-.5,.09Zm-.45-2.85s-.09,0-.13,.02c-.27,.1-.42,.59-.21,1.12,.1,.26,.28,.48,.48,.61,.09,.06,.27,.14,.44,.08,.17-.07,.24-.25,.27-.35,.06-.23,.04-.51-.06-.77-.1-.26-.28-.48-.48-.61-.07-.04-.18-.1-.31-.1Z" fill="#231f20"></path>
        </g>
        <g>
          <ellipse cx="630.92" cy="220.26" rx="1.1" ry="1.47" transform="translate(-36.81 246.79) rotate(-21.52)" fill="#231f20"></ellipse>
          <path d="M631.14,222.19c-.69,0-1.38-.52-1.71-1.34-.41-1.03-.07-2.09,.77-2.42,.84-.33,1.81,.22,2.21,1.25,.41,1.03,.07,2.09-.77,2.42-.16,.06-.33,.1-.5,.1Zm-.45-2.86s-.09,0-.13,.02c-.27,.1-.41,.59-.2,1.12,.21,.53,.65,.79,.92,.68,.27-.1,.41-.59,.2-1.12-.18-.45-.53-.7-.79-.7Z" fill="#231f20"></path>
        </g>
        <path d="M623.93,228.85c-.23,0-.44-.16-.49-.4-.05-.27,.12-.53,.39-.59l3.07-.61-2.69-6.05c-.11-.25,0-.55,.25-.66,.25-.11,.55,0,.66,.25l2.94,6.62c.06,.14,.06,.3-.01,.43-.07,.13-.2,.23-.35,.26l-3.68,.74s-.07,0-.1,0Z" fill="#231f20"></path>
        <g>
          <path d="M620.26,232.76l10.66-1.21s-1.84,12.24-10.66,1.21Z" fill="#fff"></path>
          <path d="M626.62,237.87c-1.94,0-4.2-1.61-6.75-4.8l-.57-.71,12.21-1.38-.1,.64c-.03,.22-.83,5.29-3.93,6.13-.28,.08-.57,.11-.87,.11Zm-5.39-4.72c2.39,2.8,4.45,4.05,6,3.64,1.77-.48,2.72-3.12,3.07-4.66l-9.07,1.03Z" fill="#231f20"></path>
        </g>
      </g>
    </g>
  </g>
  <g>
    <g>
      <path d="M239.41,617.02s.65,14.43-23,11.83l-2.17-4.56,15.62-3.64,9.55-3.63Z" fill="#fff"></path>
      <path d="M221.83,629.67c-1.71,0-3.54-.11-5.48-.32l-.28-.03-2.56-5.37,16.23-3.78,10.13-3.86,.03,.69c0,.19,.16,4.61-3.69,8.22-3.16,2.96-7.99,4.45-14.39,4.45Zm-5.09-1.28c8.72,.92,15.04-.39,18.78-3.88,2.64-2.47,3.23-5.41,3.35-6.74l-8.84,3.36-15.08,3.52,1.78,3.74Z" fill="#231f20"></path>
    </g>
    <g>
      <path d="M340.7,617.72s-15.13,6.8-42.91-2.75c0,0-10.84,2.17-30.37,0l-41.24-36.89-9.33-28.21,14.59-3.75,44.65,7,16.16,8.75,16.18,37.25,32.27,18.59Z" fill="#a6dced"></path>
      <path d="M325.49,620.53c-7.02,0-16.34-1.15-27.74-5.05-1.32,.24-12.16,2.01-30.39-.02l-.16-.02-.12-.11-41.34-36.98-9.54-28.85,15.21-3.91,.1,.02,44.74,7.02,16.39,8.88,16.18,37.26,32.98,19-.89,.4c-.09,.04-5.44,2.36-15.41,2.36Zm-27.66-6.08l.13,.04c23.39,8.04,37.84,4.38,41.57,3.13l-31.49-18.15-16.17-37.25-15.93-8.63-44.46-6.97-13.97,3.59,9.12,27.58,41.02,36.7c19.12,2.1,29.96,.01,30.06-.01l.13-.03Z" fill="#231f20"></path>
    </g>
    <g>
      <path d="M230.3,569.83s8.36,12.88,13.62,18.81c0,0-6.35,7.45-12.48,11.14,0,0-3.54-2.94-8.2-2.67l-18.53-11.12-4.58-4.23,1.52-7.38,9.01-7.3,11.02-2.6,8.19,3.63,.43,1.72Z" fill="#fff"></path>
      <path d="M231.39,600.39l-.27-.23s-3.46-2.81-7.85-2.55h-.15s-18.74-11.25-18.74-11.25l-4.78-4.42,1.61-7.83,9.34-7.51,11.18-2.64,8.56,3.79,.47,1.88c.67,1.03,8.55,13.07,13.53,18.68l.29,.33-.28,.33c-.26,.31-6.48,7.55-12.6,11.24l-.3,.18Zm-7.52-3.8c3.77,0,6.7,1.91,7.6,2.58,5.17-3.21,10.51-9.09,11.78-10.53-5.24-6.02-13.29-18.41-13.37-18.54l-.07-.15-.37-1.49-7.81-3.46-10.74,2.54-8.78,7.12-1.43,6.93,4.33,4.01,18.35,11.01c.17,0,.34-.01,.5-.01Z" fill="#231f20"></path>
    </g>
    <g>
      <path d="M156.8,614.8c-.61,.18-.91,.85-.67,1.44,2.71,6.5,7.39,10.11,12.38,12.04h0c9.6,3.72,20.34,1.22,20.34,1.22,3.04-.87,11.28-1.09,11.28-1.09l16.28,.43c.65-.65,1.09-2.39,1.09-2.39l12.37-11.94-2.78-12.06c-9.29-3.38-15.67-.53-15.67-.53-14.97,4.99-26.67-3.14-26.67-3.14-16.14-6.28-23.54,2.61-25.23,5.12-.25,.36-.24,.84,0,1.2l.9,1.3c.41,.6,.53,1.35,.33,2.04l-1.27,4.37c-.23,.78-.83,1.4-1.61,1.63l-1.07,.33Z" fill="#ffb669"></path>
      <path d="M180.51,630.84c-3.6,0-7.93-.46-12.09-2.06l-.09-.03c-5.95-2.31-10.21-6.45-12.66-12.32-.17-.41-.16-.88,.03-1.28,.19-.4,.54-.7,.96-.83l1.07-.33c.62-.19,1.1-.67,1.28-1.29l1.27-4.37c.16-.55,.06-1.14-.26-1.62l-.9-1.3c-.37-.54-.37-1.23-.01-1.77,1.93-2.85,9.5-11.66,25.83-5.3l.1,.06c.12,.08,11.68,7.92,26.23,3.07,.22-.1,6.63-2.87,16,.53l.26,.09,2.9,12.6-12.47,12.03c-.13,.47-.54,1.84-1.18,2.48l-.15,.15-16.49-.44c-.06,0-8.19,.23-11.13,1.07-.26,.06-3.76,.85-8.48,.85Zm-11.89-3.05l.08,.03c9.35,3.62,19.94,1.23,20.04,1.2,3.04-.87,11.04-1.09,11.38-1.1l16.06,.43c.36-.49,.69-1.45,.83-2l.03-.14,12.27-11.84-2.65-11.51c-8.83-3.12-14.98-.48-15.04-.45-14.57,4.86-26.23-2.56-27.11-3.15-15.6-6.05-22.76,2.26-24.59,4.95-.13,.19-.13,.44,0,.64l.9,1.3c.5,.72,.65,1.62,.4,2.47l-1.27,4.37c-.27,.95-1,1.69-1.95,1.97l-1.07,.33c-.15,.05-.28,.15-.34,.3-.07,.15-.07,.32,0,.47,2.33,5.58,6.37,9.53,12.02,11.74Z" fill="#231f20"></path>
    </g>
    <g>
      <path d="M168.51,628.28c-4.98-1.93-9.66-5.54-12.37-12.03-.25-.59,.05-1.26,.67-1.45l1.07-.33c.78-.24,1.39-.85,1.61-1.63l1.27-4.37c.2-.7,.08-1.45-.33-2.04l-.9-1.3c-.25-.36-.25-.84,0-1.2,1.45-2.15,7.08-8.96,18.78-6.95,2.86,.49,5.62,1.49,8.18,2.86,3.78,2.01,13.39,5.97,24.95,2.12,0,0,6.38-2.85,15.67,.53l4.35-2.7c-7.23-5.12-16.82-1.69-20.98,.24-2.01,.93-4.17,1.52-6.39,1.62-6.78,.3-11.28-2.18-11.28-2.18-18.2-7.7-22.16-7.05-22.16-7.05-17.58,.43-18.45,19.31-18.45,19.31-1.07,13.43,15.75,16.47,16.33,16.57Z" fill="#fff"></path>
      <path d="M168.43,628.77c-.73-.13-17.84-3.28-16.75-17.1,0-.18,1.09-19.33,18.93-19.77,.1-.02,4.24-.58,22.37,7.09,.09,.05,4.52,2.44,11.07,2.15,2.06-.09,4.15-.62,6.2-1.57,3.95-1.83,13.96-5.52,21.48-.2l.62,.44-5.2,3.22-.23-.08c-8.97-3.26-15.23-.57-15.29-.54-11.85,3.95-21.7-.18-25.38-2.14-2.63-1.4-5.33-2.34-8.03-2.8-11.4-1.96-16.87,4.67-18.28,6.74-.13,.19-.13,.44,0,.64l.9,1.3c.5,.72,.65,1.62,.4,2.47l-1.27,4.37c-.27,.95-1,1.69-1.95,1.97l-1.07,.33c-.15,.05-.27,.15-.34,.29-.07,.15-.07,.33,0,.48,2.34,5.6,6.41,9.55,12.09,11.76l-.27,.96Zm2.45-35.89c-.12,0-.17,0-.18,0-16.98,.42-18.01,18.66-18.02,18.84-.67,8.5,6.1,12.7,11.02,14.63-3.58-2.39-6.27-5.71-8.03-9.92-.17-.42-.16-.89,.03-1.29,.19-.4,.53-.7,.95-.83l1.07-.33c.62-.19,1.1-.67,1.28-1.29l1.27-4.37c.16-.55,.06-1.14-.26-1.62l-.9-1.3c-.37-.54-.38-1.23-.01-1.77,1.49-2.2,7.29-9.22,19.28-7.17,2.8,.48,5.61,1.46,8.33,2.91,3.57,1.9,13.12,5.9,24.55,2.09,.22-.1,6.52-2.83,15.77,.45l3.48-2.16c-7.02-4.39-16.16-1-19.85,.71-2.17,1-4.38,1.56-6.58,1.66-6.84,.31-11.36-2.14-11.55-2.25-15.65-6.62-20.71-7-21.67-7Z" fill="#231f20"></path>
    </g>
    <g>
      <path d="M322.81,427.3s6.34-1.13,9.76,3.32c0,0,1.68,3.58-1.36,7.92,0,0,3.47,6.51,2.6,8.46,0,0,22.35,6.73,26.69,21.05,0,0,2.6,7.6,5.21,26.69,0,0,0,4.56,3.26,9.98,0,0,4.12,7.6,1.3,11.94,0,0,4.25,5.12,5.4,11.75,1.07,6.13-1.91,12.18-7.22,15.42-4.44,2.7-11.57,5.34-21.83,4.3l-80.51-8.03s12.37-19.31,4.12-28.64l-10.85,13.89-46.66-31.47-5.43-17.58s.65-1.71,0-2.59c0,0-4.12-1.53-1.95-5.44,0,0,10.63-16.06,21.05-14.11,0,0,4.99,.65,3.26,6.29,0,0,6.94,1.95,5.21,9.11,0,0,3.91,1.3,7.16,14.76l10.63-1.09s9.41-18.48,15.22-26.32c1.23-1.65,2.83-2.98,4.67-3.9s4.8-2.27,8.97-3.85c0,0,1.95-10.2,18.88-14.97l22.41-6.9Z" fill="#ffb669"></path>
      <path d="M351.06,548.85c-1.43,0-2.93-.07-4.5-.23l-81.32-8.11,.44-.69c.12-.19,11.67-18.46,4.56-27.58l-10.76,13.77-47.19-31.83-5.53-17.91,.06-.16c.13-.35,.42-1.44,.13-2.01-.5-.22-1.98-.99-2.53-2.5-.4-1.08-.24-2.29,.48-3.59,.46-.7,10.96-16.35,21.58-14.35,.06,0,2.2,.3,3.34,2.08,.74,1.15,.88,2.62,.43,4.39,1.57,.61,6.44,3.04,5.17,9.17,1.12,.71,4.28,3.61,6.97,14.48l9.93-1.01c1.14-2.21,9.73-18.85,15.14-26.15,1.26-1.7,2.93-3.1,4.85-4.05,1.71-.85,4.61-2.19,8.77-3.77,.45-1.73,3.5-10.66,19.17-15.08l22.46-6.91c.27-.05,6.68-1.13,10.24,3.51l.06,.09c.07,.15,1.7,3.76-1.23,8.17,.66,1.27,2.93,5.85,2.62,8.09,3.31,1.07,22.49,7.8,26.57,21.24,.02,.06,2.64,7.84,5.23,26.77,0,.11,.05,4.56,3.19,9.79,.18,.33,4.06,7.59,1.48,12.15,.91,1.17,4.26,5.82,5.29,11.7,1.09,6.26-1.84,12.51-7.46,15.93-3.62,2.2-9.44,4.6-17.65,4.6Zm-84.11-9.18l79.71,7.95c10.33,1.04,17.41-1.72,21.52-4.23,5.27-3.21,8.01-9.06,6.99-14.91-1.12-6.42-5.25-11.46-5.29-11.51l-.23-.28,.2-.31c2.63-4.04-1.28-11.35-1.32-11.42-3.28-5.46-3.32-10.03-3.32-10.22-2.56-18.74-5.16-26.45-5.18-26.53-4.22-13.92-26.14-20.67-26.36-20.73l-.54-.16,.23-.52c.56-1.26-1.29-5.59-2.59-8.02l-.14-.27,.18-.25c2.67-3.82,1.52-6.94,1.33-7.38-3.09-3.95-8.77-3.16-9.21-3.09l-22.38,6.89c-16.4,4.63-18.52,14.49-18.54,14.59l-.05,.27-.26,.1c-4.25,1.61-7.2,2.97-8.93,3.83-1.78,.88-3.33,2.18-4.49,3.75-5.72,7.72-15.08,26.07-15.17,26.25l-.12,.24-11.34,1.16-.1-.42c-3.11-12.85-6.81-14.39-6.84-14.4l-.41-.16,.09-.43c1.6-6.6-4.59-8.44-4.86-8.52l-.49-.14,.15-.49c.51-1.67,.45-3.02-.18-4-.89-1.39-2.65-1.64-2.67-1.65-10.01-1.87-20.46,13.73-20.57,13.89-.55,1-.69,1.92-.4,2.72,.5,1.36,2.09,1.97,2.11,1.97l.14,.05,.09,.12c.68,.92,.29,2.38,.12,2.9l5.32,17.25,46.12,31.11,10.93-14,.4,.45c7.61,8.61-1.49,24.96-3.65,28.56Z" fill="#231f20"></path>
    </g>
    <path d="M322.53,449.02c-.16,0-.31-.07-.41-.21-.16-.23-.11-.54,.12-.7,5.05-3.58,8.5-9.75,8.53-9.82,.13-.24,.44-.33,.68-.2,.24,.13,.33,.44,.2,.68-.14,.26-3.59,6.44-8.83,10.15-.09,.06-.19,.09-.29,.09Z" fill="#231f20"></path>
    <path d="M294.34,475.13c-.48,0-.96-.02-1.46-.07-4.69-.46-8.94-3.15-12.64-8.01-.16-.16-4.68-5-3.35-12.54,.05-.27,.31-.46,.58-.41,.27,.05,.45,.31,.41,.58-1.24,7.05,3.08,11.67,3.12,11.72,3.55,4.66,7.56,7.23,11.96,7.66,6.89,.68,12.46-4.17,12.52-4.22,9.89-7.1,26.1-20.92,26.26-21.06,.21-.18,.52-.15,.71,.06,.18,.21,.15,.53-.06,.71-.16,.14-16.41,13.98-26.29,21.08-.19,.17-5.15,4.5-11.77,4.5Z" fill="#231f20"></path>
    <path d="M270.23,511.95c-.15,0-.29-.06-.39-.19-.26-.33-6.42-8.15-2.91-20.42,.72-2.51,2.84-11.38,0-19.89-.09-.26,.05-.55,.32-.63,.26-.09,.54,.05,.63,.32,2.93,8.78,.75,17.89,0,20.48-3.35,11.74,2.67,19.44,2.73,19.51,.17,.22,.14,.53-.08,.7-.09,.07-.2,.11-.31,.11Z" fill="#231f20"></path>
    <path d="M267.41,491.99c-.13,0-.27-.05-.36-.16-6.78-7.22-7.02-22.52-7.02-23.17,0-.28,.22-.5,.5-.5,.31,0,.5,.22,.5,.5,0,.15,.24,15.56,6.75,22.49,.19,.2,.18,.52-.02,.71-.1,.09-.22,.14-.34,.14Z" fill="#231f20"></path>
    <path d="M339.02,492.64s-.04,0-.07,0c-.27-.04-.47-.29-.43-.56,1.03-7.58,2.63-12.36,3.78-15.03,.71-1.64,1.69-3.15,2.91-4.48,3.23-3.52,6.49-5.15,9.67-4.85,4.56,.43,7.23,4.67,7.34,4.84,.15,.23,.07,.54-.16,.69s-.54,.07-.69-.16c-.02-.04-2.53-4-6.59-4.38-2.86-.27-5.82,1.26-8.83,4.53-1.14,1.25-2.06,2.66-2.73,4.2-1.13,2.62-2.7,7.3-3.71,14.77-.03,.25-.25,.43-.5,.43Z" fill="#231f20"></path>
    <path d="M365.71,527.14c-.08,0-.17-.02-.25-.06-.08-.04-7.95-4.45-14.19-3.2-.17,.05-5.39,1.61-7.84-.64-1.09-1.01-1.45-2.57-1.05-4.65-1.06-.98-5.18-5.38-3.88-13.97-.64-1.27-4.89-10.16-3.88-22.06,.02-.27,.27-.48,.54-.46,.27,.02,.48,.27,.46,.54-1.06,12.49,3.8,21.56,3.85,21.65,.05,.1,.07,.21,.05,.32-1.46,9.17,3.67,13.36,3.72,13.4,.15,.12,.22,.31,.18,.5-.4,1.86-.17,3.2,.69,4,2.02,1.86,6.87,.42,6.92,.41,6.66-1.33,14.6,3.11,14.93,3.3,.24,.14,.32,.44,.19,.68-.09,.16-.26,.25-.44,.25Z" fill="#231f20"></path>
    <path d="M347.1,524.45c-.13,0-.27-.05-.37-.16-.19-.2-.18-.52,.03-.71,5.83-5.43,16.67-2.54,17.13-2.41,.27,.07,.42,.35,.35,.61s-.35,.42-.61,.35c-.11-.03-10.76-2.87-16.18,2.18-.1,.09-.22,.13-.34,.13Z" fill="#231f20"></path>
    <g>
      <path d="M226.39,562.88s5.64,4.56,4.99,8.68l-1.09-1.74s-8-2.6-18.43,1.74c0,0-14.08,5.21-7.16,14.43,0,0-2.41,.54-5.23-2.71l-3.04-3.91s-5.79-1.9-14.77-9.6c-3.16-2.71-5.91-5.87-8.23-9.32-1.41-2.1-3.44-4.64-5.84-6.31-1.67-1.16-3.23-2.47-4.46-4.08-2.36-3.06-5.38-8.45-6.62-16.91,0,0-3.47-11.28,3.91-18.23l6.73-6.29s2.68-2.46,8.37-2.4c4.64,.04,9.09,1.83,12.65,4.79,5.78,4.81,16.86,15.96,31.93,39.93,0,0,5.86,8.46,6.29,11.94Z" fill="#a6dced"></path>
      <path d="M204.3,586.53c-.93,0-2.96-.35-5.19-2.92l-2.96-3.81c-.98-.35-6.52-2.55-14.79-9.65-3.11-2.67-5.91-5.84-8.32-9.42-1.27-1.9-3.3-4.51-5.71-6.18-1.99-1.39-3.45-2.71-4.58-4.18-2.37-3.08-5.46-8.55-6.72-17.14-.02-.04-3.46-11.59,4.06-18.67l6.73-6.29c.12-.11,2.89-2.6,8.71-2.54,4.61,.04,9.22,1.79,12.97,4.91,5.37,4.46,16.67,15.6,32.03,40.04,.23,.33,5.71,8.29,6.34,11.94,.94,.79,5.65,5.01,5.02,9.02l-.21,1.32-1.69-2.71c-1.2-.33-8.61-2.1-17.92,1.77-.09,.03-7.15,2.7-8.53,7.39-.58,1.99-.05,4.1,1.58,6.28l.46,.62-.75,.17s-.22,.05-.53,.05Zm-28.96-79.8c-5.27,0-7.82,2.25-7.85,2.27l-6.72,6.29c-7.06,6.64-3.8,17.61-3.77,17.72,1.25,8.45,4.25,13.77,6.54,16.75,1.06,1.38,2.45,2.65,4.35,3.97,2.54,1.76,4.64,4.48,5.97,6.44,2.36,3.51,5.1,6.61,8.14,9.22,8.78,7.53,14.55,9.49,14.6,9.51l.14,.05,3.13,4.03c1.6,1.84,3.01,2.37,3.87,2.51-1.39-2.17-1.79-4.3-1.18-6.36,1.52-5.17,8.81-7.92,9.12-8.03,10.46-4.35,18.42-1.85,18.76-1.74l.17,.06,.14,.22c-.86-3.23-4.64-6.32-4.68-6.35l-.16-.13-.02-.2c-.41-3.31-6.15-11.63-6.21-11.71-15.31-24.34-26.52-35.4-31.84-39.83-3.58-2.97-7.96-4.63-12.34-4.68-.06,0-.12,0-.18,0Z" fill="#231f20"></path>
    </g>
    <path d="M196.45,579.87s-.08,0-.11-.01c-.27-.06-.44-.33-.37-.6,1.63-7.06,5.01-12.11,10.03-15.02,8.51-4.93,18.61-1.97,19.03-1.84,.26,.08,.41,.36,.33,.62-.08,.26-.36,.41-.62,.33-.1-.03-10.12-2.96-18.25,1.75-4.77,2.76-7.98,7.6-9.55,14.37-.05,.23-.26,.39-.49,.39Z" fill="#231f20"></path>
    <g>
      <polygon points="288.89 541.18 262.42 536.84 262.42 546.13 273.05 557.89 288.89 541.18" fill="#fff"></polygon>
      <path d="M273.04,558.63l-11.12-12.31v-10.07l27.99,4.59-16.86,17.79Zm-10.12-12.69l10.14,11.22,14.82-15.63-24.96-4.09v8.5Z" fill="#231f20"></path>
    </g>
    <g>
      <polygon points="286.92 543.26 271.85 541.78 275.11 555.72 286.92 543.26" fill="#231f20"></polygon>
      <path d="M274.83,556.74l-3.62-15.53,16.78,1.65-13.16,13.88Zm-2.33-14.4l2.88,12.36,10.48-11.05-13.36-1.31Z" fill="#231f20"></path>
    </g>
    <g>
      <path d="M276.75,598.57s-5.22,4.02-22.14,9.66c0,0-12.43,4.75-16.09,9.86,0,0-4.74,9.89-21.02,8.37,0,0,1.99-7.98,1.01-11.67-.15-.55-.57-.99-1.11-1.17l-8.36-2.79s6.76-5.07,11.38-5.43c.79-.06,1.56-.25,2.28-.6,3.08-1.5,11.06-5.71,16.73-11.55l21.7-22.28,7.17,.57s11.22,23.65,10.49,23.65-2.02,3.36-2.02,3.36Z" fill="#fff"></path>
      <path d="M220.77,627.12c-1.05,0-2.15-.05-3.32-.16l-.58-.05,.14-.56c.02-.08,1.95-7.9,1.01-11.42-.1-.38-.4-.69-.79-.82l-9.27-3.09,.76-.57c.28-.21,6.94-5.17,11.64-5.53,.76-.06,1.47-.24,2.1-.55,3.12-1.52,10.99-5.69,16.59-11.45l21.86-22.44,7.69,.62,.12,.26c11.04,23.26,10.67,23.84,10.49,24.12l-.15,.23h-.3c-.23,.16-.99,1.58-1.56,3.05l-.05,.13-.11,.09c-.22,.17-5.48,4.14-22.29,9.74-.1,.04-12.31,4.75-15.84,9.68,0,.03-4.35,8.73-18.16,8.73Zm-2.65-1.11c15.25,1.19,19.9-8.04,19.95-8.14,3.75-5.25,15.85-9.91,16.36-10.11,15.35-5.12,21.08-8.93,21.91-9.51,.7-1.79,1.34-2.91,1.92-3.34-.63-2.16-6.49-14.83-10.3-22.88l-6.64-.53-21.53,22.11c-5.7,5.88-13.7,10.1-16.87,11.65-.74,.36-1.57,.58-2.46,.65-3.51,.27-8.43,3.45-10.32,4.77l7.43,2.48c.71,.24,1.25,.8,1.44,1.51,.86,3.23-.43,9.43-.87,11.35Z" fill="#231f20"></path>
    </g>
    <path d="M189.18,627.12c-.05,0-.1,0-.15-.02-3.52-1.12-6.56-1.88-6.59-1.89-.15-.04-.27-.14-.33-.28-.06-.14-.06-.3,0-.43,2.94-5.88,2.34-15.06,2.34-15.15,0-.14,.04-.28,.14-.38,.1-.1,.24-.16,.38-.15l21.44,1.01c.28,.01,.49,.25,.48,.52-.01,.28-.26,.48-.52,.48l-20.88-.98c.09,2.06,.19,9.25-2.2,14.55,1.06,.28,3.43,.91,6.06,1.75,.26,.08,.41,.37,.32,.63-.07,.21-.26,.35-.48,.35Z" fill="#231f20"></path>
    <g>
      <path d="M286.45,595.62c7.54,14.07,3.31,33.45,3.31,33.45-3.36-3.76-6.49-9.24-8.72-13.37-1.45-2.69-1.74-5.85-.8-8.76l3.04-9.37,3.17-1.94Z" fill="#231f20"></path>
      <path d="M290.04,630.13l-.65-.73c-3.43-3.84-6.66-9.53-8.78-13.47-1.51-2.8-1.81-6.13-.84-9.15l3.09-9.55,3.78-2.32,.25,.47c7.54,14.08,3.4,33.6,3.36,33.79l-.21,.96Zm-6.34-32.24l-2.98,9.2c-.89,2.76-.62,5.81,.77,8.37,1.96,3.64,4.87,8.77,7.98,12.5,.71-4.08,2.89-19.75-3.21-31.63l-2.56,1.57Z" fill="#231f20"></path>
    </g>
    <g>
      <path d="M277.86,599.48s1.04,.68,2.56-.17l2.85-1.75-3.04,9.37s-1.62,4.5,.8,8.76c0,0,3.94,7.73,8.72,13.37,0,0-2.6,2.17-6.73,1.52,0,0-2.2-4.01-4.49-10.86-.18-.53-.61-.95-1.16-1.09l-2.76-.75c-.68-.19-1.18-.78-1.23-1.49l-.67-8.4c-.06-.75,.39-1.45,1.09-1.71l1.78-.66c.71-.26,1.24-.88,1.38-1.62l.89-4.52Z" fill="#fff"></path>
      <path d="M284.58,631.21c-.51,0-1.05-.04-1.62-.13l-.24-.04-.12-.21s-2.25-4.12-4.53-10.95c-.13-.38-.43-.67-.81-.77l-2.76-.75c-.88-.24-1.53-1.02-1.6-1.93l-.67-8.4c-.08-.97,.51-1.88,1.42-2.22l1.78-.66c.54-.2,.95-.68,1.06-1.25l1.03-5.25,.62,.4c.05,.03,.85,.48,2.05-.18l3.99-2.45-3.45,10.66c-.02,.06-1.52,4.36,.76,8.36,.05,.1,3.98,7.76,8.66,13.3l.33,.38-.39,.32c-.1,.08-2.15,1.76-5.5,1.76Zm-1.22-1.08c2.8,.37,4.84-.64,5.67-1.16-4.6-5.58-8.39-12.97-8.43-13.04-2.5-4.39-.9-8.96-.83-9.16l2.61-8.07-1.7,1.04c-1.04,.57-1.9,.55-2.44,.42l-.77,3.94c-.18,.91-.83,1.67-1.7,1.99l-1.78,.66c-.49,.18-.81,.68-.77,1.2l.67,8.4c.04,.49,.39,.91,.87,1.04l2.76,.75c.71,.19,1.27,.72,1.5,1.42,1.95,5.85,3.86,9.64,4.34,10.56Z" fill="#231f20"></path>
    </g>
    <g>
      <path d="M283.03,630.59s-7.94,.32-12.54-3.96l-11.11-.81s-8.79,.21-8.95-8.79l-3.63-1.19,.45-4.23s2.8-1.42,7.36-3.37c0,0,16.08-5.22,22.14-9.66,0,0,.5,.61,1.12,.91l-.89,4.52s-.14,1.18-1.38,1.62l-1.78,.66s-1.21,.38-1.09,1.71l.67,8.4s-.02,1.15,1.23,1.49l2.76,.75s.79,0,1.16,1.09c0,0,1.45,4.79,4.49,10.86Z" fill="#ffb669"></path>
      <path d="M282.6,631.09c-1.76,0-8.19-.27-12.32-3.99l-10.94-.8c-.12,0-4.04,.07-6.81-2.59-1.61-1.54-2.48-3.67-2.6-6.34l-3.68-1.21,.53-4.9,.24-.12s2.87-1.44,7.39-3.38c.2-.07,16.11-5.26,22.05-9.61l.38-.28,.3,.36s.44,.53,.95,.77l.35,.17-.96,4.9s-.19,1.45-1.7,2l-1.78,.65c-.1,.04-.85,.31-.77,1.2l.67,8.41c0,.12,.03,.82,.87,1.04l2.71,.74c.44,.03,1.19,.36,1.55,1.43,.02,.06,1.48,4.84,4.47,10.8l.35,.69-.77,.03s-.2,0-.45,0Zm-23.23-5.78l11.34,.82,.13,.12c3.56,3.31,9.31,3.77,11.39,3.83-2.78-5.7-4.15-10.17-4.17-10.22-.23-.69-.65-.74-.69-.74l-.12-.02-2.76-.75c-1.28-.35-1.61-1.45-1.6-1.98l-.67-8.36c-.12-1.37,.89-2.06,1.44-2.23l1.76-.65c.94-.34,1.06-1.2,1.06-1.21l.83-4.2c-.24-.16-.46-.35-.62-.5-6.29,4.38-21.28,9.27-21.93,9.48-3.7,1.59-6.27,2.84-7.04,3.22l-.38,3.55,3.59,1.18v.36c.05,2.55,.82,4.56,2.3,5.98,2.46,2.37,6.11,2.32,6.15,2.32Z" fill="#231f20"></path>
    </g>
    <path d="M270.49,627.12c-.18,0-.36-.1-.45-.27-5.85-11.41-1.85-22.58-1.81-22.69,.1-.26,.38-.39,.64-.3,.26,.1,.39,.38,.3,.64-.04,.11-3.88,10.89,1.76,21.89,.13,.25,.03,.55-.22,.67-.07,.04-.15,.06-.23,.06Z" fill="#231f20"></path>
    <path d="M254.82,622.19c-.22,0-.42-.15-.48-.37-.07-.27,.08-.54,.35-.61,.06-.02,6.53-1.76,13.42-1.65,.28,0,.5,.23,.49,.51s-.24,.47-.51,.49c-6.76-.11-13.08,1.6-13.14,1.61-.04,.01-.09,.02-.13,.02Z" fill="#231f20"></path>
    <path d="M267.93,607.81s-.09,0-.14-.02l-5.97-1.73c-.27-.08-.42-.35-.34-.62,.08-.26,.35-.42,.62-.34l5.97,1.73c.27,.08,.42,.35,.34,.62-.06,.22-.26,.36-.48,.36Z" fill="#231f20"></path>
    <path d="M229.43,479.67c-.13,0-.26-.05-.36-.16-.19-.2-.18-.52,.02-.71,4.98-4.72,5.27-9.22,5.27-9.26,.01-.27,.26-.49,.52-.47,.28,.01,.49,.25,.47,.52,0,.2-.29,4.92-5.58,9.94-.1,.09-.22,.14-.34,.14Z" fill="#231f20"></path>
    <g>
      <path d="M225.31,457.85s-6.94-6.51-5.21-18.88c0,0,1.67-4.04,1.27-8.09l2.42-10.13s.43-3.26-2.17-2.82c0,0-4.12-.22-5.21,6.29,0,0-.43,5.43-1.95,6.4,0,0-2.61-5.88-8.02-7.78-1.92-.67-4.07,.24-4.86,2.12-.25,.59-.46,1.32-.61,2.21,0,0-4.09,.74-4.53,5.73,0,0-3.27,.83-2.61,4.97,0,0-6.79,5.45,1.93,12.82,0,0,4.43,3.31,9.23,6.3,1.66,1.04,3.01,2.52,3.86,4.28l4.02,8.3s11.78-3.04,12.44-11.72Z" fill="#fff"></path>
      <path d="M212.6,470.15l-4.2-8.67c-.81-1.67-2.08-3.09-3.67-4.08-4.76-2.97-9.22-6.29-9.27-6.32-3.13-2.65-4.68-5.35-4.65-8.05,.04-2.85,1.84-4.78,2.48-5.37-.43-3.49,1.8-4.77,2.68-5.14,.5-4.17,3.52-5.45,4.56-5.76,.14-.74,.34-1.42,.58-2,.89-2.11,3.29-3.17,5.49-2.4,4.51,1.58,7.11,5.76,7.98,7.39,.73-1.15,1.19-3.87,1.32-5.58,1.07-6.45,5.09-6.74,5.67-6.75,.82-.13,1.48,.04,1.96,.51,.97,.94,.77,2.68,.75,2.87l-2.41,10.1c.36,3.88-1.07,7.65-1.29,8.19-1.65,11.93,5,18.32,5.06,18.38l.17,.16-.02,.24c-.67,8.93-12.31,12.04-12.81,12.17l-.4,.1Zm-7.46-47.04c-1.32,0-2.57,.77-3.1,2.04-.25,.59-.44,1.3-.57,2.1l-.06,.35-.35,.06c-.15,.03-3.73,.75-4.12,5.28l-.03,.35-.34,.09c-.11,.03-2.81,.79-2.24,4.41l.05,.29-.23,.18s-2.3,1.89-2.33,4.81c-.03,2.38,1.41,4.82,4.27,7.24,.02,.01,4.45,3.31,9.17,6.25,1.75,1.09,3.15,2.65,4.05,4.49l3.83,7.92c1.99-.61,10.93-3.75,11.65-10.93-1.11-1.14-6.8-7.62-5.18-19.14l.03-.12s1.62-3.97,1.23-7.85v-.08s2.43-10.22,2.43-10.22c.04-.34,.06-1.47-.46-1.97-.25-.25-.63-.32-1.14-.24h-.05s-.05,0-.05,0c-.15-.01-3.7-.07-4.69,5.88-.04,.54-.5,5.66-2.18,6.74l-.49,.31-.24-.53c-.03-.06-2.6-5.71-7.73-7.51-.38-.13-.76-.19-1.14-.19Z" fill="#231f20"></path>
    </g>
    <path d="M197.87,445.58c-1.11,0-2.36-.24-3.75-.71-.26-.09-.4-.37-.31-.64,.09-.26,.37-.4,.64-.31,2.54,.87,4.52,.88,5.87,.04,1.49-.93,1.72-2.64,1.72-2.66,.03-.27,.28-.47,.56-.44,3.47,.42,3.64-.69,3.81-1.87,.11-.72,.24-1.61,1.25-1.82,1.88-.38,2.53-1,2.74-1.45,.25-.54-.03-1.04-.04-1.06-.1-.17-.09-.38,.03-.54,.12-.16,.31-.24,.5-.2,.67,.13,1.23,.03,1.7-.31,1.17-.86,1.39-2.92,1.39-2.94,.03-.27,.27-.48,.55-.45,.27,.03,.47,.27,.45,.55-.01,.1-.27,2.51-1.79,3.64-.5,.37-1.07,.56-1.7,.57,.04,.33,.02,.72-.16,1.14-.44,.98-1.6,1.67-3.46,2.04-.27,.05-.34,.21-.46,.98-.23,1.58-.78,3.09-4.46,2.76-.19,.71-.71,2.04-2.07,2.9-.83,.52-1.83,.79-2.99,.79Z" fill="#231f20"></path>
    <path d="M206.65,449.45c-.24,0-.44-.17-.49-.41-.89-4.69,2.3-10.14,2.44-10.37,.14-.24,.45-.32,.69-.17,.24,.14,.32,.45,.18,.69-.03,.05-3.13,5.36-2.31,9.67,.05,.27-.13,.53-.4,.58-.03,0-.06,0-.09,0Z" fill="#231f20"></path>
    <g>
      <path d="M212.87,469.57s-2.04,.74-3.48,.63c-.61-.05-1.1-.56-1.09-1.18,0-.8,.44-2.14,2.29-4.16l2.28,4.71Z" fill="#231f20"></path>
      <path d="M209.71,470.71c-.12,0-.24,0-.35-.01-.88-.07-1.56-.81-1.55-1.68,.01-1.24,.83-2.75,2.42-4.5l.5-.54,2.84,5.87-.52,.19c-.08,.03-1.86,.67-3.34,.67Zm.77-4.96c-1.36,1.62-1.67,2.66-1.67,3.27,0,.35,.27,.64,.63,.67,.89,.07,2.07-.23,2.74-.43l-1.7-3.51Z" fill="#231f20"></path>
    </g>
    <g>
      <path d="M322.55,434.4s1.91-.63,2.58,.3c.2,.27,.22,.64,.11,.96-.2,.58-.76,1.79-2.29,3.32l-.41-4.57Z" fill="#231f20"></path>
      <path d="M322.56,440.08l-.54-6.03,.38-.12c.23-.08,2.29-.71,3.14,.48,.28,.39,.35,.92,.18,1.41-.21,.62-.81,1.91-2.41,3.51l-.76,.76Zm.53-5.31l.27,3.03c.9-1.06,1.27-1.87,1.42-2.31,.06-.19,.05-.37-.05-.5-.27-.38-1.07-.34-1.64-.22Z" fill="#231f20"></path>
    </g>
    <g>
      <path d="M299.61,440.48s-11.55,4.35-10.05,8.04c0,0,.2,1.09,2.37,2.17l5.43-5.43s1.9-1.98,2.25-4.79Z" fill="#231f20"></path>
      <path d="M292.03,451.3l-.32-.16c-2.12-1.06-2.55-2.17-2.63-2.46-.24-.61-.21-1.25,.08-1.92,1.49-3.41,9.91-6.61,10.27-6.75l.77-.29-.1,.82c-.37,2.94-2.31,4.99-2.39,5.07l-5.69,5.69Zm-1.98-2.87s.22,.78,1.79,1.65l5.17-5.17s1.4-1.49,1.95-3.64c-2.73,1.13-7.89,3.63-8.87,5.88-.19,.43-.21,.81-.06,1.17l.03,.1h0Z" fill="#231f20"></path>
    </g>
    <g>
      <path d="M325.03,418.96s-3.81,6.99-2.07,20.01c0,0-9.32,11.71-31,11.72-.01,0-.02-.02-.01-.02l5.4-5.4s1.95-1.95,2.39-5.64l.65-5.43,18.88-18.45,3.91-5.21,4.25,3.64-2.4,4.78Z" fill="#fff"></path>
      <path d="M291.63,451.19l-.27-.63,.24-.25,5.4-5.4s1.84-1.89,2.24-5.35l.67-5.6,19.01-18.57,4.18-5.58,4.95,4.24-2.58,5.15c-.04,.07-3.7,7.02-2.01,19.7l.03,.21-.13,.17c-.09,.12-9.72,11.89-31.39,11.91h-.33Zm9.24-16.76l-.63,5.25c-.45,3.82-2.44,5.85-2.53,5.94l-4.56,4.56c18.99-.4,28.1-10.01,29.29-11.36-1.65-12.79,1.94-19.69,2.15-20.08l2.22-4.42-3.55-3.04-3.59,4.78-18.8,18.38Z" fill="#231f20"></path>
    </g>
    <g>
      <rect x="288.84" y="381.14" width="35.05" height="56.1" rx="17.53" ry="17.53" transform="translate(390.67 913.36) rotate(-152.67)" fill="#fff"></rect>
      <path d="M301.51,436.57c-2.84,0-5.66-.68-8.26-2.02h0c-4.28-2.21-7.44-5.95-8.9-10.54-1.46-4.59-1.05-9.47,1.16-13.75l9.66-18.7c2.21-4.28,5.95-7.44,10.54-8.9,4.59-1.46,9.47-1.05,13.75,1.16,8.83,4.56,12.3,15.46,7.74,24.29l-9.66,18.7c-2.21,4.28-5.95,7.44-10.54,8.9-1.8,.57-3.65,.86-5.49,.86Zm9.7-53.77c-1.74,0-3.48,.27-5.19,.81-4.33,1.38-7.87,4.37-9.96,8.41l-9.66,18.7c-2.09,4.04-2.48,8.65-1.1,12.99,1.38,4.33,4.37,7.87,8.41,9.96h0c8.34,4.31,18.63,1.03,22.94-7.31l9.66-18.7c2.09-4.04,2.48-8.65,1.1-12.99s-4.37-7.87-8.41-9.96c-2.45-1.27-5.11-1.91-7.8-1.91Z" fill="#231f20"></path>
    </g>
    <g>
      <path d="M322.72,415.93c1.3-2.66,1.98-5.59,1.98-8.56v-.09c0-4.56-2.17-6.73-2.17-6.73-2.6-1.52-5.64-6.73-5.64-6.73-1.3-2.39-2.82-3.26-2.82-3.26-7.16-1.95-8.9-4.77-8.9-4.77,0,0-7.34,1.44-11.59,9.94l-2.88,5.57s-6.44-7.62,0-16.45c0,0-1.81-4.92,3.4-6.44,0,0-.65-5.86,4.56-7.81,0,0,3.72-1.62,7.61,.82,0,0,1.21-5.46,4.75-8.2,2.14-1.65,5.08-1.8,7.46-.51,2.03,1.1,4.6,3.38,6.22,8.14,0,0,12.59-3.94,12.37,10.39,0,0,11.72-.87,14.97,9.98,0,0,1.09,8.25-4.99,14.97,0,0,8.25,10.2-3.26,15.62,0,0-.32,10.85-11.23,8.79,0,0-2.97-4.14-9.76-3.32l-3.35-4.7,3.26-6.66Z" fill="#fff"></path>
      <path d="M335.18,431.38c-.85,0-1.75-.09-2.7-.27l-.2-.04-.12-.16c-.12-.16-2.91-3.9-9.29-3.12l-.3,.04-3.7-5.19,3.39-6.93c1.26-2.58,1.93-5.46,1.93-8.34,0-4.02-1.71-6.11-1.99-6.42-2.67-1.61-5.63-6.65-5.76-6.87-1.09-2-2.33-2.88-2.59-3.04-5.93-1.63-8.23-3.86-8.9-4.67-1.39,.38-7.34,2.4-10.94,9.6l-3.22,6.24-.48-.57c-.07-.08-6.52-7.9-.17-16.86-.19-.67-.57-2.49,.28-4.17,.59-1.17,1.65-2.03,3.16-2.54-.03-1.43,.23-6.17,4.9-7.92,.13-.06,3.62-1.53,7.47,.52,.45-1.57,1.82-5.56,4.76-7.83,2.26-1.74,5.4-1.96,8-.56,1.94,1.05,4.58,3.28,6.3,7.97,1.42-.35,5.71-1.12,8.93,1.28,2.38,1.78,3.6,4.87,3.62,9.19h.02c2.43,0,12.01,.63,14.93,10.35,.06,.42,1.03,8.39-4.82,15.14,.86,1.18,3.47,5.22,2.51,9.39-.62,2.71-2.61,4.9-5.93,6.53-.09,1.13-.62,5.07-3.57,7.43-1.48,1.19-3.34,1.79-5.53,1.79Zm-2.33-1.22c3.02,.54,5.46,.08,7.24-1.35,3.04-2.44,3.21-6.95,3.21-6.99v-.31s.29-.13,.29-.13c3.18-1.5,5.08-3.51,5.65-5.97,1.01-4.38-2.53-8.84-2.57-8.88l-.27-.33,.29-.32c5.85-6.48,4.88-14.49,4.87-14.57-3.08-10.25-13.98-9.58-14.44-9.55l-.54,.04v-.55c.07-4.26-1.01-7.25-3.21-8.89-3.41-2.55-8.45-1.02-8.5-1.01l-.46,.14-.16-.46c-1.61-4.69-4.14-6.86-5.99-7.86-2.25-1.22-4.97-1.04-6.91,.47-3.35,2.59-4.55,7.86-4.56,7.91l-.15,.69-.6-.38c-3.62-2.27-7.11-.8-7.15-.78-4.8,1.8-4.28,7.08-4.26,7.3l.04,.42-.4,.12c-1.42,.42-2.41,1.14-2.92,2.15-.85,1.67-.16,3.62-.15,3.64l.09,.25-.16,.22c-5.17,7.09-1.81,13.28-.48,15.22l2.51-4.86c4.31-8.62,11.63-10.14,11.94-10.21l.34-.07,.18,.3s1.78,2.69,8.6,4.55l.12,.05c.07,.04,1.66,.97,3.01,3.45,.02,.04,3,5.1,5.46,6.53l.1,.08c.09,.09,2.32,2.37,2.32,7.08,0,3.11-.7,6.15-2.03,8.86l-3.13,6.4,3.01,4.22c6.11-.62,9.15,2.6,9.8,3.39Z" fill="#231f20"></path>
    </g>
    <g>
      <ellipse cx="320.79" cy="420.38" rx="6.42" ry="4.09" transform="translate(-203.67 488) rotate(-60)" fill="#fff"></ellipse>
      <path d="M319.01,426.81c-.6,0-1.17-.14-1.69-.44-1.1-.63-1.74-1.87-1.81-3.49-.07-1.53,.4-3.24,1.3-4.8,1.94-3.36,5.21-4.99,7.44-3.7,1.1,.63,1.74,1.87,1.81,3.49,.07,1.53-.4,3.24-1.3,4.8h0c-1.49,2.58-3.77,4.14-5.75,4.14Zm3.58-11.86c-1.62,0-3.64,1.42-4.92,3.63-.81,1.4-1.23,2.92-1.17,4.26,.05,1.26,.52,2.21,1.31,2.66,1.68,.97,4.46-.56,6.07-3.34h0c.81-1.4,1.23-2.92,1.17-4.26-.05-1.26-.52-2.21-1.31-2.66-.35-.2-.74-.29-1.15-.29Z" fill="#231f20"></path>
    </g>
    <path d="M202.52,441.86c-.06,0-.13-.01-.19-.04l-8.69-3.49c-.26-.1-.38-.39-.28-.65,.1-.26,.39-.38,.65-.28l8.69,3.49c.26,.1,.38,.39,.28,.65-.08,.19-.27,.31-.46,.31Z" fill="#231f20"></path>
    <path d="M207.74,438.17c-.06,0-.13-.01-.19-.04l-11.3-4.77c-.25-.11-.37-.4-.27-.66,.11-.25,.4-.37,.65-.27l11.3,4.77c.25,.11,.37,.4,.27,.65-.08,.19-.27,.31-.46,.31Z" fill="#231f20"></path>
    <path d="M210.77,434.91c-.1,0-.21-.03-.3-.1l-9.79-7.25c-.22-.16-.27-.48-.1-.7,.16-.22,.48-.27,.7-.1l9.79,7.25c.22,.16,.27,.48,.1,.7-.1,.13-.25,.2-.4,.2Z" fill="#231f20"></path>
    <path d="M316.89,400.63c-.13,0-.25-.05-.35-.15-.03-.03-2.89-2.84-7.03-4.37-.26-.1-.39-.38-.29-.64,.1-.26,.38-.39,.64-.29,4.35,1.61,7.26,4.48,7.39,4.6,.2,.19,.2,.51,0,.71-.1,.1-.23,.15-.35,.15Z" fill="#231f20"></path>
    <path d="M293.26,396.87c-.2,0-.4-.13-.47-.33-.09-.26,.04-.55,.3-.64,2.06-.75,5.27-.41,5.41-.39,.27,.03,.47,.28,.44,.55-.03,.27-.27,.47-.55,.44-.03,0-3.11-.33-4.96,.34-.06,.02-.11,.03-.17,.03Z" fill="#231f20"></path>
    <path d="M313.28,407.12c-.17,0-.33-.08-.42-.23-.09-.15-2.33-3.55-6.02-2.38-.26,.09-.54-.06-.63-.33-.08-.26,.06-.54,.33-.63,4.44-1.4,7.14,2.76,7.17,2.8,.15,.23,.08,.54-.15,.69-.08,.05-.18,.08-.27,.08Z" fill="#231f20"></path>
    <path d="M289.82,403.53c-.18,0-.36-.1-.45-.28-.12-.25-.02-.55,.22-.67,2.6-1.3,5.42-.36,5.54-.32,.26,.09,.4,.37,.31,.63-.09,.26-.37,.4-.63,.31-.03,0-2.55-.84-4.77,.27-.07,.04-.15,.05-.22,.05Z" fill="#231f20"></path>
    <path d="M297.14,412.78c-.07,0-.13-.01-.2-.04l-3.04-1.3c-.14-.06-.24-.17-.28-.31-.04-.14-.02-.29,.06-.42l5.5-8.58c.15-.23,.46-.3,.69-.15,.23,.15,.3,.46,.15,.69l-5.18,8.08,2.5,1.07c.25,.11,.37,.4,.26,.66-.08,.19-.27,.3-.46,.3Z" fill="#231f20"></path>
    <g>
      <path d="M303.87,416.62l-13.02-.43s3.26,15.19,13.02,.43Z" fill="#fff"></path>
      <path d="M296.26,423.57c-.24,0-.47-.02-.7-.06-3.77-.71-5.15-6.95-5.2-7.21-.03-.15,0-.31,.1-.43,.1-.12,.24-.19,.4-.18l13.02,.43c.18,0,.34,.11,.43,.27,.08,.16,.07,.35-.03,.51-2.93,4.43-5.63,6.67-8.02,6.67Zm-4.76-6.86c.43,1.53,1.75,5.34,4.25,5.81,1.98,.37,4.46-1.5,7.2-5.43l-11.45-.38Z" fill="#231f20"></path>
    </g>
    <g>
      <path d="M357.68,593.26c9.33-6.08-3.69-21.48-4.34-21.48,0,0-3.47-61.2-29.08-61.41,0,0-13.7-3.11-24.54,11.57l-17.86,24.17-5.78,7s-7.08,5.58-9.73,11.36l-4.35,3.19c-1.04,.76-1.41,2.14-.9,3.32,2.03,4.69,4.53,9.78,7.6,15.11,2.67,4.63,5.39,8.78,8.04,12.47,.84,1.17,2.45,1.49,3.68,.74,6.43-3.94,12.87-7.89,19.3-11.83,0,0,.81,34.6,40.97,30.24,4.61-.5,8.8-2.89,11.58-6.6,2.87-3.83,5.62-9.67,5.41-17.85Z" fill="#a6dced"></path>
      <path d="M333.95,618.6c-9.89,0-17.9-2.64-23.88-7.88-8.92-7.81-10.51-19.21-10.79-22.38l-18.6,11.4c-1.45,.89-3.35,.5-4.34-.87-2.88-4.02-5.6-8.23-8.07-12.51-2.82-4.89-5.38-9.99-7.63-15.17-.61-1.4-.17-3.02,1.06-3.92l4.25-3.11c2.62-5.61,9.13-10.88,9.77-11.39l5.75-6.96,17.84-24.15c10.54-14.29,23.99-11.97,24.99-11.78,25.21,.28,29.23,56.99,29.51,61.66,1.59,1.24,5.67,6.85,7.1,11.65,1.36,4.59,.41,8.16-2.74,10.35,.12,6.73-1.78,12.91-5.51,17.89-2.85,3.81-7.19,6.28-11.93,6.8-2.36,.26-4.62,.38-6.8,.38Zm-33.74-32l.02,.87c0,.14,.45,13.69,10.51,22.51,7.07,6.19,17.13,8.63,29.9,7.24,4.46-.48,8.55-2.82,11.23-6.4,3.7-4.94,5.48-10.84,5.31-17.54v-.28s.23-.15,.23-.15c2.11-1.37,3.16-3.38,3.13-5.96-.08-6.27-6.4-13.85-7.32-14.6h-.34l-.03-.47c-.03-.61-3.74-60.73-28.58-60.94h-.11c-.13-.04-13.52-2.86-24.02,11.37l-17.86,24.17-5.87,7.1c-.07,.06-7.02,5.57-9.58,11.18l-.05,.12-4.46,3.27c-.86,.63-1.16,1.74-.74,2.72,2.23,5.14,4.78,10.21,7.58,15.06,2.45,4.25,5.15,8.44,8.01,12.43,.68,.95,2,1.22,3.01,.6l20.04-12.29Z" fill="#231f20"></path>
    </g>
    <path d="M355.43,591.58c-.19,0-.37-.11-.45-.29-2.3-4.88-1.09-10.09-1.04-10.3,.62-5.38-1.03-8.97-1.05-9-.12-.25-.01-.55,.24-.67,.25-.12,.55-.01,.67,.24,.07,.16,1.79,3.88,1.13,9.6-.02,.11-1.19,5.15,.96,9.7,.12,.25,.01,.55-.24,.67-.07,.03-.14,.05-.21,.05Z" fill="#231f20"></path>
    <path d="M299.73,587.98c-.18,0-.35-.1-.44-.27-.13-.25-.03-.55,.21-.67,.18-.09,17.93-9.42,21.71-17.21,.06-.13,.18-.22,.31-.26,.04-.01,4.3-1.35,5.94-8.74l5.22-12.65c.11-.26,.4-.38,.65-.27,.26,.11,.38,.4,.27,.65l-5.2,12.57c-1.56,7.05-5.42,8.95-6.4,9.33-4.11,8.04-21.32,17.09-22.06,17.48-.07,.04-.15,.06-.23,.06Z" fill="#231f20"></path>
    <path d="M280.43,586.38c-.19,0-.37-.11-.46-.29-.11-.25,0-.55,.25-.66,24.95-11.3,35.18-25.56,35.28-25.7,.08-.09,2.59-2.72,7.76-11.63,4.74-8.15,10.03-8.39,11.44-8.28,1.11-1.73,2.43-2.55,3.98-2.46,5.93,.35,12.55,15.09,12.83,15.72,.11,.25,0,.55-.25,.66-.25,.11-.55,0-.66-.25-.07-.15-6.65-14.81-11.97-15.13-1.23-.08-2.28,.66-3.23,2.25-.11,.18-.31,.28-.52,.24-.23-.04-5.71-.89-10.74,7.76-5.26,9.05-7.76,11.65-7.86,11.76-.05,.08-10.41,14.55-35.63,25.97-.07,.03-.14,.04-.21,.04Z" fill="#231f20"></path>
    <path d="M284.55,595.72c-.14,0-.28-.06-.38-.18-9.92-11.64-18.18-30.67-18.27-30.86-.11-.25,0-.55,.26-.66,.25-.11,.55,0,.66,.26,.08,.19,8.29,19.09,18.11,30.61,.18,.21,.15,.53-.06,.71-.09,.08-.21,.12-.32,.12Z" fill="#231f20"></path>
    <path d="M319.45,423.09c-.11,0-.22-.04-.31-.11-.22-.17-.25-.49-.08-.7l3.55-4.43c.17-.21,.49-.25,.7-.08,.22,.17,.25,.49,.08,.7l-3.55,4.43c-.1,.12-.24,.19-.39,.19Z" fill="#231f20"></path>
    <g>
      <path d="M270.05,545.63c.85,.68,2.08,.63,2.87-.12l12.43-11.69c.29-.27,.72-.32,1.07-.12h0c.5,.28,.62,.94,.26,1.38l-5.94,7.25c-.61,.75-.39,1.87,.46,2.33h0c.67,.36,1.5,.18,1.96-.42l16.56-22.31s-16.04-1.16-22.34,3.4l-11.03,8.26,3.87,4.96,6.12-6.52c.23-.25,.6-.32,.91-.19h0c.5,.21,.65,.85,.3,1.26l-7.83,9.4c-.79,.94-.65,2.35,.31,3.12h0Z" fill="#fff"></path>
      <path d="M271.41,546.61c-.59,0-1.19-.19-1.68-.59-.57-.46-.92-1.11-1-1.83-.07-.73,.14-1.44,.61-2l7.83-9.4c.09-.1,.08-.21,.06-.27-.01-.06-.06-.16-.18-.21-.12-.05-.26-.02-.35,.07l-6.52,6.94-4.54-5.82,11.44-8.57c6.37-4.62,22.01-3.55,22.67-3.5l.91,.07-17.1,23.04c-.62,.81-1.71,1.05-2.6,.57-.54-.29-.91-.8-1.03-1.4-.12-.6,.04-1.22,.42-1.69l5.94-7.25c.11-.13,.1-.27,.09-.34s-.06-.2-.21-.29c-.16-.09-.35-.07-.49,.06l-12.42,11.69c-.51,.48-1.18,.73-1.85,.73Zm5.53-15.32c.17,0,.35,.03,.51,.11,.38,.16,.66,.49,.76,.9s0,.82-.27,1.14l-7.83,9.4c-.29,.35-.43,.8-.38,1.25,.05,.46,.27,.87,.63,1.15h0c.65,.52,1.61,.49,2.22-.09l12.43-11.69c.46-.42,1.12-.49,1.65-.2,.37,.21,.62,.56,.7,.97,.08,.41-.03,.84-.3,1.16l-5.94,7.25c-.2,.24-.28,.56-.22,.86,.06,.31,.25,.57,.53,.72,.46,.25,1.01,.13,1.33-.29l16-21.56c-3.48-.16-15.87-.43-21.09,3.35l-10.61,7.95,3.19,4.1,5.72-6.09c.25-.27,.6-.41,.96-.41Z" fill="#231f20"></path>
    </g>
    <g>
      <path d="M272.91,557.87l-86.17-13.64s-.07-.03-.08-.07l-15.62-69.4c-.01-.06,.04-.12,.1-.11l84.9,9.89s.07,.03,.08,.07l16.88,73.15c.02,.07-.04,.13-.11,.11Z" fill="#fff"></path>
      <path d="M272.93,558.37s-.06,0-.1,0l-86.16-13.64c-.24-.04-.44-.22-.49-.46l-15.67-69.65,.19-.28c.13-.14,.32-.22,.51-.19l84.9,9.89c.25,.03,.45,.21,.51,.45l16.94,73.41-.2,.28c-.11,.12-.27,.19-.43,.19Zm-85.83-14.59l85.3,13.5-16.68-72.28-84.05-9.79,15.43,68.57Zm.06,.27h0s0,0,0,0Zm-15.62-69.4h0s0,0,0,0Z" fill="#231f20"></path>
    </g>
    <g>
      <path d="M171.19,474.6l8.77-1.34,78.09,9.33,17.36,74.43c.03,.12-.05,.25-.17,.28l-2,.54c-.11,.03-.21-.04-.24-.14l-16.88-73.15-84.94-9.89s-.03-.04,0-.04Z" fill="#231f20"></path>
      <path d="M273.19,558.34c-.12,0-.25-.03-.36-.1-.16-.1-.28-.26-.32-.44l-16.8-72.81-85.02-9.9-.04-.89,.46-.1,8.83-1.35h.07s78.44,9.38,78.44,9.38l17.44,74.77c.09,.39-.14,.77-.52,.88l-2,.54c-.06,.02-.12,.02-.18,.02Zm-98.43-83.78l81.77,9.53,.08,.34,16.81,72.84,1.44-.39-17.22-73.84-77.68-9.28-5.2,.8Z" fill="#231f20"></path>
    </g>
  </g>
  <path d="M181.66,456.86c-.28,0-.5-.22-.5-.5v-7c0-.28,.22-.5,.5-.5s.5,.22,.5,.5v7c0,.28-.22,.5-.5,.5Zm0-14c-.28,0-.5-.22-.5-.5v-7c0-.28,.22-.5,.5-.5s.5,.22,.5,.5v7c0,.28-.22,.5-.5,.5Zm0-14c-.28,0-.5-.22-.5-.5v-7c0-.28,.22-.5,.5-.5s.5,.22,.5,.5v7c0,.28-.22,.5-.5,.5Zm0-14c-.28,0-.5-.22-.5-.5v-7c0-.28,.22-.5,.5-.5s.5,.22,.5,.5v7c0,.28-.22,.5-.5,.5Zm0-14c-.28,0-.5-.22-.5-.5v-7c0-.28,.22-.5,.5-.5s.5,.22,.5,.5v7c0,.28-.22,.5-.5,.5Zm0-14c-.28,0-.5-.22-.5-.5v-7c0-.28,.22-.5,.5-.5s.5,.22,.5,.5v7c0,.28-.22,.5-.5,.5Zm0-14c-.28,0-.5-.22-.5-.5v-7c0-.28,.22-.5,.5-.5s.5,.22,.5,.5v7c0,.28-.22,.5-.5,.5Zm0-14c-.28,0-.5-.22-.5-.5v-7c0-.28,.22-.5,.5-.5s.5,.22,.5,.5v7c0,.28-.22,.5-.5,.5Zm0-14c-.28,0-.5-.22-.5-.5v-7c0-.28,.22-.5,.5-.5s.5,.22,.5,.5v7c0,.28-.22,.5-.5,.5Zm0-14c-.28,0-.5-.22-.5-.5v-7c0-.28,.22-.5,.5-.5s.5,.22,.5,.5v7c0,.28-.22,.5-.5,.5Zm0-14c-.28,0-.5-.22-.5-.5v-7c0-.28,.22-.5,.5-.5s.5,.22,.5,.5v7c0,.28-.22,.5-.5,.5Zm0-14c-.28,0-.5-.22-.5-.5v-7c0-.28,.22-.5,.5-.5s.5,.22,.5,.5v7c0,.28-.22,.5-.5,.5Zm0-14c-.28,0-.5-.22-.5-.5v-7c0-.28,.22-.5,.5-.5s.5,.22,.5,.5v7c0,.28-.22,.5-.5,.5Zm0-14c-.28,0-.5-.22-.5-.5v-7c0-.28,.22-.5,.5-.5s.5,.22,.5,.5v7c0,.28-.22,.5-.5,.5Zm0-14c-.28,0-.5-.22-.5-.5v-7c0-.28,.22-.5,.5-.5s.5,.22,.5,.5v7c0,.28-.22,.5-.5,.5Zm0-14c-.28,0-.5-.22-.5-.5v-7c0-.28,.22-.5,.5-.5s.5,.22,.5,.5v7c0,.28-.22,.5-.5,.5Zm0-14c-.28,0-.5-.22-.5-.5v-7c0-.28,.22-.5,.5-.5s.5,.22,.5,.5v7c0,.28-.22,.5-.5,.5Zm0-14c-.28,0-.5-.22-.5-.5v-7c0-.28,.22-.5,.5-.5s.5,.22,.5,.5v7c0,.28-.22,.5-.5,.5Zm0-14c-.28,0-.5-.22-.5-.5v-7c0-.28,.22-.5,.5-.5s.5,.22,.5,.5v7c0,.28-.22,.5-.5,.5Zm0-14c-.28,0-.5-.22-.5-.5v-7c0-.28,.22-.5,.5-.5s.5,.22,.5,.5v7c0,.28-.22,.5-.5,.5Zm0-14c-.28,0-.5-.22-.5-.5v-7c0-.28,.22-.5,.5-.5s.5,.22,.5,.5v7c0,.28-.22,.5-.5,.5Zm0-14c-.28,0-.5-.22-.5-.5v-7c0-.28,.22-.5,.5-.5s.5,.22,.5,.5v7c0,.28-.22,.5-.5,.5Zm0-14c-.28,0-.5-.22-.5-.5v-7c0-.28,.22-.5,.5-.5s.5,.22,.5,.5v7c0,.28-.22,.5-.5,.5Zm0-14c-.28,0-.5-.22-.5-.5v-7c0-.28,.22-.5,.5-.5s.5,.22,.5,.5v7c0,.28-.22,.5-.5,.5Zm0-14c-.28,0-.5-.22-.5-.5v-5c0-.28,.22-.5,.5-.5h2c.28,0,.5,.22,.5,.5s-.22,.5-.5,.5h-1.5v4.5c0,.28-.22,.5-.5,.5Zm114-5h-7c-.28,0-.5-.22-.5-.5s.22-.5,.5-.5h7c.28,0,.5,.22,.5,.5s-.22,.5-.5,.5Zm-14,0h-7c-.28,0-.5-.22-.5-.5s.22-.5,.5-.5h7c.28,0,.5,.22,.5,.5s-.22,.5-.5,.5Zm-14,0h-7c-.28,0-.5-.22-.5-.5s.22-.5,.5-.5h7c.28,0,.5,.22,.5,.5s-.22,.5-.5,.5Zm-14,0h-7c-.28,0-.5-.22-.5-.5s.22-.5,.5-.5h7c.28,0,.5,.22,.5,.5s-.22,.5-.5,.5Zm-14,0h-7c-.28,0-.5-.22-.5-.5s.22-.5,.5-.5h7c.28,0,.5,.22,.5,.5s-.22,.5-.5,.5Zm-14,0h-7c-.28,0-.5-.22-.5-.5s.22-.5,.5-.5h7c.28,0,.5,.22,.5,.5s-.22,.5-.5,.5Zm-14,0h-7c-.28,0-.5-.22-.5-.5s.22-.5,.5-.5h7c.28,0,.5,.22,.5,.5s-.22,.5-.5,.5Zm-14,0h-7c-.28,0-.5-.22-.5-.5s.22-.5,.5-.5h7c.28,0,.5,.22,.5,.5s-.22,.5-.5,.5Z" fill="#231f20"></path>
  <path d="M651.66,234.86c-.28,0-.5-.22-.5-.5v-7c0-.28,.22-.5,.5-.5s.5,.22,.5,.5v7c0,.28-.22,.5-.5,.5Zm0-14c-.28,0-.5-.22-.5-.5v-7c0-.28,.22-.5,.5-.5s.5,.22,.5,.5v7c0,.28-.22,.5-.5,.5Zm0-14c-.28,0-.5-.22-.5-.5v-7c0-.28,.22-.5,.5-.5s.5,.22,.5,.5v7c0,.28-.22,.5-.5,.5Zm0-14c-.28,0-.5-.22-.5-.5v-7c0-.28,.22-.5,.5-.5s.5,.22,.5,.5v7c0,.28-.22,.5-.5,.5Zm0-14c-.28,0-.5-.22-.5-.5v-7c0-.28,.22-.5,.5-.5s.5,.22,.5,.5v7c0,.28-.22,.5-.5,.5Zm0-14c-.28,0-.5-.22-.5-.5v-7c0-.28,.22-.5,.5-.5s.5,.22,.5,.5v7c0,.28-.22,.5-.5,.5Zm0-14c-.28,0-.5-.22-.5-.5v-7c0-.28,.22-.5,.5-.5s.5,.22,.5,.5v7c0,.28-.22,.5-.5,.5Zm0-14c-.28,0-.5-.22-.5-.5v-7c0-.28,.22-.5,.5-.5s.5,.22,.5,.5v7c0,.28-.22,.5-.5,.5Zm0-14c-.28,0-.5-.22-.5-.5v-7c0-.28,.22-.5,.5-.5s.5,.22,.5,.5v7c0,.28-.22,.5-.5,.5Zm0-14c-.28,0-.5-.22-.5-.5v-.5h-5.5c-.28,0-.5-.22-.5-.5s.22-.5,.5-.5h6c.28,0,.5,.22,.5,.5v1c0,.28-.22,.5-.5,.5Zm-13-1h-7c-.28,0-.5-.22-.5-.5s.22-.5,.5-.5h7c.28,0,.5,.22,.5,.5s-.22,.5-.5,.5Zm-14,0h-7c-.28,0-.5-.22-.5-.5s.22-.5,.5-.5h7c.28,0,.5,.22,.5,.5s-.22,.5-.5,.5Z" fill="#231f20"></path>
</svg>
